<?xml version="1.0" standalone="no"?>
<!DOCTYPE svg PUBLIC "-//W3C//DTD SVG 1.1//EN" "http://www.w3.org/Graphics/SVG/1.1/DTD/svg11.dtd" >
<svg xmlns="http://www.w3.org/2000/svg" xmlns:xlink="http://www.w3.org/1999/xlink" version="1.1">
<metadata>
Created by FontForge 20170924 at Fri Mar 16 15:30:50 2018
 By www-data
(c) 2006 Microsoft Corporation. All Rights Reserved.
</metadata>
<defs>
<font id="Georgia" horiz-adv-x="0" >
  <font-face 
    font-family="Georgia"
    font-weight="400"
    font-stretch="normal"
    units-per-em="2048"
    panose-1="2 4 5 2 5 4 5 2 3 3"
    ascent="1638"
    descent="-410"
    x-height="958"
    cap-height="1434"
    bbox="-400 -621 3679 2247"
    underline-thickness="101"
    underline-position="-231"
    unicode-range="U+0020-FE48"
  />
<missing-glyph horiz-adv-x="1322" 
d="M166 0v1398h990v-1398h-990zM314 148h694v1102h-694v-1102z" />
    <glyph glyph-name=".notdef" horiz-adv-x="1322" 
d="M166 0v1398h990v-1398h-990zM314 148h694v1102h-694v-1102z" />
    <glyph glyph-name=".null" 
 />
    <glyph glyph-name="nonmarkingreturn" horiz-adv-x="494" 
 />
    <glyph glyph-name="space" unicode=" " horiz-adv-x="561" 
 />
    <glyph glyph-name="exclam" unicode="!" horiz-adv-x="532" 
d="M254 557q-14 0 -25.5 10t-13.5 23l-39 571v234q0 15 12 27t27 12h102q16 0 27.5 -12t11.5 -27v-230l-39 -575q-2 -13 -13 -23t-25 -10h-25zM150 96q0 25 9.5 46t25 37t36.5 25t45 9q25 0 46 -9t37 -25t25 -37t9 -46q0 -24 -9 -45t-25 -36.5t-37 -25t-46 -9.5
q-24 0 -45 9.5t-36.5 25t-25 36.5t-9.5 45z" />
    <glyph glyph-name="quotedbl" unicode="&#x22;" horiz-adv-x="690" 
d="M479 1026q-15 0 -27 11.5t-12 27.5v330q0 15 12 27t27 12h70q20 0 31.5 -15t5.5 -37l-58 -325q-3 -13 -14 -22t-22 -9h-13zM170 1026q-15 0 -27 11.5t-12 27.5v330q0 15 12 27t27 12h70q20 0 31.5 -15t4.5 -37l-57 -325q-3 -13 -14.5 -22t-22.5 -9h-12z" />
    <glyph glyph-name="numbersign" unicode="#" horiz-adv-x="1141" 
d="M283 399h-144q-17 0 -28 12t-11 27v15q0 17 11 28t28 11h158l49 350h-147q-16 0 -27.5 11.5t-11.5 27.5v14q0 15 11.5 27t27.5 12h159l66 467q2 12 12.5 22.5t24.5 10.5h14q17 0 28.5 -13.5t8.5 -31.5l-61 -455h309l63 467q2 12 13.5 22.5t25.5 10.5h12q19 0 31 -13.5
t8 -31.5l-61 -455h143q17 0 28 -12t11 -27v-14q0 -16 -9 -27.5t-26 -11.5h-159l-49 -350h145q15 0 27 -11t12 -28v-15q0 -15 -9.5 -27t-25.5 -12h-164l-53 -366q-2 -14 -12.5 -23.5t-26.5 -9.5h-12q-19 0 -30 13t-9 32l53 354h-313l-51 -366q-2 -14 -13.5 -23.5t-25.5 -9.5
h-13q-20 0 -31 13t-8 32zM700 492l48 350h-310l-51 -350h313z" />
    <glyph glyph-name="dollar" unicode="$" horiz-adv-x="1229" 
d="M197 145q-6 6 -13 12t-10.5 14.5t-2 19t12.5 24.5l37 47q13 17 29.5 22t36.5 -12q4 -5 28 -25.5t62.5 -45.5t90 -47.5t110.5 -30.5v528q-76 31 -146.5 66t-124.5 84.5t-86.5 119t-32.5 169.5q0 49 21.5 108.5t68 113t121 93t179.5 47.5v66q0 17 11.5 27.5t26.5 10.5h15
q15 0 25 -10.5t10 -27.5v-66q67 -5 123 -21.5t98 -34.5q48 -21 88 -46q4 -3 10 -8.5t9.5 -14.5t2.5 -20.5t-10 -26.5l-24 -37q-16 -22 -30 -29t-42 9q-5 2 -25.5 14t-51 27t-69.5 29t-79 20v-531q93 -40 167.5 -81.5t127.5 -92t81.5 -113.5t28.5 -147q0 -76 -33 -141
t-88.5 -113t-129 -77.5t-154.5 -34.5v-213q0 -19 -14 -28t-31 -9q-16 0 -29.5 9t-13.5 28v213q-81 7 -147.5 30t-115 50t-79 51t-39.5 32zM578 1315q-66 -7 -111 -31.5t-73.5 -57.5t-41 -68.5t-12.5 -65.5q0 -95 62.5 -158.5t175.5 -114.5v496zM666 121q51 4 95.5 23.5
t76.5 49t50.5 68t18.5 80.5q0 43 -15.5 80t-45.5 69.5t-75 62t-105 58.5v-491z" />
    <glyph glyph-name="percent" unicode="%" horiz-adv-x="1386" 
d="M371 903q-58 0 -108.5 21.5t-88 59t-59 88t-21.5 108.5q0 57 21.5 107.5t59 88t88 59t108.5 21.5q57 0 107 -21.5t87.5 -59t59.5 -88t22 -107.5q0 -58 -22 -108.5t-59.5 -88t-87.5 -59t-107 -21.5zM987 1413q12 21 35 21h33q11 0 20 -5t14 -13t5.5 -18t-4.5 -20
l-707 -1358q-3 -6 -12 -13t-23 -7h-29q-23 0 -34 17.5t0 37.5zM371 1020q31 0 59.5 12.5t49.5 34t33.5 50.5t12.5 63q0 31 -12.5 59.5t-33.5 49.5t-49.5 33.5t-59.5 12.5q-34 0 -63 -12.5t-50.5 -33.5t-34 -49.5t-12.5 -59.5q0 -34 12.5 -63t34 -50.5t50.5 -34t63 -12.5z
M741 254q0 58 21.5 108t59 87.5t88 59t108.5 21.5q57 0 107 -21.5t87.5 -59t59.5 -87.5t22 -108t-22 -108.5t-59.5 -88t-87.5 -59t-107 -21.5q-58 0 -108.5 21.5t-88 59t-59 88t-21.5 108.5zM858 254q0 -34 12.5 -63t34 -50.5t50.5 -34t63 -12.5q31 0 59.5 12.5t50 34
t34 50.5t12.5 63q0 31 -12.5 59.5t-34 50t-50 34t-59.5 12.5q-34 0 -63 -12.5t-50.5 -34t-34 -50t-12.5 -59.5z" />
    <glyph glyph-name="ampersand" unicode="&#x26;" horiz-adv-x="1362" 
d="M145 356q0 83 29 148.5t72 115t92.5 85.5t91.5 61v4l-49 53q-30 31 -56 64.5t-45.5 70.5t-30.5 77.5t-11 86.5q0 58 21.5 117.5t66.5 107t113 77.5t161 30q83 0 147.5 -25.5t108.5 -68.5t67 -100t23 -121q0 -69 -30.5 -128.5t-76.5 -109.5t-98.5 -89t-97.5 -67l338 -337
q40 81 61 173t21 191q0 17 3 26.5t9 14t14.5 5.5t20.5 1h49q16 0 24 -5t11.5 -12.5t3.5 -15.5v-14q0 -119 -32 -239t-89 -222l197 -196q9 -10 16 -19.5t8.5 -20t-4.5 -24t-22 -31.5l-25 -22q-18 -17 -40.5 -18t-45.5 24l-174 180q-83 -94 -195 -149t-251 -55
q-97 0 -171 30.5t-124 82.5t-75.5 120t-25.5 143zM551 840q34 21 78 48.5t82.5 64t65 81.5t26.5 101q0 37 -14 72.5t-41.5 63.5t-67.5 45t-92 17q-51 0 -90.5 -17t-66.5 -46t-41.5 -68t-14.5 -84q0 -66 36 -121t95 -112zM289 354q0 -54 20 -99.5t55 -78.5t82 -51.5
t101 -18.5q106 0 195 47t155 128l-379 397q-35 -21 -75.5 -51.5t-74.5 -71t-56.5 -90.5t-22.5 -111z" />
    <glyph glyph-name="quotesingle" unicode="'" horiz-adv-x="381" 
d="M170 1026q-15 0 -27 11.5t-12 27.5v330q0 15 12 27t27 12h70q20 0 31.5 -15t4.5 -37l-57 -325q-3 -13 -14.5 -22t-22.5 -9h-12v0z" />
    <glyph glyph-name="parenleft" unicode="(" horiz-adv-x="694" 
d="M592 -160q-58 3 -117 22t-112.5 58.5t-100 101t-80.5 150t-53.5 205.5t-19.5 268q0 150 19.5 267.5t53.5 206t80.5 150t100 101t112 58.5t117.5 22q34 3 37 -20l4 -56q3 -14 -3.5 -23.5t-17.5 -11.5q-97 -19 -165 -73.5t-111.5 -142t-63.5 -207.5t-20 -271
q0 -150 20 -270.5t63.5 -208t111.5 -142t165 -73.5q11 -2 17.5 -11.5t3.5 -23.5l-4 -55q-3 -24 -37 -21z" />
    <glyph glyph-name="parenright" unicode=")" horiz-adv-x="694" 
d="M82 -49q97 19 165 73.5t111.5 142t63.5 208t20 270.5q0 151 -20 271t-63.5 207.5t-111.5 142t-165 73.5q-11 2 -17.5 11.5t-3.5 23.5l5 56q3 23 36 20q58 -3 117 -22t112.5 -58.5t100 -101t81 -150t54 -206t19.5 -267.5t-19.5 -267.5t-54 -206t-81 -150t-100 -101
t-112.5 -58.5t-117 -22q-33 -3 -36 21l-5 55q-3 14 3.5 23.5t17.5 11.5z" />
    <glyph glyph-name="asterisk" unicode="*" horiz-adv-x="848" 
d="M410 834q-16 0 -28.5 11.5t-12.5 26.5l4 175l-142 -103q-12 -9 -28.5 -5.5t-24.5 17.5l-16 23q-9 14 -5.5 30t15.5 27l160 99l-164 98q-12 11 -15 27t5 28q5 6 8 11.5t8 13.5q9 12 25 16.5t28 -4.5l146 -104l-4 176q0 15 12.5 26t28.5 11h26q16 0 28.5 -11t12.5 -26
l-4 -174l141 106q14 8 29 4t25 -16l16 -25q8 -14 6 -29t-16 -26l-164 -102l166 -103q14 -11 17 -27t-5 -28l-14 -25q-11 -14 -27.5 -17t-30.5 5l-143 104l4 -172q0 -15 -12.5 -26.5t-28.5 -11.5h-26v0z" />
    <glyph glyph-name="plus" unicode="+" horiz-adv-x="1229" 
d="M547 643h-322q-15 0 -27 12t-12 27v57q0 16 12 27.5t27 11.5h322v324q0 15 11.5 26t27.5 11h57q16 0 27.5 -11t11.5 -26v-324h324q15 0 25.5 -11.5t10.5 -27.5v-57q0 -15 -10.5 -27t-25.5 -12h-324v-321q0 -16 -11.5 -26.5t-27.5 -10.5h-57q-16 0 -27.5 10.5t-11.5 26.5
v321z" />
    <glyph glyph-name="comma" unicode="," horiz-adv-x="494" 
d="M117 100q0 54 29.5 89.5t84.5 35.5q38 0 66.5 -17.5t48 -48t29.5 -71.5t10 -88q0 -59 -11.5 -108.5t-31 -91.5t-44.5 -77.5t-52 -64.5q-10 -9 -17.5 -8.5t-15.5 6.5l-39 35q-11 11 -8.5 20t10.5 17q21 23 42 49t37 56t26 64t10 74q0 11 -1.5 23t-6.5 24q-11 -8 -31.5 -13
t-36.5 -5q-24 0 -42.5 9.5t-31 24t-18.5 32t-6 34.5z" />
    <glyph glyph-name="hyphen" unicode="-" horiz-adv-x="784" 
d="M178 451q-17 0 -28 10.5t-11 25.5v39q0 17 11 28t28 11h428q17 0 28 -11t11 -28v-39q0 -15 -11 -25.5t-28 -10.5h-428v0z" />
    <glyph glyph-name="period" unicode="." horiz-adv-x="498" 
d="M115 115q0 27 10.5 51.5t28.5 42.5t42 28.5t52 10.5t53 -10.5t43 -28.5t28.5 -42.5t10.5 -51.5q0 -28 -10.5 -53t-28.5 -44t-43 -30t-53 -11t-52 11t-42 30t-28.5 44t-10.5 53z" />
    <glyph glyph-name="slash" unicode="/" horiz-adv-x="772" 
d="M526 1407q3 11 14 19t23 8h45q22 0 32.5 -15t4.5 -37l-399 -1355q-3 -11 -14.5 -19t-22.5 -8h-47q-20 0 -31.5 15t-5.5 36z" />
    <glyph glyph-name="zero" unicode="0" horiz-adv-x="1179" 
d="M613 0q-241 0 -378 258q-111 207 -111 469q0 268 109 473q135 258 380 258q248 0 379 -258q109 -205 109 -473q0 -262 -111 -469q-133 -258 -377 -258zM613 1309q-167 0 -253 -217q-68 -166 -68 -363t68 -358q86 -215 253 -215q166 0 252 215q70 161 70 358t-70 363
q-86 217 -252 217z" />
    <glyph glyph-name="one" unicode="1" horiz-adv-x="1179" 
d="M528 1288h-254l100 166h328v-1454h-174v1288z" />
    <glyph glyph-name="two" unicode="2" horiz-adv-x="1179" 
d="M509 164h578v-164h-924l627 768q127 156 127 256q0 113 -84 192.5t-197 79.5q-108 0 -188 -76.5t-88 -185.5h-179q23 195 143 310.5t312 115.5q186 0 318.5 -121.5t132.5 -308.5q0 -164 -107 -293z" />
    <glyph glyph-name="three" unicode="3" horiz-adv-x="1179" 
d="M557 698v146q274 0 274 225q0 107 -67.5 172.5t-176.5 65.5q-90 0 -153.5 -52.5t-77.5 -144.5h-174q51 350 412 350q176 0 284 -100q121 -103 121 -279q0 -213 -180 -313q200 -96 200 -348q0 -191 -129 -307q-122 -113 -319 -113q-170 0 -289 102q-131 107 -137 275h168
q14 -105 91 -164t179 -59q117 0 192 77.5t75 196.5q0 133 -80 207t-213 63z" />
    <glyph glyph-name="four" unicode="4" horiz-adv-x="1179" 
d="M923 354h160v-151h-160v-203h-166v203h-686l852 1247v-1096zM765 338v637h-4l-434 -637h438z" />
    <glyph glyph-name="five" unicode="5" horiz-adv-x="1179" 
d="M1071 1294h-446l-91 -293l103 7q203 10 334 -148q123 -147 123 -352q0 -225 -152 -366.5t-377 -141.5q-133 0 -252 66q-123 69 -182 184l133 125q31 -90 124 -151.5t189 -61.5q146 0 246.5 102.5t100.5 249.5q0 137 -100.5 237.5t-241.5 100.5q-166 0 -267 -127h-34
l219 731h571v-162z" />
    <glyph glyph-name="six" unicode="6" horiz-adv-x="1179" 
d="M782 1487l129 -84l-381 -514l4 -4q68 30 140 30q174 0 293.5 -134t119.5 -312q0 -197 -137 -333t-334 -136q-190 0 -333.5 134t-143.5 321q0 170 154 379zM612 158q123 0 214 88t91 205q0 122 -90 214.5t-215 92.5q-117 0 -210 -90t-93 -207q0 -123 91 -213t212 -90z" />
    <glyph glyph-name="seven" unicode="7" horiz-adv-x="1179" 
d="M847 1292h-735v162h1026l-887 -1454l-139 84z" />
    <glyph glyph-name="eight" unicode="8" horiz-adv-x="1179" 
d="M589 686q-110 0 -190 -78t-80 -188q0 -105 83 -183.5t187 -78.5q107 0 189 78.5t82 183.5q0 110 -80 188t-191 78zM151 420q0 117 58.5 208t162.5 130q-186 102 -186 313q0 170 115.5 279.5t287.5 109.5t288 -109.5t116 -279.5q0 -211 -187 -313q107 -39 165.5 -130
t58.5 -208q0 -187 -126 -303.5t-315 -116.5q-190 0 -314 118t-124 302zM589 1313q-98 0 -167.5 -72t-69.5 -170q0 -88 75.5 -161.5t161.5 -73.5q88 0 164 73.5t76 161.5q0 98 -70.5 170t-169.5 72z" />
    <glyph glyph-name="nine" unicode="9" horiz-adv-x="1179" 
d="M432 0l-127 86l377 508l-4 4q-53 -25 -137 -25q-170 0 -290 129t-120 302q0 196 136 330t331 134q188 0 328.5 -133t140.5 -317q0 -166 -154 -373zM600 721q125 0 212 85t87 210q0 117 -87 207t-202 90q-125 0 -218 -86t-93 -211q0 -119 90 -207t211 -88z" />
    <glyph glyph-name="colon" unicode=":" horiz-adv-x="549" 
d="M274 696q-27 0 -51.5 11t-43 29t-29.5 42t-11 51q0 29 11 54.5t29.5 44t43 29t51.5 10.5q28 0 53 -10.5t43.5 -29t29 -44t10.5 -54.5q0 -27 -10.5 -51t-29 -42t-43.5 -29t-53 -11zM139 115q0 27 11 51.5t29.5 42.5t43 28.5t51.5 10.5q28 0 53 -10.5t43.5 -28.5t29 -42.5
t10.5 -51.5q0 -28 -10.5 -53t-29 -44t-43.5 -30t-53 -11q-27 0 -51.5 11t-43 30t-29.5 44t-11 53z" />
    <glyph glyph-name="semicolon" unicode=";" horiz-adv-x="557" 
d="M276 696q-27 0 -51.5 11t-43 29t-29.5 42t-11 51q0 29 11 54.5t29.5 44t43 29t51.5 10.5q28 0 52.5 -10.5t42.5 -29t28.5 -44t10.5 -54.5q0 -27 -10.5 -51t-28.5 -42t-42.5 -29t-52.5 -11zM147 100q0 54 29.5 89.5t85.5 35.5q37 0 66 -17.5t48.5 -48t29.5 -71.5t10 -88
q0 -59 -12 -108.5t-31.5 -91.5t-44.5 -77.5t-52 -64.5q-9 -9 -16.5 -8.5t-15.5 6.5l-39 35q-11 11 -8.5 20t10.5 17q21 23 42 49t37 56t26 64t10 74q0 23 -9 47q-11 -8 -31.5 -13t-35.5 -5q-25 0 -43.5 9.5t-31 24t-18.5 32t-6 34.5z" />
    <glyph glyph-name="less" unicode="&#x3c;" horiz-adv-x="1229" 
d="M219 430q-8 5 -14 15.5t-6 19.5v10q0 9 6 19.5t14 15.5l696 434q10 6 20.5 6.5t18.5 -4t13.5 -14t5.5 -21.5v-73q0 -10 -5 -20.5t-18 -18.5l-534 -328l534 -315q16 -10 19.5 -20t3.5 -19v-74q0 -25 -19 -35t-39 2l-696 420v0z" />
    <glyph glyph-name="equal" unicode="=" horiz-adv-x="1229" 
d="M307 719q-17 0 -28 11.5t-11 27.5v61q0 16 11 27.5t28 11.5h613q17 0 27.5 -11.5t10.5 -27.5v-61q0 -16 -10.5 -27.5t-27.5 -11.5h-613zM307 287q-17 0 -28 11.5t-11 27.5v63q0 16 11 27.5t28 11.5h613q17 0 27.5 -11.5t10.5 -27.5v-63q0 -16 -10.5 -27.5t-27.5 -11.5
h-613z" />
    <glyph glyph-name="greater" unicode="&#x3e;" horiz-adv-x="1229" 
d="M254 117q0 9 5 20.5t17 18.5l535 315l-535 328q-14 9 -18 19t-4 20v73q0 25 18.5 35.5t38.5 -2.5l697 -434q8 -5 14 -15.5t6 -19.5v-10q0 -9 -6 -19.5t-14 -15.5l-697 -420q-20 -12 -38.5 -2t-18.5 35v74z" />
    <glyph glyph-name="question" unicode="?" horiz-adv-x="956" 
d="M420 557q-16 0 -27.5 11t-11.5 28v86q0 64 22.5 107t57 75t74 58.5t74 57t57 70t22.5 97.5q0 36 -13 68.5t-38.5 57.5t-63.5 39.5t-88 14.5q-62 0 -108 -15.5t-79.5 -37.5t-56.5 -46t-38 -40q-27 -27 -53 -2l-39 35q-13 11 -11.5 25.5t11.5 27.5q36 50 90 90q23 17 52 33
t64.5 29t77.5 20.5t90 7.5q80 0 145.5 -22.5t112.5 -63.5t73 -99t26 -128q0 -67 -24 -115.5t-60 -85.5t-78 -66.5t-78 -58t-60 -60t-24 -73.5v-84q0 -22 -13.5 -31.5t-29.5 -9.5h-55zM328 96q0 25 9.5 46t25 37t36.5 25t45 9q25 0 46 -9t37 -25t25 -37t9 -46q0 -24 -9 -45
t-25 -36.5t-37 -25t-46 -9.5q-24 0 -45 9.5t-36.5 25t-25 36.5t-9.5 45z" />
    <glyph glyph-name="at" unicode="@" horiz-adv-x="2021" 
d="M121 457q0 218 66 401t189 315.5t297 206.5t390 74q206 0 366.5 -65.5t271 -181.5t168.5 -274t58 -343q0 -68 -12 -135t-35.5 -128t-59 -113t-83 -90.5t-107 -60.5t-131.5 -22q-53 0 -93 13t-69 35t-47 51t-26 61h-17q-16 -32 -41 -61t-57.5 -51t-72.5 -35t-87 -13
q-78 0 -143.5 30.5t-113 87t-74.5 136.5t-27 178q0 102 27 181.5t75.5 134.5t115.5 83.5t146 28.5q62 0 106 -17t73 -37q33 -24 57 -54q5 21 8.5 37.5t10 28t18 17t32.5 5.5h21q15 0 27 -12t12 -27v-436q0 -75 10 -123t29 -76.5t46 -39.5t62 -11q59 0 112.5 29t93.5 84.5
t63.5 136t23.5 184.5q0 157 -47 294t-140 238t-232 159t-322 58q-185 0 -334 -61t-255 -175t-163 -277.5t-57 -368.5q0 -146 40 -270t112 -224.5t171 -177t218 -127.5q22 -11 24.5 -20.5t-6.5 -30.5l-23 -56q-12 -28 -41 -16q-137 58 -251.5 146.5t-197 205.5t-129 260
t-46.5 310zM762 471q0 -72 19.5 -127t52.5 -92.5t76 -56.5t91 -19q51 0 89 17t64.5 44t43 61.5t25.5 70.5v290q-21 31 -53 57q-27 22 -68 40t-98 18q-52 0 -96 -19.5t-76.5 -58t-51 -95t-18.5 -130.5z" />
    <glyph glyph-name="A" unicode="A" horiz-adv-x="1437" 
d="M1078 387h-709l-176 -387h-207l737 1610l738 -1610h-207zM998 563l-275 625l-274 -625h549z" />
    <glyph glyph-name="B" unicode="B" horiz-adv-x="1093" 
d="M322 1372v-512h49q157 0 233 47q98 62 98 211q0 150 -94 207q-76 47 -233 47h-53zM322 707v-535h147q365 0 365 272q0 263 -394 263h-118zM129 0v1544h188q566 0 566 -424q0 -90 -43 -170q-47 -88 -123 -123v-4q135 -24 222 -138t87 -253q0 -217 -166 -332
q-143 -100 -371 -100h-360z" />
    <glyph glyph-name="C" unicode="C" horiz-adv-x="1351" 
d="M1269 1473v-224q-170 152 -407 152q-258 0 -434 -185.5t-176 -445.5q0 -258 174 -442.5t432 -184.5q233 0 411 160v-227q-184 -109 -405 -109q-336 0 -570.5 231.5t-234.5 565.5q0 344 238.5 578.5t582.5 234.5q219 0 389 -104z" />
    <glyph glyph-name="D" unicode="D" horiz-adv-x="1359" 
d="M129 0v1544h319q379 0 613 -188q254 -205 254 -576q0 -379 -252 -587q-234 -193 -621 -193h-313zM322 1368v-1192h67q328 0 516 129q217 152 217 467t-217 467q-188 129 -516 129h-67z" />
    <glyph glyph-name="E" unicode="E" horiz-adv-x="1064" 
d="M145 0v1544h829v-176h-636v-432h618v-176h-618v-584h636v-176h-829z" />
    <glyph glyph-name="F" unicode="F" horiz-adv-x="968" 
d="M891 1368h-555v-434h536v-176h-536v-758h-193v1544h748v-176z" />
    <glyph glyph-name="G" unicode="G" horiz-adv-x="1595" 
d="M939 778h612v-61q0 -324 -204.5 -537t-526.5 -213q-323 0 -551.5 237.5t-228.5 563.5q0 336 233.5 572.5t567.5 236.5q182 0 349 -79t280 -220l-136 -129q-84 115 -215 183.5t-270 68.5q-260 0 -438 -182.5t-178 -444.5q0 -250 176 -440.5t424 -190.5q186 0 342.5 137.5
t162.5 321.5h-399v176z" />
    <glyph glyph-name="H" unicode="H" horiz-adv-x="1380" 
d="M322 922h735v622h192v-1544h-192v741h-735v-741h-193v1544h193v-622z" />
    <glyph glyph-name="I" unicode="I" horiz-adv-x="473" 
d="M332 1544v-1544h-193v1544h193z" />
    <glyph glyph-name="J" unicode="J" horiz-adv-x="739" 
d="M431 1544h192v-981q0 -268 -73 -407q-99 -189 -344 -189q-127 0 -242 68l96 164q68 -52 154 -52q145 0 192 150q25 78 25 266v981z" />
    <glyph glyph-name="K" unicode="K" horiz-adv-x="1226" 
d="M338 874l655 670h252l-694 -694l706 -850h-260l-582 719l-77 -74v-645h-193v1544h193v-670z" />
    <glyph glyph-name="L" unicode="L" horiz-adv-x="786" 
d="M338 1544v-1368h469v-176h-662v1544h193z" />
    <glyph glyph-name="M" unicode="M" horiz-adv-x="1740" 
d="M870 -33l-463 1053h-4l-180 -1020h-199l315 1610l531 -1217l530 1217l316 -1610h-199l-180 1020h-4z" />
    <glyph glyph-name="N" unicode="N" horiz-adv-x="1605" 
d="M126 0v1618l1159 -1215v1141h193v-1607l-1159 1214v-1151h-193z" />
    <glyph glyph-name="O" unicode="O" horiz-adv-x="1693" 
d="M845 1577q334 0 571.5 -235.5t237.5 -569.5q0 -342 -233.5 -573.5t-575.5 -231.5t-575.5 231.5t-233.5 573.5q0 334 237.5 569.5t571.5 235.5zM845 147q258 0 437 183.5t179 441.5q0 266 -175 445.5t-441 179.5q-264 0 -440 -180.5t-176 -444.5q0 -258 179 -441.5
t437 -183.5z" />
    <glyph glyph-name="P" unicode="P" horiz-adv-x="1011" 
d="M338 647v-647h-193v1544h221q289 0 432 -80q191 -104 191 -366q0 -232 -160 -348q-141 -103 -381 -103h-110zM338 1372v-553h61q410 0 410 283q0 270 -420 270h-51z" />
    <glyph glyph-name="Q" unicode="Q" horiz-adv-x="1693" 
d="M1652 -33h-234l-133 137q-198 -137 -440 -137q-342 0 -575.5 231.5t-233.5 573.5q0 334 237.5 569.5t571.5 235.5t571.5 -235.5t237.5 -569.5q0 -340 -242 -569zM1037 582l244 -242q86 76 133 194.5t47 237.5q0 266 -175 445.5t-441 179.5q-264 0 -440 -180.5
t-176 -444.5q0 -258 179 -441.5t437 -183.5q168 0 307 89l-354 346h239z" />
    <glyph glyph-name="R" unicode="R" horiz-adv-x="1110" 
d="M618 672l488 -672h-234l-455 653h-79v-653h-193v1544h233q283 0 408 -71q96 -56 149.5 -155t53.5 -214q0 -170 -102.5 -291t-268.5 -141zM338 1372v-559h61q410 0 410 283q0 276 -420 276h-51z" />
    <glyph glyph-name="S" unicode="S" horiz-adv-x="1097" 
d="M985 1343l-154 -92q-86 146 -248 146q-98 0 -174 -60q-84 -63 -84 -159q0 -138 215 -222l111 -43q184 -71 274 -168q109 -116 109 -296q0 -209 -141.5 -345.5t-352.5 -136.5q-188 0 -320 122t-157 310l195 41q-2 -127 85 -210t214 -83q122 0 203 88.5t81 213.5
q0 112 -84 188q-57 51 -182 104l-106 45q-336 142 -336 392q0 180 139 295q131 104 315 104q267 0 398 -234z" />
    <glyph glyph-name="T" unicode="T" horiz-adv-x="931" 
d="M561 1368v-1368h-192v1368h-367v176h926v-176h-367z" />
    <glyph glyph-name="U" unicode="U" horiz-adv-x="1368" 
d="M118 1544h193v-911q0 -486 372 -486q373 0 373 486v911h192v-977q0 -264 -149 -428q-154 -172 -416 -172t-415 172q-150 164 -150 428v977z" />
    <glyph glyph-name="V" unicode="V" horiz-adv-x="1308" 
d="M199 1544l461 -1143l458 1143h211l-669 -1626l-672 1626h211z" />
    <glyph glyph-name="W" unicode="W" horiz-adv-x="2101" 
d="M187 1544l432 -1106l436 1139l436 -1139l433 1106h208l-641 -1605l-436 1132l-436 -1132l-641 1605h209z" />
    <glyph glyph-name="X" unicode="X" horiz-adv-x="1173" 
d="M485 809l-426 735h220l315 -563l336 563h219l-444 -735l469 -809h-216l-364 633l-379 -633h-215z" />
    <glyph glyph-name="Y" unicode="Y" horiz-adv-x="1171" 
d="M494 672l-504 872h221l379 -659l379 659h221l-504 -872v-672h-192v672z" />
    <glyph glyph-name="Z" unicode="Z" horiz-adv-x="1128" 
d="M329 176h783v-176h-1096l782 1368h-671v176h985z" />
    <glyph glyph-name="bracketleft" unicode="[" horiz-adv-x="678" 
d="M584 -358q15 0 27 -11t12 -26v-54q0 -15 -12 -26.5t-27 -11.5h-381q-16 0 -27.5 11.5t-11.5 26.5v1844q0 15 11.5 27t27.5 12h381q15 0 27 -12t12 -27v-52q0 -17 -12 -27.5t-27 -10.5h-281v-1663h281z" />
    <glyph glyph-name="backslash" unicode="\" horiz-adv-x="791" 
d="M125 1382q-6 22 4.5 37t32.5 15h65q13 0 23.5 -8t13.5 -19l402 -1356q6 -21 -5.5 -36t-31.5 -15h-68q-11 0 -22.5 8t-14.5 19z" />
    <glyph glyph-name="bracketright" unicode="]" horiz-adv-x="678" 
d="M375 -358v1663h-281q-15 0 -27 10.5t-12 27.5v52q0 15 12 27t27 12h381q16 0 27.5 -12t11.5 -27v-1844q0 -15 -11.5 -26.5t-27.5 -11.5h-381q-15 0 -27 11.5t-12 26.5v54q0 15 12 26t27 11h281z" />
    <glyph glyph-name="asciicircum" unicode="^" horiz-adv-x="1073" 
d="M123 815q-25 0 -35 18.5t2 38.5l412 570q5 8 15 14t20 6h10q9 0 19.5 -6t15.5 -14l401 -570q12 -20 2 -38.5t-35 -18.5h-67q-16 0 -25 7.5t-14 15.5l-305 432l-310 -432q-15 -23 -39 -23h-67v0z" />
    <glyph glyph-name="underscore" unicode="_" horiz-adv-x="928" 
d="M119 -59q0 17 11 28t28 11h612q17 0 28 -11t11 -28v-33q0 -16 -11 -26.5t-28 -10.5h-612q-17 0 -28 10.5t-11 26.5v33v0z" />
    <glyph glyph-name="grave" unicode="`" horiz-adv-x="618" 
d="M156 1282q-13 5 -16 18t3 25l37 74q4 7 11 10t15 3t15 -2t12 -5l308 -172q9 -5 13.5 -16t-1.5 -23l-21 -45q-6 -12 -15.5 -12.5t-31.5 8.5z" />
    <glyph glyph-name="a" unicode="a" horiz-adv-x="1136" 
d="M538 131q146 0 232 102q80 99 80 246q0 148 -82 242q-86 102 -230 102q-139 0 -221 -101t-82 -243q0 -145 78 -241q84 -107 225 -107zM1024 958v-958h-185v150h-4q-122 -183 -325 -183q-213 0 -340 156q-119 143 -119 362q0 207 121 351q129 151 332 151q206 0 331 -188
h4v159h185z" />
    <glyph glyph-name="b" unicode="b" horiz-adv-x="1136" 
d="M587 131q146 0 232 102q79 99 79 246q0 148 -81 242q-86 102 -230 102q-139 0 -221 -101t-82 -243q0 -145 78 -241q84 -107 225 -107zM110 0v1778h184v-979h4q125 188 334 188q203 0 332 -151q119 -144 119 -351q0 -219 -119 -362q-127 -156 -340 -156q-203 0 -326 183
h-4v-150h-184z" />
    <glyph glyph-name="c" unicode="c" horiz-adv-x="901" 
d="M829 924v-238q-112 129 -274 129q-135 0 -227.5 -100.5t-92.5 -235.5q0 -147 92.5 -243.5t239.5 -96.5q150 0 262 127v-235q-119 -64 -264 -64q-215 0 -364.5 145.5t-149.5 358.5q0 223 150.5 369.5t373.5 146.5q146 0 254 -63z" />
    <glyph glyph-name="d" unicode="d" horiz-adv-x="1136" 
d="M538 131q146 0 232 102q80 99 80 246q0 148 -82 242q-86 102 -230 102q-139 0 -221 -101t-82 -243q0 -145 78 -241q84 -107 225 -107zM839 0v150h-4q-122 -183 -325 -183q-213 0 -340 156q-119 143 -119 362q0 207 119 351q129 151 332 151q208 0 333 -188h4v979h185
v-1778h-185z" />
    <glyph glyph-name="e" unicode="e" horiz-adv-x="997" 
d="M966 449h-731q2 -130 82 -224t207 -94q174 0 287 186l155 -88q-67 -123 -185 -192.5t-259 -69.5q-215 0 -346 146q-125 139 -125 358q0 231 117 369q123 147 350 147q219 0 340 -147q108 -138 108 -363v-28zM246 588h536q-16 110 -84.5 174.5t-179.5 64.5
q-107 0 -181.5 -66.5t-90.5 -172.5z" />
    <glyph glyph-name="f" unicode="f" horiz-adv-x="561" 
d="M599 1778v-187q-88 39 -123 39q-86 0 -114 -94q-17 -53 -17 -166v-412h254v-172h-254v-786h-184v786h-84v172h84v467q0 377 309 377q68 0 129 -24z" />
    <glyph glyph-name="g" unicode="g" horiz-adv-x="1132" 
d="M502 188q135 0 215 97q75 92 75 227q0 139 -77 227q-80 95 -213 95q-131 0 -207 -94.5t-76 -227.5t72 -223q80 -101 211 -101zM954 961v-877q0 -254 -88 -381q-104 -147 -348 -147q-188 0 -308 108.5t-122 294.5h172q0 -119 72.5 -185.5t193.5 -66.5q148 0 207 96
q49 76 49 234v170h-4q-82 -207 -282 -207q-201 0 -338 182q-111 133 -111 336q0 195 111 328q120 141 309 141q196 0 311 -178h4v152h172z" />
    <glyph glyph-name="h" unicode="h" horiz-adv-x="1069" 
d="M124 1778h184v-949h4q88 158 289 158q340 0 340 -416v-571h-184v549q0 139 -35 196q-47 78 -176 78q-156 0 -207 -127q-31 -78 -31 -256v-440h-184v1778z" />
    <glyph glyph-name="i" unicode="i" horiz-adv-x="518" 
d="M350 958v-958h-184v958h184zM258 1526q53 0 90 -38t37 -91q0 -54 -37 -89.5t-90 -35.5t-90 35.5t-37 89.5q0 53 37 91t90 38z" />
    <glyph glyph-name="j" unicode="j" horiz-adv-x="518" 
d="M350 958v-1507h-184v1507h184zM258 1526q53 0 90 -38t37 -91q0 -54 -37 -89.5t-90 -35.5t-90 35.5t-37 89.5q0 53 37 91t90 38z" />
    <glyph glyph-name="k" unicode="k" horiz-adv-x="944" 
d="M321 1778v-1180l361 360h243l-409 -397l450 -561h-239l-342 436l-64 -63v-373h-184v1778h184z" />
    <glyph glyph-name="l" unicode="l" horiz-adv-x="452" 
d="M317 1778v-1778h-184v1778h184z" />
    <glyph glyph-name="m" unicode="m" horiz-adv-x="1568" 
d="M302 958v-120h4q95 149 254 149q179 0 277 -170q98 170 295 170q317 0 317 -414v-573h-184v543q0 280 -178 280q-129 0 -178 -121q-33 -81 -33 -231v-471h-185v508q0 135 -24 205q-39 110 -152 110q-213 0 -213 -352v-471h-184v958h184z" />
    <glyph glyph-name="n" unicode="n" horiz-adv-x="1069" 
d="M308 958v-129h4q88 158 289 158q340 0 340 -416v-571h-184v549q0 139 -35 196q-47 78 -176 78q-156 0 -207 -127q-31 -78 -31 -256v-440h-184v958h184z" />
    <glyph glyph-name="o" unicode="o" horiz-adv-x="1103" 
d="M550 987q217 0 364.5 -146.5t147.5 -363.5t-147.5 -363.5t-364.5 -146.5t-364.5 146.5t-147.5 363.5t147.5 363.5t364.5 146.5zM550 811q-137 0 -232.5 -98.5t-95.5 -235.5t96.5 -235.5t231.5 -98.5t231.5 98.5t96.5 235.5t-95.5 235.5t-232.5 98.5z" />
    <glyph glyph-name="p" unicode="p" horiz-adv-x="1136" 
d="M587 131q146 0 232 102q79 99 79 246q0 148 -81 242q-86 102 -230 102q-139 0 -221 -101t-82 -243q0 -145 78 -241q84 -107 225 -107zM294 958v-159h4q125 188 334 188q203 0 332 -151q119 -144 119 -351q0 -219 -119 -362q-127 -156 -340 -156q-203 0 -326 183h-4v-699
h-184v1507h184z" />
    <glyph glyph-name="q" unicode="q" horiz-adv-x="1136" 
d="M538 131q146 0 232 102q80 99 80 246q0 148 -82 242q-86 102 -230 102q-139 0 -221 -101t-82 -243q0 -145 78 -241q84 -107 225 -107zM1024 958v-1507h-185v699h-4q-122 -183 -325 -183q-213 0 -340 156q-119 143 -119 362q0 207 119 351q129 151 332 151q208 0 333 -188
h4v159h185z" />
    <glyph glyph-name="r" unicode="r" horiz-adv-x="716" 
d="M321 958v-155h6q74 184 263 184q77 0 151 -47l-84 -168q-45 39 -112 39q-224 0 -224 -340v-471h-184v958h184z" />
    <glyph glyph-name="s" unicode="s" horiz-adv-x="784" 
d="M659 819l-150 -80q-41 84 -123 84q-38 0 -69 -27.5t-31 -66.5q0 -67 115 -123q194 -94 215 -108q115 -82 115 -213q0 -135 -96.5 -226.5t-233.5 -91.5q-107 0 -201 58.5t-131 156.5l158 72q67 -123 174 -123q59 0 102 38t43 97q0 60 -67 105l-181 96q-96 51 -133 92
q-51 57 -51 150q0 116 83 197t200 81q180 0 262 -168z" />
    <glyph glyph-name="t" unicode="t" horiz-adv-x="489" 
d="M336 786v-786h-185v786h-100v172h100v367h185v-367h180v-172h-180z" />
    <glyph glyph-name="u" unicode="u" horiz-adv-x="1046" 
d="M116 958h184v-530q0 -289 222 -289q221 0 221 289v530h184v-550q0 -207 -98 -320q-105 -121 -307 -121q-203 0 -308 121q-98 113 -98 320v550z" />
    <glyph glyph-name="v" unicode="v" horiz-adv-x="909" 
d="M183 958l274 -598l277 598h207l-484 -991l-481 991h207z" />
    <glyph glyph-name="w" unicode="w" horiz-adv-x="1468" 
d="M179 958l278 -610l283 664l281 -664l278 610h209l-487 -991l-281 641l-283 -641l-487 991h209z" />
    <glyph glyph-name="x" unicode="x" horiz-adv-x="999" 
d="M402 520l-344 438h217l227 -309l248 309h223l-352 -438l412 -520h-215l-316 389l-305 -389h-223z" />
    <glyph glyph-name="y" unicode="y" horiz-adv-x="989" 
d="M414 164l-438 794h215l324 -608l301 608h207l-777 -1507h-209z" />
    <glyph glyph-name="z" unicode="z" horiz-adv-x="1011" 
d="M360 172h623v-172h-981l649 786h-538v172h897z" />
    <glyph glyph-name="braceleft" unicode="{" horiz-adv-x="825" 
d="M236 246q0 34 -15.5 62.5t-37.5 49t-46.5 33t-42.5 15.5q-12 2 -21.5 12t-9.5 22v64q0 12 9.5 20.5t21.5 10.5q18 3 42.5 15.5t46.5 32.5t37.5 48t15.5 63v299q0 93 22.5 163.5t60.5 122t88.5 85t106 54t113 28.5t110.5 8q16 0 28.5 -8t12.5 -27v-39q0 -14 -7 -24.5
t-19 -12.5q-73 -11 -141 -35.5t-120 -67t-83 -103.5t-31 -144v-241q0 -77 -17 -126t-42 -79t-53 -45.5t-50 -24.5v-14q22 -9 50 -24.5t53 -45.5t42 -79t17 -126v-241q0 -83 31 -143.5t83 -102.5t120 -67t141 -35q26 -3 26 -35v-41q0 -16 -12.5 -25.5t-28.5 -9.5
q-53 0 -110.5 8t-113 28t-106 53.5t-88.5 84.5t-60.5 121.5t-22.5 163.5v299z" />
    <glyph glyph-name="bar" unicode="|" horiz-adv-x="414" 
d="M162 1518q0 17 11.5 27.5t27.5 10.5h14q16 0 26.5 -10.5t10.5 -27.5v-1969q0 -15 -12 -25.5t-27 -10.5h-12q-16 0 -27.5 10.5t-11.5 25.5v1969z" />
    <glyph glyph-name="braceright" unicode="}" horiz-adv-x="825" 
d="M449 188q0 77 17 126t41.5 79t52.5 45.5t50 24.5v14q-22 9 -50 24.5t-52.5 45.5t-41.5 79t-17 126v241q0 83 -31.5 144t-83.5 103.5t-119.5 67t-140.5 35.5q-13 2 -20 12.5t-7 24.5v39q0 19 13 27t28 8q53 0 110.5 -8t113.5 -28.5t106.5 -54t88.5 -85t60.5 -122
t22.5 -163.5v-299q0 -35 15 -63t37 -48t46.5 -32.5t42.5 -15.5q13 -2 22 -10.5t9 -20.5v-64q0 -12 -9 -22t-22 -12q-18 -3 -42.5 -15.5t-46.5 -33t-37 -49t-15 -62.5v-299q0 -93 -22.5 -163.5t-60.5 -121.5t-88.5 -84.5t-106.5 -53.5t-113.5 -28t-110.5 -8q-15 0 -28 9.5
t-13 25.5v41q0 32 27 35q73 10 140.5 35t119.5 67t83.5 102.5t31.5 143.5v241v0z" />
    <glyph glyph-name="asciitilde" unicode="~" horiz-adv-x="1155" 
d="M168 467q-11 9 -21.5 17t-21.5 18q-11 9 -12 23.5t8 25.5q33 53 75 94q18 18 39.5 34.5t46.5 30t53 21.5t58 8q35 0 66 -8.5t58.5 -22t51.5 -30t45 -31.5q11 -8 28.5 -19.5t37.5 -22.5t42 -19t42 -8q35 0 63 15.5t49 37.5t36.5 44.5t25.5 37.5q11 15 26 17.5t29 -9.5
l43 -35q11 -9 12.5 -23.5t-8.5 -25.5q-34 -53 -76 -94q-18 -18 -40 -34.5t-47 -30t-53.5 -21.5t-59.5 -8q-34 0 -64 8.5t-56.5 21.5t-49.5 28.5t-43 29.5q-15 10 -32 22.5t-36.5 23.5t-41.5 19t-46 8q-35 0 -62 -15.5t-48 -37.5t-36.5 -44.5t-25.5 -37.5q-11 -15 -26 -17.5
t-29 9.5z" />
    <glyph glyph-name="Adieresis" unicode="&#xc4;" horiz-adv-x="1362" 
d="M49 0q-23 0 -33.5 16.5t-1.5 36.5l623 1379q5 9 13 15.5t22 6.5h20q14 0 22 -6.5t13 -15.5l619 -1379q9 -20 -1.5 -36.5t-33.5 -16.5h-82q-14 0 -23 7.5t-12 15.5l-152 337h-727l-149 -337q-3 -8 -12 -15.5t-23 -7.5h-82zM987 487q-75 169 -149.5 336.5t-149.5 335.5h-16
l-299 -672h614zM895 1614q-21 0 -40 8t-33.5 22.5t-22.5 33.5t-8 40q0 22 8 42t22.5 34t33.5 22.5t40 8.5q22 0 41.5 -8.5t33.5 -22.5t22.5 -34t8.5 -42q0 -21 -8.5 -40t-22.5 -33.5t-33.5 -22.5t-41.5 -8zM463 1614q-21 0 -40.5 8t-33.5 22.5t-22.5 33.5t-8.5 40
q0 22 8.5 42t22.5 34t33.5 22.5t40.5 8.5q22 0 41.5 -8.5t33.5 -22.5t22.5 -34t8.5 -42q0 -21 -8.5 -40t-22.5 -33.5t-33.5 -22.5t-41.5 -8z" />
    <glyph glyph-name="Aring" unicode="&#xc5;" horiz-adv-x="1362" 
d="M49 0q-23 0 -33.5 16.5t-1.5 36.5l623 1379q5 9 13 15.5t22 6.5h20q14 0 22 -6.5t13 -15.5l619 -1379q9 -20 -1.5 -36.5t-33.5 -16.5h-82q-14 0 -23 7.5t-12 15.5l-152 337h-727l-149 -337q-3 -8 -12 -15.5t-23 -7.5h-82zM987 487q-75 169 -149.5 336.5t-149.5 335.5h-16
l-299 -672h614zM680 1552q-47 0 -87.5 17.5t-70.5 47.5t-47.5 71t-17.5 88t17.5 87.5t47.5 70.5t70.5 47.5t87.5 17.5q46 0 86.5 -17.5t71 -47.5t48 -70.5t17.5 -87.5t-17.5 -88t-48 -71t-71 -47.5t-86.5 -17.5zM680 1651q24 0 46 10t38.5 27.5t26.5 40t10 47.5q0 24 -10 46
t-26.5 38.5t-38.5 26t-46 9.5q-25 0 -47.5 -9.5t-40 -26t-27.5 -38.5t-10 -46q0 -25 10 -47.5t27.5 -40t40 -27.5t47.5 -10z" />
    <glyph glyph-name="Ccedilla" unicode="&#xc7;" horiz-adv-x="1446" 
d="M106 715q0 102 26.5 196.5t74.5 176.5t115.5 149.5t149.5 115.5t176.5 74.5t197.5 26.5q78 0 145.5 -13t127.5 -37.5t115 -60t107 -79.5q13 -13 14 -29t-12 -29l-55 -55q-12 -16 -25 -14.5t-28 16.5q-40 34 -86.5 62.5t-97 49t-103 31.5t-104.5 11q-122 0 -226.5 -47.5
t-181 -128.5t-120.5 -188t-44 -226q0 -79 20 -153.5t56.5 -139.5t88 -119.5t115 -93.5t137.5 -60.5t155 -21.5q67 0 121 12.5t100.5 33.5t87.5 49t82 59q15 12 27.5 12t21.5 -6l62 -56q12 -9 10 -26.5t-13 -28.5q-102 -99 -224 -147t-255 -51l-73 -117q9 3 22 5.5t29 2.5
q32 0 64 -9.5t57.5 -29.5t41 -52.5t15.5 -78.5q0 -44 -19 -79.5t-50.5 -61t-73 -39t-86.5 -13.5q-57 0 -99.5 16.5t-68.5 41.5q-10 9 -8.5 19.5t8.5 23.5l16 31q14 29 43 10q15 -16 41 -28.5t61 -12.5q53 0 84 21t31 63q0 47 -30.5 65.5t-77.5 18.5q-28 0 -55.5 -6.5
t-43.5 -14.5q-5 -2 -10.5 0t-9 6t-5 10t0.5 11l96 201q-139 15 -259.5 77t-209 159.5t-139 224t-50.5 270.5z" />
    <glyph glyph-name="Eacute" unicode="&#xc9;" horiz-adv-x="1064" 
d="M145 0v1544h829v-176h-636v-432h618v-176h-618v-584h636v-176h-829zM706 2077l154 -82l-303 -275l-41 72z" />
    <glyph glyph-name="Ntilde" unicode="&#xd1;" horiz-adv-x="1561" 
d="M197 1417q0 16 11.5 26.5t27.5 10.5h30q22 0 33 -16l911 -1135h4v1092q0 15 11 27t28 12h72q16 0 27.5 -12t11.5 -27v-1379q0 -15 -11.5 -25.5t-27.5 -10.5h-16q-22 0 -33 16l-928 1157h-2v-1114q0 -16 -11 -27.5t-28 -11.5h-71q-16 0 -27.5 11.5t-11.5 27.5v1378z
M512 1647q-12 6 -12.5 20t4.5 25q7 14 18 42.5t32 57.5t54 50.5t84 21.5q31 0 55 -11.5t44 -28t36 -36.5t31 -36.5t29.5 -28t30.5 -11.5q21 0 36.5 11.5t26.5 28t18 34.5t11 31q10 32 47 16l33 -16q9 -5 12 -12t2.5 -14.5t-3 -14.5t-3.5 -13q-8 -22 -21.5 -51t-35.5 -54.5
t-53 -43t-73 -17.5t-74.5 24t-58.5 53t-48 53t-44 24q-21 0 -35.5 -10t-25 -25t-17.5 -33t-12 -34t-18 -24t-33 3z" />
    <glyph glyph-name="Odieresis" unicode="&#xd6;" horiz-adv-x="1686" 
d="M106 715q0 102 26 196.5t73.5 176.5t114.5 149.5t149 115.5t176 74.5t197 26.5q102 0 196.5 -26.5t176.5 -74.5t149 -115.5t115 -149.5t74 -176.5t26 -196.5t-26 -196.5t-74 -176t-115 -148.5t-149 -114.5t-176.5 -73.5t-196.5 -26t-196.5 26t-176.5 73.5t-149 114.5
t-114.5 148.5t-73.5 175.5t-26 197zM250 715q0 -122 46.5 -230t127 -188.5t188.5 -127t230 -46.5t230 46.5t189 127t128 188.5t47 230t-47 230.5t-128 189.5t-189 128.5t-230 47.5t-230 -47.5t-188.5 -128.5t-127 -189.5t-46.5 -230.5zM1059 1614q-22 0 -41 8t-33.5 22.5
t-22.5 33.5t-8 40q0 22 8 42t22.5 34t33.5 22.5t41 8.5t41.5 -8.5t33.5 -22.5t22.5 -34t8.5 -42q0 -21 -8.5 -40t-22.5 -33.5t-33.5 -22.5t-41.5 -8zM627 1614q-22 0 -41 8t-33.5 22.5t-22.5 33.5t-8 40q0 22 8 42t22.5 34t33.5 22.5t41 8.5t41.5 -8.5t33.5 -22.5t22.5 -34
t8.5 -42q0 -21 -8.5 -40t-22.5 -33.5t-33.5 -22.5t-41.5 -8z" />
    <glyph glyph-name="Udieresis" unicode="&#xdc;" horiz-adv-x="1450" 
d="M182 1395q0 15 12 27t27 12h78q17 0 28 -12t11 -27v-863q0 -87 26.5 -161.5t76 -129t121 -85.5t161.5 -31q91 0 163 30t122 84t77 128t27 161v867q0 15 11 27t28 12h78q15 0 27 -12t12 -27v-875q0 -117 -39.5 -216t-111.5 -171t-172.5 -112.5t-221.5 -40.5t-220.5 40.5
t-171 112.5t-110.5 171t-39 216v875zM938 1614q-21 0 -40 8t-33.5 22.5t-22.5 33.5t-8 40q0 22 8 42t22.5 34t33.5 22.5t40 8.5q22 0 41.5 -8.5t33.5 -22.5t22.5 -34t8.5 -42q0 -21 -8.5 -40t-22.5 -33.5t-33.5 -22.5t-41.5 -8zM506 1614q-21 0 -40.5 8t-33.5 22.5
t-22.5 33.5t-8.5 40q0 22 8.5 42t22.5 34t33.5 22.5t40.5 8.5q22 0 41.5 -8.5t33.5 -22.5t22.5 -34t8.5 -42q0 -21 -8.5 -40t-22.5 -33.5t-33.5 -22.5t-41.5 -8z" />
    <glyph glyph-name="aacute" unicode="&#xe1;" horiz-adv-x="1136" 
d="M538 131q148 0 232 102q80 97 80 246q0 146 -84 245t-228 99q-139 0 -223 -104q-80 -96 -80 -240q0 -145 78 -241q84 -107 225 -107zM1024 958v-958h-185v150h-4q-122 -183 -325 -183q-213 0 -340 156q-119 143 -119 362q0 209 121 351q127 151 332 151q206 0 331 -188h4
v159h185zM686 1499l151 -82l-301 -270l-41 70z" />
    <glyph glyph-name="agrave" unicode="&#xe0;" horiz-adv-x="1136" 
d="M538 131q148 0 232 102q80 97 80 246q0 146 -84 245t-228 99q-139 0 -223 -104q-80 -96 -80 -240q0 -145 78 -241q84 -107 225 -107zM1024 958v-958h-185v150h-4q-122 -183 -325 -183q-213 0 -340 156q-119 143 -119 362q0 209 121 351q127 151 332 151q206 0 331 -188h4
v159h185zM581 1219l-41 -70l-299 270l150 82z" />
    <glyph glyph-name="acircumflex" unicode="&#xe2;" horiz-adv-x="1136" 
d="M538 131q148 0 232 102q80 97 80 246q0 146 -84 245t-228 99q-139 0 -223 -104q-80 -96 -80 -240q0 -145 78 -241q84 -107 225 -107zM1024 958v-958h-185v150h-4q-122 -183 -325 -183q-213 0 -340 156q-119 143 -119 362q0 209 121 351q127 151 332 151q206 0 331 -188h4
v159h185zM309 1143l227 225l230 -225l-53 -74l-177 150l-176 -150z" />
    <glyph glyph-name="adieresis" unicode="&#xe4;" horiz-adv-x="965" 
d="M86 287q0 67 25 124.5t73 99.5t118.5 65.5t162.5 23.5q38 0 74 -5t65 -11q33 -7 64 -15q1 65 -4.5 114t-22 81.5t-47.5 48.5t-82 16q-48 0 -92 -6.5t-80.5 -15.5t-64.5 -18.5t-44 -14.5q-18 -8 -28 0t-17 25l-20 55q-6 22 3 32.5t26 18.5q18 8 49 18.5t73 20.5t93.5 16.5
t109.5 6.5q91 0 148 -23t89 -71.5t44 -123.5t12 -180v-524q0 -19 -13 -32t-32 -13h-39q-18 0 -26 9.5t-13 25.5l-18 63q-18 -18 -46 -39.5t-64.5 -39.5t-82.5 -30t-100 -12q-62 0 -115.5 21.5t-93 62t-62 97.5t-22.5 129zM236 287q0 -36 12 -67.5t34 -55t53.5 -36.5
t70.5 -13q43 0 83.5 11t74.5 29t60.5 41t41.5 46v192q-23 13 -76.5 25t-124.5 12q-49 0 -91 -11.5t-72.5 -35t-48 -58t-17.5 -79.5zM690 1190q-21 0 -40 8t-33.5 22.5t-22.5 33.5t-8 40q0 22 8 42t22.5 34t33.5 22.5t40 8.5q22 0 42 -8.5t34 -22.5t22.5 -34t8.5 -42
q0 -21 -8.5 -40t-22.5 -33.5t-34 -22.5t-42 -8zM295 1190q-21 0 -40.5 8t-33.5 22.5t-22.5 33.5t-8.5 40q0 22 8.5 42t22.5 34t33.5 22.5t40.5 8.5q22 0 41.5 -8.5t33.5 -22.5t22.5 -34t8.5 -42q0 -21 -8.5 -40t-22.5 -33.5t-33.5 -22.5t-41.5 -8z" />
    <glyph glyph-name="atilde" unicode="&#xe3;" horiz-adv-x="965" 
d="M86 287q0 67 25 124.5t73 99.5t118.5 65.5t162.5 23.5q38 0 74 -5t65 -11q33 -7 64 -15q1 65 -4.5 114t-22 81.5t-47.5 48.5t-82 16q-48 0 -92 -6.5t-80.5 -15.5t-64.5 -18.5t-44 -14.5q-18 -8 -28 0t-17 25l-20 55q-6 22 3 32.5t26 18.5q18 8 49 18.5t73 20.5t93.5 16.5
t109.5 6.5q91 0 148 -23t89 -71.5t44 -123.5t12 -180v-524q0 -19 -13 -32t-32 -13h-39q-18 0 -26 9.5t-13 25.5l-18 63q-18 -18 -46 -39.5t-64.5 -39.5t-82.5 -30t-100 -12q-62 0 -115.5 21.5t-93 62t-62 97.5t-22.5 129zM236 287q0 -36 12 -67.5t34 -55t53.5 -36.5
t70.5 -13q43 0 83.5 11t74.5 29t60.5 41t41.5 46v192q-23 13 -76.5 25t-124.5 12q-49 0 -91 -11.5t-72.5 -35t-48 -58t-17.5 -79.5zM176 1196q-12 6 -12.5 20t4.5 25q7 14 18 42.5t32 57.5t54 50.5t84 21.5q46 0 78 -23.5t57 -52t46 -52t45 -23.5q21 0 37 11.5t27 27.5
t17.5 34t10.5 31q5 15 17.5 19.5t29.5 -3.5l33 -16q9 -5 12 -11.5t2.5 -14t-3 -15t-3.5 -12.5q-8 -23 -21.5 -51.5t-35.5 -54t-52.5 -43t-72.5 -17.5q-28 0 -52 11.5t-44 28.5t-37.5 36.5t-33 36.5t-30.5 28.5t-29 11.5q-21 0 -35.5 -10t-24.5 -25t-17 -33t-13 -34
q-5 -15 -18 -23t-33 3z" />
    <glyph glyph-name="aring" unicode="&#xe5;" horiz-adv-x="965" 
d="M86 287q0 67 25 124.5t73 99.5t118.5 65.5t162.5 23.5q38 0 74 -5t65 -11q33 -7 64 -15q1 65 -4.5 114t-22 81.5t-47.5 48.5t-82 16q-48 0 -92 -6.5t-80.5 -15.5t-64.5 -18.5t-44 -14.5q-18 -8 -28 0t-17 25l-20 55q-6 22 3 32.5t26 18.5q18 8 49 18.5t73 20.5t93.5 16.5
t109.5 6.5q91 0 148 -23t89 -71.5t44 -123.5t12 -180v-524q0 -19 -13 -32t-32 -13h-39q-18 0 -26 9.5t-13 25.5l-18 63q-18 -18 -46 -39.5t-64.5 -39.5t-82.5 -30t-100 -12q-62 0 -115.5 21.5t-93 62t-62 97.5t-22.5 129zM236 287q0 -36 12 -67.5t34 -55t53.5 -36.5
t70.5 -13q43 0 83.5 11t74.5 29t60.5 41t41.5 46v192q-23 13 -76.5 25t-124.5 12q-49 0 -91 -11.5t-72.5 -35t-48 -58t-17.5 -79.5zM469 1051q-47 0 -87.5 17.5t-70.5 47.5t-47.5 70.5t-17.5 87.5t17.5 87.5t47.5 70.5t70.5 47.5t87.5 17.5q46 0 86.5 -17.5t71 -47.5
t48 -70.5t17.5 -87.5t-17.5 -87.5t-48 -70.5t-71 -47.5t-86.5 -17.5zM469 1149q25 0 47 10t38.5 27.5t26 40t9.5 47.5q0 24 -9.5 46t-26 38.5t-38.5 26.5t-47 10t-47.5 -10t-40 -26.5t-27.5 -38.5t-10 -46q0 -25 10 -47.5t27.5 -40t40 -27.5t47.5 -10z" />
    <glyph glyph-name="ccedilla" unicode="&#xe7;" horiz-adv-x="1024" 
d="M98 471q0 105 38 195.5t103.5 157t152.5 105t186 38.5q106 0 192 -40.5t152 -115.5q14 -17 11 -35.5t-20 -32.5l-32 -30q-12 -10 -21.5 -12t-17.5 1.5t-15 10t-14 14.5q-49 56 -107 79t-131 23q-68 0 -126.5 -29t-102.5 -78t-69 -113.5t-25 -135.5t25 -135.5t67.5 -114
t100.5 -79t124 -29.5q54 0 93.5 12.5t69.5 32t52.5 43.5t42.5 47t40 19.5t40 -23.5l13 -13q15 -15 19.5 -30.5t-7.5 -34.5q-26 -38 -61 -71t-78 -58.5t-92.5 -42t-104.5 -19.5l-74 -114q10 3 23 5.5t28 2.5q32 0 64 -9.5t57.5 -29.5t41.5 -52.5t16 -78.5q0 -44 -19 -79.5
t-50.5 -61t-73.5 -39t-87 -13.5q-57 0 -99.5 16.5t-68.5 41.5q-9 9 -7.5 19.5t7.5 23.5l17 31q14 28 43 10q15 -16 41 -28.5t61 -12.5q53 0 84 21t31 63q0 47 -30.5 65.5t-78.5 18.5q-28 0 -55.5 -6.5t-42.5 -14.5q-5 -2 -10.5 0t-9.5 6t-5.5 10t0.5 11l97 201
q-86 13 -158.5 55t-126 106t-83.5 147t-30 179z" />
    <glyph glyph-name="eacute" unicode="&#xe9;" horiz-adv-x="997" 
d="M966 449h-731q2 -132 80 -222q82 -96 209 -96q174 0 287 186l155 -88q-67 -123 -185 -192.5t-259 -69.5q-217 0 -346 146q-125 139 -125 358q0 231 117 369q123 147 350 147q223 0 340 -147q108 -135 108 -363v-28zM246 588h536q-35 239 -264 239q-107 0 -181.5 -66.5
t-90.5 -172.5zM665 1499l152 -82l-301 -270l-41 70z" />
    <glyph glyph-name="egrave" unicode="&#xe8;" horiz-adv-x="997" 
d="M966 449h-731q2 -132 80 -222q82 -96 209 -96q174 0 287 186l155 -88q-67 -123 -185 -192.5t-259 -69.5q-217 0 -346 146q-125 139 -125 358q0 231 117 369q123 147 350 147q223 0 340 -147q108 -135 108 -363v-28zM246 588h536q-35 239 -264 239q-107 0 -181.5 -66.5
t-90.5 -172.5zM561 1219l-41 -70l-299 270l149 82z" />
    <glyph glyph-name="ecircumflex" unicode="&#xea;" horiz-adv-x="997" 
d="M966 449h-731q2 -132 80 -222q82 -96 209 -96q174 0 287 186l155 -88q-67 -123 -185 -192.5t-259 -69.5q-217 0 -346 146q-125 139 -125 358q0 231 117 369q123 147 350 147q223 0 340 -147q108 -135 108 -363v-28zM246 588h536q-35 239 -264 239q-107 0 -181.5 -66.5
t-90.5 -172.5zM289 1145l227 225l229 -225l-53 -74l-176 150l-176 -150z" />
    <glyph glyph-name="edieresis" unicode="&#xeb;" horiz-adv-x="1075" 
d="M100 473q0 100 31.5 189.5t90.5 157t144 107.5t193 40q93 0 171.5 -32.5t135.5 -90t89 -136t32 -171.5q0 -13 -1 -29t-3 -29q-2 -18 -14.5 -29.5t-28.5 -11.5h-688q1 -59 25.5 -117t66 -103.5t97 -74t120.5 -28.5q47 0 85.5 7.5t69.5 18.5t56 25t45 27q12 8 21.5 13.5
t17.5 5.5t16 -6t17 -20l24 -34q7 -11 11.5 -19t4.5 -15t-5.5 -14.5t-18.5 -17.5q-21 -17 -55 -36t-78 -35.5t-98 -27t-115 -10.5q-108 0 -193 39.5t-144 107t-90.5 158t-31.5 191.5zM836 559q-2 52 -22.5 101t-57 86.5t-86.5 60t-111 22.5q-60 0 -112.5 -21.5t-93 -58
t-66.5 -86t-33 -104.5h582zM758 1190q-22 0 -41 8t-33.5 22.5t-22.5 33.5t-8 40q0 22 8 42t22.5 34t33.5 22.5t41 8.5t41.5 -8.5t33.5 -22.5t22.5 -34t8.5 -42q0 -21 -8.5 -40t-22.5 -33.5t-33.5 -22.5t-41.5 -8zM362 1190q-21 0 -40 8t-33.5 22.5t-22.5 33.5t-8 40
q0 22 8 42t22.5 34t33.5 22.5t40 8.5q22 0 42 -8.5t34 -22.5t22.5 -34t8.5 -42q0 -21 -8.5 -40t-22.5 -33.5t-34 -22.5t-42 -8z" />
    <glyph glyph-name="iacute" unicode="&#xed;" horiz-adv-x="518" 
d="M349 958v-958h-184v958h184zM403 1470l151 -81l-301 -271l-41 70z" />
    <glyph glyph-name="igrave" unicode="&#xec;" horiz-adv-x="518" 
d="M355 958v-958h-184v958h184zM302 1190l-41 -70l-299 271l150 82z" />
    <glyph glyph-name="icircumflex" unicode="&#xee;" horiz-adv-x="471" 
d="M160 901q0 17 13 31t32 14h61q17 0 31 -14t14 -31v-856q0 -19 -14 -32t-31 -13h-61q-19 0 -32 13t-13 32v856zM-43 1174q-8 11 -2.5 21.5t14.5 16.5l246 193q11 8 27 8q9 0 14.5 -1.5t11.5 -6.5l246 -193q9 -6 14.5 -16.5t-2.5 -21.5q-7 -9 -13.5 -21.5t-15 -21.5
t-20 -11.5t-26.5 8.5l-209 144l-209 -139q-19 -13 -29 -10t-18 14z" />
    <glyph glyph-name="idieresis" unicode="&#xef;" horiz-adv-x="471" 
d="M160 901q0 17 13 31t32 14h61q17 0 31 -14t14 -31v-856q0 -19 -14 -32t-31 -13h-61q-19 0 -32 13t-13 32v856zM434 1190q-21 0 -40 8t-33.5 22.5t-22.5 33.5t-8 40q0 22 8 42t22.5 34t33.5 22.5t40 8.5q22 0 42 -8.5t34 -22.5t22.5 -34t8.5 -42q0 -21 -8.5 -40
t-22.5 -33.5t-34 -22.5t-42 -8zM39 1190q-21 0 -40.5 8t-33.5 22.5t-22.5 33.5t-8.5 40q0 22 8.5 42t22.5 34t33.5 22.5t40.5 8.5q22 0 41.5 -8.5t33.5 -22.5t22.5 -34t8.5 -42q0 -21 -8.5 -40t-22.5 -33.5t-33.5 -22.5t-41.5 -8z" />
    <glyph glyph-name="ntilde" unicode="&#xf1;" horiz-adv-x="1104" 
d="M160 901q0 17 13 31t32 14h33q30 0 36 -28l21 -72q37 34 85 60q42 23 100 42t132 19q103 0 169.5 -32t104.5 -88t53 -133.5t15 -168.5v-500q0 -19 -14 -32t-31 -13h-61q-19 0 -32 13t-13 32v520q0 136 -48 200t-153 64q-67 0 -120.5 -20.5t-91.5 -45.5q-45 -29 -79 -65
v-653q0 -19 -14 -32t-31 -13h-61q-19 0 -32 13t-13 32v856zM268 1196q-12 6 -12.5 20t4.5 25q7 14 18.5 42.5t32.5 57.5t54 50.5t84 21.5q46 0 77.5 -23.5t56.5 -52t46 -52t45 -23.5q21 0 37 11.5t27 27.5t17.5 34t10.5 31q5 15 17.5 19.5t29.5 -3.5l33 -16q9 -5 12 -11.5
t2.5 -14t-3 -15t-3.5 -12.5q-8 -23 -21.5 -51.5t-35 -54t-52.5 -43t-73 -17.5q-28 0 -52 11.5t-44 28.5t-37.5 36.5t-33 36.5t-30.5 28.5t-29 11.5q-21 0 -35.5 -10t-24.5 -25t-17 -33t-13 -34q-5 -15 -18 -23t-33 3z" />
    <glyph glyph-name="oacute" unicode="&#xf3;" horiz-adv-x="1103" 
d="M550 987q219 0 365.5 -145.5t146.5 -364.5t-146.5 -364.5t-365.5 -145.5t-365.5 145.5t-146.5 364.5t146.5 364.5t365.5 145.5zM550 811q-137 0 -232.5 -97.5t-95.5 -236.5q0 -137 95.5 -235.5t232.5 -98.5t232.5 98.5t95.5 235.5q0 139 -95.5 236.5t-232.5 97.5z
M697 1499l152 -82l-301 -270l-41 70z" />
    <glyph glyph-name="ograve" unicode="&#xf2;" horiz-adv-x="1103" 
d="M550 987q219 0 365.5 -145.5t146.5 -364.5t-146.5 -364.5t-365.5 -145.5t-365.5 145.5t-146.5 364.5t146.5 364.5t365.5 145.5zM550 811q-137 0 -232.5 -97.5t-95.5 -236.5q0 -137 95.5 -235.5t232.5 -98.5t232.5 98.5t95.5 235.5q0 139 -95.5 236.5t-232.5 97.5z
M593 1219l-41 -70l-299 270l150 82z" />
    <glyph glyph-name="ocircumflex" unicode="&#xf4;" horiz-adv-x="1103" 
d="M550 987q219 0 365.5 -145.5t146.5 -364.5t-146.5 -364.5t-365.5 -145.5t-365.5 145.5t-146.5 364.5t146.5 364.5t365.5 145.5zM550 811q-137 0 -232.5 -97.5t-95.5 -236.5q0 -137 95.5 -235.5t232.5 -98.5t232.5 98.5t95.5 235.5q0 139 -95.5 236.5t-232.5 97.5z
M323 1145l227 225l229 -225l-53 -74l-176 150l-176 -150z" />
    <glyph glyph-name="odieresis" unicode="&#xf6;" horiz-adv-x="1147" 
d="M98 475q0 100 37.5 189t102 156.5t151 107t184.5 39.5q99 0 185.5 -39.5t151 -107t102 -156.5t37.5 -189q0 -101 -37.5 -191.5t-102 -158.5t-151 -108t-185.5 -40q-98 0 -184.5 40t-151 108t-102 158.5t-37.5 191.5zM248 475q0 -74 24.5 -139t68 -114.5t103 -78
t129.5 -28.5t129.5 28.5t102.5 78t67.5 114.5t24.5 139q0 72 -24.5 136.5t-67.5 113t-102.5 76.5t-129.5 28t-129.5 -28t-103 -76.5t-68 -113t-24.5 -136.5zM766 1190q-21 0 -40 8t-33.5 22.5t-22.5 33.5t-8 40q0 22 8 42t22.5 34t33.5 22.5t40 8.5q22 0 41.5 -8.5
t33.5 -22.5t22.5 -34t8.5 -42q0 -21 -8.5 -40t-22.5 -33.5t-33.5 -22.5t-41.5 -8zM371 1190q-22 0 -41 8t-33.5 22.5t-22.5 33.5t-8 40q0 22 8 42t22.5 34t33.5 22.5t41 8.5t41.5 -8.5t33.5 -22.5t22.5 -34t8.5 -42q0 -21 -8.5 -40t-22.5 -33.5t-33.5 -22.5t-41.5 -8z" />
    <glyph glyph-name="otilde" unicode="&#xf5;" horiz-adv-x="1147" 
d="M98 475q0 100 37.5 189t102 156.5t151 107t184.5 39.5q99 0 185.5 -39.5t151 -107t102 -156.5t37.5 -189q0 -101 -37.5 -191.5t-102 -158.5t-151 -108t-185.5 -40q-98 0 -184.5 40t-151 108t-102 158.5t-37.5 191.5zM248 475q0 -74 24.5 -139t68 -114.5t103 -78
t129.5 -28.5t129.5 28.5t102.5 78t67.5 114.5t24.5 139q0 72 -24.5 136.5t-67.5 113t-102.5 76.5t-129.5 28t-129.5 -28t-103 -76.5t-68 -113t-24.5 -136.5zM279 1196q-13 6 -13.5 20t4.5 25q7 14 18.5 42.5t32.5 57.5t54 50.5t84 21.5q46 0 78 -23.5t57 -52t45.5 -52
t44.5 -23.5q21 0 37 11.5t27 27.5t17.5 34t10.5 31q5 15 17.5 19.5t29.5 -3.5l33 -16q9 -5 12 -11.5t2.5 -14t-3 -15t-3.5 -12.5q-8 -23 -21 -51.5t-35 -54t-53 -43t-73 -17.5q-28 0 -52 11.5t-44 28.5t-37.5 36.5t-33 36.5t-30 28.5t-28.5 11.5q-21 0 -35.5 -10t-25 -25
t-17.5 -33t-12 -34q-5 -15 -18.5 -23t-33.5 3z" />
    <glyph glyph-name="uacute" unicode="&#xfa;" horiz-adv-x="1046" 
d="M116 958h184v-530q0 -289 222 -289q221 0 221 289v530h184v-550q0 -207 -98 -320q-105 -121 -307 -121q-203 0 -308 121q-98 113 -98 320v550zM661 1423l151 -82l-301 -270l-41 70z" />
    <glyph glyph-name="ugrave" unicode="&#xf9;" horiz-adv-x="1046" 
d="M116 958h184v-530q0 -289 222 -289q221 0 221 289v530h184v-550q0 -207 -98 -320q-105 -121 -307 -121q-203 0 -308 121q-98 113 -98 320v550zM556 1141l-41 -70l-299 270l150 82z" />
    <glyph glyph-name="ucircumflex" unicode="&#xfb;" horiz-adv-x="1077" 
d="M150 901q0 17 12.5 31t32.5 14h61q19 0 32 -14t13 -31v-512q0 -142 47.5 -208t151.5 -66q53 0 95.5 14.5t75.5 35.5t57 45t40 42v649q0 17 12 31t31 14h63q17 0 30.5 -14t13.5 -31v-856q0 -19 -13.5 -32t-30.5 -13h-32q-20 0 -29 11t-14 30l-19 59q-13 -14 -36.5 -35
t-59.5 -40.5t-84.5 -33.5t-112.5 -14q-102 0 -167.5 29.5t-103 83.5t-52 130.5t-14.5 170.5v510zM260 1174q-8 11 -2.5 21.5t14.5 16.5l246 193q6 5 13.5 6.5t13.5 1.5q9 0 14.5 -1.5t11.5 -6.5l246 -193q9 -6 14.5 -16.5t-2.5 -21.5q-7 -9 -13.5 -21.5t-15 -21.5t-20 -11.5
t-26.5 8.5l-209 144l-209 -139q-19 -13 -29 -10t-18 14z" />
    <glyph glyph-name="udieresis" unicode="&#xfc;" horiz-adv-x="1077" 
d="M150 901q0 17 12.5 31t32.5 14h61q19 0 32 -14t13 -31v-512q0 -142 47.5 -208t151.5 -66q53 0 95.5 14.5t75.5 35.5t57 45t40 42v649q0 17 12 31t31 14h63q17 0 30.5 -14t13.5 -31v-856q0 -19 -13.5 -32t-30.5 -13h-32q-20 0 -29 11t-14 30l-19 59q-13 -14 -36.5 -35
t-59.5 -40.5t-84.5 -33.5t-112.5 -14q-102 0 -167.5 29.5t-103 83.5t-52 130.5t-14.5 170.5v510zM739 1190q-21 0 -40 8t-33.5 22.5t-22.5 33.5t-8 40q0 22 8 42t22.5 34t33.5 22.5t40 8.5q22 0 42 -8.5t34 -22.5t22.5 -34t8.5 -42q0 -21 -8.5 -40t-22.5 -33.5t-34 -22.5
t-42 -8zM344 1190q-21 0 -40 8t-33.5 22.5t-22.5 33.5t-8 40q0 22 8 42t22.5 34t33.5 22.5t40 8.5q22 0 41.5 -8.5t34 -22.5t23 -34t8.5 -42q0 -21 -8.5 -40t-23 -33.5t-34 -22.5t-41.5 -8z" />
    <glyph glyph-name="dagger" unicode="&#x2020;" horiz-adv-x="1221" 
d="M119 684q-16 0 -27.5 11.5t-11.5 27.5v57q0 16 11.5 27.5t27.5 11.5h399v576q0 15 12 27t27 12h102q16 0 27.5 -12t11.5 -27v-576h406q15 0 26 -11.5t11 -27.5v-57q0 -16 -11 -27.5t-26 -11.5h-410l-35 -1139q0 -12 -12 -22t-26 -10h-25q-14 0 -26.5 10t-12.5 22
l-35 1139h-403v0z" />
    <glyph glyph-name="degree" unicode="&#xb0;" horiz-adv-x="745" 
d="M373 901q-58 0 -108.5 21.5t-88 59t-59 88t-21.5 108.5q0 57 21.5 107.5t59 88t88 59t108.5 21.5q57 0 107 -21.5t87.5 -59t59.5 -88t22 -107.5q0 -58 -22 -108.5t-59.5 -88t-87.5 -59t-107 -21.5zM373 1010q31 0 61 14t52.5 37t36.5 53.5t14 63.5q0 31 -14 60.5
t-36.5 52.5t-52.5 36.5t-61 13.5q-33 0 -63.5 -13.5t-53.5 -36.5t-37 -52.5t-14 -60.5q0 -33 14 -63.5t37 -53.5t53.5 -37t63.5 -14z" />
    <glyph glyph-name="cent" unicode="&#xa2;" horiz-adv-x="1100" 
d="M137 471q0 70 17.5 133.5t49.5 119t76 100.5t97 76.5t113.5 49t125.5 17.5h16.5t16.5 -2l27 98q5 17 21.5 27t33.5 2l17 -5q17 -3 26.5 -18t3.5 -35l-24 -88q120 -36 207 -135q14 -17 11 -35.5t-20 -32.5l-24 -22q-15 -12 -24.5 -15.5t-17 -0.5t-13.5 9.5t-13 14.5
q-56 59 -141 84l-189 -688q19 -6 38.5 -8t39.5 -2q54 0 93.5 12.5t69.5 32t52.5 43.5t42.5 47t40 19.5t40 -23.5l12 -13q16 -15 20.5 -30.5t-7.5 -34.5q-27 -39 -64 -74t-82.5 -61t-98.5 -41t-112 -15q-31 0 -61 4.5t-57 10.5l-64 -236q-5 -17 -20.5 -27t-32.5 -3l-19 6
q-17 6 -25 19t-3 32l65 246q-58 29 -106 73.5t-82 101t-53 124.5t-19 143zM291 473q0 -45 10.5 -88.5t29 -82.5t45.5 -72t60 -58l176 657q-68 -1 -126.5 -30t-101.5 -78t-68 -113t-25 -135z" />
    <glyph glyph-name="sterling" unicode="&#xa3;" horiz-adv-x="1229" 
d="M264 76q53 99 73.5 191.5t20.5 178.5q0 42 -4 80.5t-10 75.5h-90q-16 0 -26.5 12t-10.5 27v14q0 16 10.5 27.5t26.5 11.5h65q-4 19 -14.5 53t-22 78.5t-20 98t-8.5 110.5q0 97 33 174.5t91 132t136 84t168 29.5q66 0 120.5 -16.5t97.5 -39.5t74 -47.5t50 -41.5
q12 -10 13.5 -25.5t-9.5 -28.5l-43 -53q-17 -21 -32 -19t-27 17q-35 33 -75 59q-35 23 -80.5 41.5t-96.5 18.5q-59 0 -110 -20.5t-88 -58.5t-58 -91t-21 -117q0 -59 10 -114t22 -100t23 -77t13 -47h336q17 0 28 -11.5t11 -27.5v-16q0 -16 -11 -26.5t-28 -10.5h-314
q5 -28 9 -65t4 -80q0 -40 -3.5 -83.5t-10.5 -86t-18 -82.5t-26 -74h512q16 0 26.5 -11t10.5 -28v-53q0 -16 -10.5 -27.5t-26.5 -11.5h-651q-15 0 -27 11.5t-12 27.5v37z" />
    <glyph glyph-name="section" unicode="&#xa7;" horiz-adv-x="1163" 
d="M188 -225q13 15 29 19t33 -13q4 -5 33.5 -29.5t76.5 -52t107.5 -50t128.5 -22.5q54 0 104 12t87.5 37t60 63.5t22.5 90.5q0 48 -23 90.5t-68 82t-112 76.5t-155 75q-82 34 -148.5 74.5t-113.5 89.5t-72.5 107t-25.5 128q0 66 25 114.5t56 81.5q36 39 82 66q-46 32 -82 76
q-31 38 -56 92.5t-25 126.5q0 52 22.5 112.5t73.5 112t134.5 85.5t205.5 34q75 0 138.5 -16t111.5 -36q55 -23 100 -52q4 -3 10 -8.5t10 -14t3.5 -20t-9.5 -25.5l-30 -47q-13 -17 -28 -21.5t-40 9.5l-30 18t-62.5 32t-83 30.5t-92.5 13.5q-83 0 -137.5 -20t-87 -50.5
t-45.5 -66.5t-13 -68q0 -86 74 -151t203 -117q103 -43 187 -84.5t143.5 -89.5t91.5 -106t32 -134q0 -32 -7.5 -61.5t-20 -55.5t-28 -48.5t-31.5 -40.5q-39 -43 -87 -77q48 -34 87 -81q16 -20 31.5 -44.5t28 -53.5t20 -62t7.5 -70q0 -80 -33.5 -144t-93 -109t-140.5 -69
t-175 -24q-91 0 -166 22t-131 50.5t-90.5 55.5t-44.5 36q-6 5 -13 11.5t-10.5 15t-2 19t12.5 24.5zM303 559q0 -64 31.5 -106.5t88.5 -78.5t137 -71.5t177 -85.5q37 19 66 48q25 25 46 62.5t21 90.5q0 46 -23 83t-68 70.5t-112 66t-155 69.5q-22 9 -44.5 19t-41.5 19
q-35 -16 -62 -42q-23 -23 -42 -58t-19 -86z" />
    <glyph glyph-name="bullet" unicode="&#x2022;" horiz-adv-x="762" 
d="M377 305q-44 0 -83 17t-68.5 46.5t-46.5 68.5t-17 83q0 46 17 86.5t46.5 71t68.5 48t83 17.5q46 0 86.5 -17.5t71 -48t48 -71t17.5 -86.5q0 -44 -17.5 -83t-48 -68.5t-71 -46.5t-86.5 -17z" />
    <glyph glyph-name="paragraph" unicode="&#xb6;" horiz-adv-x="1513" 
d="M514 578q-87 0 -164 33t-135.5 91t-92.5 136.5t-34 169.5q0 87 30.5 164.5t84 135.5t126 92t156.5 34h906q15 0 27 -12t12 -27v-41q0 -17 -12 -28t-27 -11h-228v-1764q0 -15 -11 -26.5t-28 -11.5h-43q-15 0 -27 11.5t-12 26.5v1764h-319v-1764q0 -15 -11.5 -26.5
t-27.5 -11.5h-41q-15 0 -27 11.5t-12 26.5v1027h-90v0z" />
    <glyph glyph-name="germandbls" unicode="&#xdf;" horiz-adv-x="1186" 
d="M160 864q0 139 25.5 248.5t79 185.5t136.5 116t197 40q79 0 146.5 -23.5t117 -67.5t77.5 -107t28 -142q0 -78 -22.5 -137t-49.5 -104t-49.5 -79.5t-22.5 -62.5q0 -18 20 -37.5t50 -44.5t64.5 -56.5t64.5 -73.5t50 -96t20 -124q0 -78 -26.5 -138.5t-72 -101t-107.5 -61.5
t-132 -21q-78 0 -129 10t-74 21q-16 8 -28.5 18t-6.5 33l19 68q6 22 17.5 29t31.5 -2q29 -14 69.5 -26.5t100.5 -12.5q42 0 76 14t58 38.5t37 58.5t13 75q0 50 -21.5 88.5t-53 71.5t-69 62t-69 59.5t-53 65t-21.5 77.5q0 28 12 56.5t30.5 58t39.5 60t39.5 63.5t30.5 68.5
t12 74.5q0 46 -16.5 85t-46 67t-69.5 43.5t-87 15.5q-78 0 -132 -30t-88 -87.5t-49.5 -142.5t-15.5 -195v-819q0 -17 -13 -30t-30 -13h-65q-17 0 -30 13t-13 30v821z" />
    <glyph glyph-name="registered" unicode="&#xae;" horiz-adv-x="1731" 
d="M129 717q0 101 26.5 195t74 176t115 149.5t149 115.5t175.5 74.5t195 26.5t195.5 -26.5t176.5 -74.5t149.5 -115.5t115.5 -149.5t74.5 -176t26.5 -195q0 -102 -26.5 -195.5t-74.5 -175.5t-115.5 -149t-149.5 -115t-176.5 -74t-195.5 -26t-195 26.5t-175.5 74t-149 114.5
t-115 149t-74 175.5t-26.5 195.5zM252 717q0 -127 48 -238.5t131 -195t194.5 -131.5t238.5 -48q85 0 163.5 22t146.5 62t124 96t95.5 124t61.5 146t22 163q0 127 -48 239t-131 194.5t-195 130.5t-239 48q-84 0 -162.5 -21.5t-146.5 -61.5t-124 -95.5t-95.5 -123.5
t-61.5 -146.5t-22 -163.5zM608 1055q0 15 11 27t28 12h291q48 0 93 -14.5t80.5 -43t57 -71.5t21.5 -101q0 -57 -18 -97t-43.5 -66.5t-54.5 -40.5t-50 -19q31 -60 61.5 -121t61.5 -121q10 -18 -1.5 -36.5t-33.5 -18.5h-70q-12 0 -21.5 9.5t-14.5 19.5l-115 256h-152v-246
q0 -16 -11 -27.5t-28 -11.5h-53q-17 0 -28 11.5t-11 27.5v672zM938 748q28 0 51 9.5t39 25t24.5 36.5t8.5 45q0 53 -33 85t-90 32h-199v-233h199z" />
    <glyph glyph-name="copyright" unicode="&#xa9;" horiz-adv-x="1731" 
d="M129 717q0 101 26.5 195t74 176t115 149.5t149 115.5t175.5 74.5t195 26.5t195.5 -26.5t176.5 -74.5t149.5 -115.5t115.5 -149.5t74.5 -176t26.5 -195q0 -102 -26.5 -195.5t-74.5 -175.5t-115.5 -149t-149.5 -115t-176.5 -74t-195.5 -26t-195 26.5t-175.5 74t-149 114.5
t-115 149t-74 175.5t-26.5 195.5zM252 717q0 -127 48 -238.5t131 -195t194.5 -131.5t238.5 -48q85 0 163.5 22t146.5 62t124 96t95.5 124t61.5 146t22 163q0 127 -48 239t-131 194.5t-195 130.5t-239 48q-84 0 -162.5 -21.5t-146.5 -61.5t-124 -95.5t-95.5 -123.5
t-61.5 -146.5t-22 -163.5zM500 713q0 81 30 151t82 122t122 82t149 30q62 0 123 -19t112 -59q14 -12 15.5 -28.5t-11.5 -30.5l-28 -37q-13 -17 -28 -13.5t-28 11.5q-72 47 -151 47q-53 0 -98 -20t-77.5 -54.5t-50.5 -79.5t-18 -96q0 -53 18 -98.5t50.5 -79.5t77.5 -53
t98 -19q38 0 75.5 11.5t69.5 33.5q17 11 32 12t28 -14l32 -39q11 -12 11 -28.5t-13 -28.5q-54 -47 -113.5 -66.5t-125.5 -19.5q-79 0 -149 30t-122 82t-82 122t-30 149z" />
    <glyph glyph-name="trademark" unicode="&#x2122;" horiz-adv-x="1552" 
d="M719 815q-20 0 -31 14.5t-8 32.5l106 551q4 13 14.5 22t24.5 9h9q9 0 20 -7.5t14 -15.5l166 -434l168 434q3 8 14.5 15.5t20.5 7.5h8q13 0 24.5 -9t14.5 -22l109 -553q3 -18 -9 -31.5t-30 -13.5h-25q-14 0 -25 10.5t-14 24.5l-69 338l-148 -361q-3 -8 -13 -13t-20 -5h-12
q-8 0 -20 5.5t-15 14.5l-143 359l-72 -340q-3 -13 -14.5 -23t-24.5 -10h-20zM365 815q-17 0 -28 12t-11 27v479h-144q-15 0 -27 11t-12 28v23q0 15 12 27t27 12h391q17 0 28 -12t11 -27v-23q0 -17 -11 -28t-28 -11h-143v-479q0 -15 -11.5 -27t-27.5 -12h-26z" />
    <glyph glyph-name="acute" unicode="&#xb4;" horiz-adv-x="618" 
d="M150 1194q-7 12 -2 23t14 16l307 172q4 3 11.5 5t15.5 2t15 -3t11 -10l37 -74q6 -12 3 -25t-15 -18l-330 -137q-22 -9 -31.5 -8.5t-15.5 12.5z" />
    <glyph glyph-name="dieresis" unicode="&#xa8;" horiz-adv-x="848" 
d="M655 1190q-21 0 -40 8t-33.5 22.5t-22.5 33.5t-8 40q0 22 8 42t22.5 34t33.5 22.5t40 8.5q22 0 42 -8.5t34 -22.5t22.5 -34t8.5 -42q0 -21 -8.5 -40t-22.5 -33.5t-34 -22.5t-42 -8zM260 1190q-21 0 -40 8t-33.5 22.5t-22.5 33.5t-8 40q0 22 8 42t22.5 34t33.5 22.5
t40 8.5q22 0 41.5 -8.5t34 -22.5t23 -34t8.5 -42q0 -21 -8.5 -40t-23 -33.5t-34 -22.5t-41.5 -8z" />
    <glyph glyph-name="notequal" unicode="&#x2260;" horiz-adv-x="1229" 
d="M416 117q-16 6 -22.5 20.5t1.5 28.5l56 121h-144q-17 0 -28 11.5t-11 27.5v63q0 16 11 27.5t28 11.5h209l137 291h-346q-17 0 -28 11.5t-11 27.5v61q0 16 11 27.5t28 11.5h410l74 156q6 15 21.5 20.5t29.5 -2.5l12 -6q15 -6 21.5 -20.5t-3.5 -28.5l-55 -119h103
q17 0 27.5 -11.5t10.5 -27.5v-61q0 -16 -10.5 -27.5t-27.5 -11.5h-168l-136 -291h304q17 0 27.5 -11.5t10.5 -27.5v-63q0 -16 -10.5 -27.5t-27.5 -11.5h-369l-74 -158q-5 -15 -20.5 -20t-30.5 2l-10 6v0z" />
    <glyph glyph-name="AE" unicode="&#xc6;" horiz-adv-x="1821" 
d="M16 0q-23 0 -30 16.5t6 36.5l821 1317q10 15 19 27t19.5 20.5t24 12.5t33.5 4h774q17 0 28 -12t11 -27v-60q0 -15 -11 -27t-28 -12h-700v-499h600q16 0 27.5 -12t11.5 -27v-60q0 -17 -11.5 -28t-27.5 -11h-600v-522h700q17 0 28 -11.5t11 -27.5v-59q0 -16 -11 -27.5
t-28 -11.5h-806q-17 0 -28 11.5t-11 27.5v321h-486l-213 -337q-6 -8 -17 -15.5t-22 -7.5h-84zM838 487v672l-412 -672h412z" />
    <glyph glyph-name="Oslash" unicode="&#xd8;" horiz-adv-x="1686" 
d="M168 45q-11 11 -12 26.5t10 26.5l125 125q-87 99 -136 223.5t-49 268.5q0 102 26 196.5t73.5 176.5t114.5 149.5t149 115.5t176 74.5t197 26.5q142 0 267 -50t224 -136l129 129q11 11 27 11t27 -11l10 -11q11 -11 11 -26.5t-11 -26.5l-129 -129q85 -99 133.5 -224
t48.5 -265q0 -102 -26 -196.5t-74 -176t-115 -148.5t-149 -114.5t-176.5 -73.5t-196.5 -26q-143 0 -267 47.5t-221 132.5l-125 -125q-11 -11 -26.5 -10t-26.5 12zM1231 1165q-79 68 -178.5 107t-210.5 39q-122 0 -230 -47.5t-188.5 -128.5t-127 -189.5t-46.5 -230.5
q0 -112 38.5 -210.5t106.5 -176.5zM459 264q77 -66 175 -103.5t208 -37.5q122 0 230 46.5t189 127t128 188.5t47 230q0 109 -38 208t-106 177z" />
    <glyph glyph-name="infinity" unicode="&#x221e;" horiz-adv-x="1331" 
d="M430 322q-59 0 -111 22.5t-90.5 61.5t-61 90.5t-22.5 109.5q0 59 22.5 111t61 90.5t90.5 61t111 22.5q36 0 70 -10t64 -28t55.5 -43t44.5 -54q18 29 43.5 54t56 43t65 28t72.5 10q58 0 110 -22.5t91 -61t61.5 -90.5t22.5 -111q0 -58 -22.5 -109.5t-61.5 -90.5t-91 -61.5
t-110 -22.5q-38 0 -72.5 10.5t-65 28.5t-56 42.5t-43.5 53.5q-19 -29 -44.5 -53.5t-55.5 -42.5t-64 -28.5t-70 -10.5zM727 606q0 -35 13 -66t36 -54t54 -36.5t67 -13.5q34 0 65 13.5t54.5 36.5t37 54t13.5 66t-13.5 66t-37 54t-54.5 36.5t-65 13.5q-36 0 -67 -13.5
t-54 -36.5t-36 -54t-13 -66zM432 436q34 0 65 13.5t54.5 36.5t37 54t13.5 66t-13.5 66t-37 54t-54.5 36.5t-65 13.5q-35 0 -66 -13.5t-54 -36.5t-36.5 -54t-13.5 -66t13.5 -66t36.5 -54t54 -36.5t66 -13.5z" />
    <glyph glyph-name="plusminus" unicode="&#xb1;" horiz-adv-x="1229" 
d="M547 786h-322q-15 0 -27 12t-12 27v58q0 15 12 27t27 12h322v303q0 15 11.5 26t27.5 11h57q16 0 27.5 -11t11.5 -26v-303h324q15 0 25.5 -12t10.5 -27v-58q0 -15 -10.5 -27t-25.5 -12h-324v-239q0 -16 -11.5 -26.5t-27.5 -10.5h-57q-16 0 -27.5 10.5t-11.5 26.5v239z
M184 221q0 16 12 27.5t27 11.5h781q15 0 25.5 -11.5t10.5 -27.5v-57q0 -16 -10.5 -27.5t-25.5 -11.5h-781q-15 0 -27 11.5t-12 27.5v57z" />
    <glyph glyph-name="lessequal" unicode="&#x2264;" horiz-adv-x="1229" 
d="M199 782q-11 8 -16 15.5t-5 19.5v10q0 19 21 33l786 397q16 8 26.5 2t10.5 -26v-84q0 -8 -3.5 -16.5t-12.5 -14.5l-621 -295l621 -288q9 -7 12.5 -15t3.5 -16v-84q0 -20 -11.5 -26.5t-25.5 1.5zM211 125q-16 0 -27.5 11.5t-11.5 27.5v57q0 16 11.5 27.5t27.5 11.5h780
q16 0 26.5 -11.5t10.5 -27.5v-57q0 -16 -10.5 -27.5t-26.5 -11.5h-780z" />
    <glyph glyph-name="greaterequal" unicode="&#x2265;" horiz-adv-x="1229" 
d="M242 395q-14 -8 -25.5 -1.5t-11.5 26.5v84q0 8 3.5 16t12.5 15l621 288l-621 295q-9 6 -12.5 14.5t-3.5 16.5v84q0 20 10.5 26t26.5 -2l786 -397q21 -15 21 -33v-10q0 -12 -5 -19.5t-16 -15.5zM236 125q-16 0 -26.5 11.5t-10.5 27.5v57q0 16 10.5 27.5t26.5 11.5h780
q15 0 27 -11.5t12 -27.5v-57q0 -16 -12 -27.5t-27 -11.5h-780z" />
    <glyph glyph-name="yen" unicode="&#xa5;" horiz-adv-x="1229" 
d="M264 252q-15 0 -26 11.5t-11 27.5v14q0 16 11 27.5t26 11.5h268v154h-268q-15 0 -26 11.5t-11 27.5v14q0 15 11 27t26 12h268v100l-493 684q-6 10 -6 20.5t4.5 19.5t13.5 14.5t21 5.5h96q11 0 19.5 -6.5t13.5 -12.5l413 -571l414 571q5 6 13.5 12.5t19.5 6.5h96
q12 0 21 -5.5t13.5 -14.5t4.5 -19.5t-6 -20.5l-500 -682v-102h264q17 0 28 -12t11 -27v-16q0 -16 -11 -26.5t-28 -10.5h-264v-154h264q17 0 28 -11.5t11 -27.5v-16q0 -16 -11 -26.5t-28 -10.5h-264v-213q0 -16 -11.5 -27.5t-27.5 -11.5h-80q-17 0 -28 11.5t-11 27.5v213
h-268v0z" />
    <glyph glyph-name="mu1" horiz-adv-x="1160" 
d="M1133 19q-47 -17 -83.5 -27.5t-81.5 -10.5q-77 0 -128.5 39t-64.5 115h-6q-25 -26 -57.5 -58t-63.5 -50q-41 -24 -80 -36t-114 -12q-58 0 -111 24t-79 57h-6v-58q0 -68 26.5 -182t26.5 -162q0 -49 -31 -75.5t-68 -26.5q-40 0 -65.5 27t-25.5 73q0 59 18 154t24 146
q7 55 9.5 98.5t2.5 81.5v850h189v-677q0 -104 46.5 -160.5t117.5 -56.5q55 0 98.5 16t70.5 37q25 20 45 43t31 43v755h189v-784q0 -43 13 -68t43 -40q17 -9 49 -10t66 -1v-64z" />
    <glyph glyph-name="partialdiff" unicode="&#x2202;" horiz-adv-x="1186" 
d="M98 463q0 105 37.5 189.5t100 144t144.5 91.5t171 32q69 0 127 -15t102 -33q50 -21 92 -47q-18 71 -59 135.5t-93 120.5t-111 102t-113 80.5t-98.5 56.5t-67.5 30q-31 9 -39 25.5t0 35.5l24 51q7 14 18.5 20.5t26.5 0.5q54 -21 126.5 -57t149.5 -89.5t152 -126
t134.5 -166t96 -209t36.5 -255.5q0 -126 -29 -235.5t-89 -190.5t-153 -127.5t-221 -46.5q-95 0 -179 38t-148 103.5t-101 153.5t-37 188zM248 453q0 -68 24.5 -128.5t67 -106.5t100 -72.5t123.5 -26.5q93 0 158.5 39t106.5 101t60 138.5t19 151.5q0 25 -1.5 49t-6.5 47
q-41 38 -93 68q-45 26 -106 47.5t-135 21.5q-66 0 -124 -25.5t-100.5 -70t-67.5 -104.5t-25 -129z" />
    <glyph glyph-name="summation" unicode="&#x2211;" horiz-adv-x="1120" 
d="M98 72l635 659l-635 635v37q0 12 8.5 21.5t20.5 9.5h829q13 0 22 -9.5t9 -21.5v-86q0 -13 -9 -22t-22 -9h-591l491 -473q8 -8 19.5 -21.5t11.5 -31.5v-55q0 -16 -11.5 -29t-19.5 -23l-491 -508h591q13 0 22 -8t9 -20v-86q0 -13 -9 -22t-22 -9h-829q-12 0 -20.5 9t-8.5 22
v41z" />
    <glyph glyph-name="product" unicode="&#x220f;" horiz-adv-x="1579" 
d="M217 1403q0 12 9 21.5t22 9.5h1083q14 0 22.5 -9.5t8.5 -21.5v-1372q0 -13 -8.5 -22t-22.5 -9h-98q-12 0 -21.5 9t-9.5 22v1257h-825v-1257q0 -13 -8.5 -22t-22.5 -9h-98q-13 0 -22 9t-9 22v1372z" />
    <glyph glyph-name="integral" unicode="&#x222b;" horiz-adv-x="987" 
d="M422 1106q0 89 24 154.5t66.5 108.5t99.5 64t123 21q42 0 77.5 -8t64 -20.5t49.5 -27.5t35 -28q11 -9 12.5 -22.5t-4.5 -24.5l-33 -53q-9 -16 -23.5 -15.5t-29.5 13.5q-10 7 -26 17.5t-35.5 19.5t-42 15.5t-46.5 6.5q-35 0 -66 -12.5t-54 -39t-36.5 -68.5t-13.5 -101
v-1268q0 -89 -24 -154.5t-66.5 -108.5t-99.5 -64t-123 -21q-42 0 -77.5 8t-64 20.5t-49.5 27.5t-34 28q-11 9 -13 22.5t4 24.5l33 53q9 16 23.5 15.5t29.5 -13.5q10 -8 27.5 -18t38.5 -19t43 -15.5t41 -6.5q35 0 66 12.5t54 39t36.5 68.5t13.5 101v1268z" />
    <glyph glyph-name="ordfeminine" unicode="&#xaa;" horiz-adv-x="696" 
d="M283 827q-39 0 -72.5 14t-58 40t-38.5 63t-14 82q0 42 15.5 78.5t45.5 62.5t74.5 41t102.5 15q23 0 45.5 -3.5t39.5 -7.5q20 -4 38 -10q0 42 -3 71.5t-12.5 49t-27.5 28.5t-49 9q-32 0 -59.5 -4.5t-50 -10.5t-39.5 -12t-27 -10q-11 -3 -19.5 4.5t-11.5 18.5l-10 36
q-4 13 0.5 19.5t13.5 11.5q3 2 19 9t43 14t64.5 12.5t84.5 5.5q72 0 109.5 -23.5t54 -61.5t18.5 -86.5t2 -98.5v-312q0 -12 -7.5 -20t-18.5 -8h-37q-13 0 -17.5 5.5t-7.5 14.5l-12 43q-12 -11 -28.5 -25t-38 -26t-49 -20.5t-62.5 -8.5zM295 924q26 0 51 7.5t46 19t38 25
t27 25.5v115q-16 8 -47.5 17.5t-77.5 9.5q-29 0 -54.5 -8.5t-44.5 -23.5t-29.5 -36.5t-10.5 -46.5q0 -45 28.5 -74.5t73.5 -29.5z" />
    <glyph glyph-name="ordmasculine" unicode="&#xba;" horiz-adv-x="721" 
d="M360 807q-60 0 -107.5 22t-80 63.5t-49.5 101t-17 134.5q0 76 17 136t49.5 102t80 64t107.5 22q61 0 108 -22t79.5 -64t49.5 -102t17 -136q0 -75 -17 -134.5t-49.5 -101t-79.5 -63.5t-108 -22zM360 905q69 0 105.5 57.5t36.5 165.5q0 109 -36.5 167.5t-105.5 58.5
q-68 0 -104.5 -58.5t-36.5 -167.5q0 -108 36.5 -165.5t104.5 -57.5z" />
    <glyph glyph-name="Ohm" horiz-adv-x="1595" 
d="M1101 179h223q69 0 122 66.5t85 142.5l62 -22l-117 -366h-563v68q61 87 120.5 176.5t93.5 165.5q41 89 61 171t20 200q0 83 -17.5 192.5t-58.5 189.5q-55 104 -138 152.5t-195 48.5q-115 0 -198.5 -53t-132.5 -149q-41 -79 -59 -181.5t-18 -199.5q0 -105 20 -194t62 -179
q38 -82 87 -156.5t126 -183.5v-68h-563l-117 366l62 22q15 -35 34.5 -70.5t46.5 -67.5q26 -32 56 -51.5t70 -19.5h223v33q-72 81 -140.5 163.5t-110.5 155.5q-46 79 -71.5 166.5t-25.5 195.5q0 234 189.5 397t459.5 163t460 -163t190 -397q0 -106 -25.5 -195.5t-70.5 -166.5
q-46 -78 -110 -155.5t-142 -163.5v-33z" />
    <glyph glyph-name="ae" unicode="&#xe6;" horiz-adv-x="1618" 
d="M88 291q0 67 24 123t69 97t110 64t147 23q43 0 84 -2t73 -4q38 -3 71 -6q1 66 -4.5 112t-21.5 75.5t-44.5 42.5t-73.5 13q-55 0 -103 -7t-86.5 -16t-67 -18.5t-44.5 -13.5q-17 -6 -31.5 4t-17.5 29l-12 57q-3 19 8 30t31 17q44 16 97 28q45 11 105 19.5t129 8.5
q60 0 103 -9t73 -25.5t49.5 -40.5t32.5 -54q59 58 140.5 93.5t175.5 35.5q88 0 165.5 -30.5t135.5 -86.5t91.5 -135.5t33.5 -177.5q0 -18 -1 -35.5t-5.5 -32t-14 -23t-26.5 -8.5h-670v-153q22 -38 54.5 -69t72 -53.5t85 -35t93.5 -12.5q38 0 72.5 7t65.5 18t57 25t47 28
q23 15 36.5 18.5t30.5 -18.5l33 -48q6 -8 10.5 -14.5t4 -13t-6 -14t-18.5 -17.5q-22 -17 -56 -36t-78.5 -35.5t-98.5 -27t-115 -10.5q-116 0 -205 42.5t-152 125.5q-24 -31 -60 -61t-80.5 -54t-96.5 -38.5t-109 -14.5q-69 0 -126 22t-98.5 62.5t-64 99t-22.5 130.5z
M1368 561q0 58 -21.5 107t-58 85t-84.5 56t-102 20q-44 0 -86.5 -12.5t-80 -34t-68 -50.5t-50.5 -62v-109h551zM240 289q0 -45 16 -78t43 -54.5t61 -31.5t70 -10q37 0 73.5 11t67.5 28t55.5 39t39.5 45v217q-23 5 -54 9q-26 3 -63.5 6t-85.5 3q-45 0 -85 -12.5t-71 -36
t-49 -57.5t-18 -78z" />
    <glyph glyph-name="oslash" unicode="&#xf8;" horiz-adv-x="1145" 
d="M98 475q0 100 37.5 189t102 156.5t151 107t184.5 39.5q87 0 164.5 -30.5t139.5 -84.5l49 49q15 14 34 14t31 -14l10 -10q16 -14 16 -32t-16 -32l-53 -53q48 -63 74.5 -139t26.5 -160q0 -101 -37.5 -191.5t-102 -158.5t-151 -108t-185.5 -40q-86 0 -162.5 30t-138.5 83
l-34 -35q-13 -12 -30 -11t-30 13l-12 13q-14 14 -15 31.5t13 29.5l37 37q-50 63 -76.5 141.5t-26.5 165.5zM246 475q0 -57 14.5 -109t40.5 -96l477 482q-42 35 -94 56t-111 21q-70 0 -129.5 -28t-103.5 -76.5t-69 -113t-25 -136.5zM899 475q0 54 -14 102.5t-39 92.5
l-475 -480q42 -35 93 -55t109 -20q70 0 130 28.5t103.5 78t68 114.5t24.5 139z" />
    <glyph glyph-name="questiondown" unicode="&#xbf;" horiz-adv-x="934" 
d="M512 733q-25 0 -46.5 9t-37 24.5t-24.5 37t-9 46.5q0 24 9 45t24.5 37t37 25.5t46.5 9.5q24 0 45 -9.5t37 -25.5t25.5 -37t9.5 -45q0 -25 -9.5 -46.5t-25.5 -37t-37 -24.5t-45 -9zM438 346q0 22 14 31.5t29 9.5h56q15 0 26.5 -11t11.5 -28v-86q0 -63 -22.5 -106.5
t-57 -75.5t-74 -58.5t-74 -57t-57 -70t-22.5 -97.5q0 -36 13 -68.5t38.5 -57.5t63.5 -39.5t88 -14.5q62 0 108.5 15.5t80 37.5t56.5 46t38 40q25 27 53 2l39 -34q12 -11 10.5 -26t-10.5 -28q-37 -50 -91 -90q-23 -17 -52.5 -33t-64.5 -29t-77 -20.5t-90 -7.5
q-80 0 -145.5 22.5t-112.5 63.5t-72.5 98.5t-25.5 128.5q0 67 24 115.5t60 85.5t77.5 66.5t77.5 58t60 60t24 73.5v84z" />
    <glyph glyph-name="exclamdown" unicode="&#xa1;" horiz-adv-x="483" 
d="M242 733q-25 0 -46.5 9t-37 24.5t-24.5 37t-9 46.5q0 24 9 45t24.5 37t37 25.5t46.5 9.5q24 0 45 -9.5t36.5 -25.5t25 -37t9.5 -45q0 -25 -9.5 -46.5t-25 -37t-36.5 -24.5t-45 -9zM190 356q2 13 13.5 23t25.5 10h25q14 0 25.5 -10t13.5 -23l39 -571v-234q0 -15 -12 -26.5
t-27 -11.5h-103q-15 0 -26.5 11.5t-11.5 26.5v230z" />
    <glyph glyph-name="logicalnot" unicode="&#xac;" horiz-adv-x="1208" 
d="M207 643q-16 0 -27.5 12t-11.5 27v57q0 16 11.5 27.5t27.5 11.5h778q17 0 28 -12.5t11 -26.5v-417q0 -16 -11.5 -26.5t-27.5 -10.5h-57q-16 0 -27.5 10.5t-11.5 26.5v321h-682v0z" />
    <glyph glyph-name="radical" unicode="&#x221a;" horiz-adv-x="1352" 
d="M68 784q-8 16 -2.5 25.5t22.5 9.5h105q11 0 17.5 -5.5t8.5 -10.5l227 -535h7l508 1145q3 8 10.5 14.5t19.5 6.5h305q13 0 21 -9.5t8 -21.5v-72q0 -12 -8 -21.5t-21 -9.5h-227l-588 -1300q-3 -9 -11 -14.5t-17 -5.5h-13q-9 0 -16 7t-10 13z" />
    <glyph glyph-name="florin" unicode="&#x192;" horiz-adv-x="702" 
d="M227 696h-125q-17 0 -28 12t-11 27v45q0 17 11 28t28 11h125v287q0 89 24.5 154.5t66.5 108.5t99.5 64t123.5 21q42 0 77 -8t63.5 -20.5t49.5 -27.5t35 -28q11 -9 12.5 -22.5t-4.5 -24.5l-33 -53q-9 -16 -23 -15.5t-30 13.5q-10 7 -25.5 17.5t-35 19.5t-42 15.5
t-46.5 6.5q-36 0 -67 -12.5t-54 -39t-36 -68.5t-13 -101v-287h237q17 0 28 -11t11 -28v-45q0 -15 -11 -27t-28 -12h-237v-858q0 -89 -24.5 -154.5t-66.5 -108.5t-99.5 -64t-123.5 -21q-42 0 -77 8t-63.5 20.5t-49.5 27.5t-35 28q-11 9 -12.5 22.5t4.5 24.5l33 53
q9 16 23 15.5t30 -13.5q10 -8 27 -18t38 -19t43 -15.5t41 -6.5q36 0 67 12.5t54 39t36 68.5t13 101v858z" />
    <glyph glyph-name="approxequal" unicode="&#x2248;" horiz-adv-x="1229" 
d="M258 700q-11 8 -11.5 21t7.5 24q25 47 58 84q14 16 31.5 31t38.5 27t45.5 19t51.5 7q31 0 57.5 -8.5t47.5 -20t37 -24t26 -20.5q9 -7 20.5 -16t25.5 -17t30 -13.5t33 -5.5q28 0 49.5 11.5t37.5 28t27 34.5t17 31q6 14 20 15t25 -7l45 -33q11 -8 11.5 -21t-7.5 -24
q-25 -47 -58 -84q-14 -16 -32 -31t-39 -27t-45 -19t-51 -7q-28 0 -54 8.5t-48.5 20t-39.5 23.5t-26 20t-21 17t-25.5 17t-29 13.5t-33.5 5.5q-29 0 -51 -11.5t-38 -27.5t-27 -34t-17 -31q-6 -14 -20 -15t-25 7zM258 283q-11 8 -11.5 21t7.5 24q25 47 58 84q14 16 31.5 31
t38.5 27t45.5 19t51.5 7q31 0 57.5 -8.5t47.5 -20.5t37 -24.5t26 -20.5q9 -7 20.5 -16t25.5 -16.5t30 -13t33 -5.5q28 0 49.5 11.5t37.5 27.5t27 34t17 31q6 14 20 15t25 -7l45 -32q11 -8 11.5 -21t-7.5 -24q-25 -47 -58 -84q-14 -16 -32 -31t-39 -27t-45 -19t-51 -7
q-28 0 -54 8.5t-48.5 19.5t-39.5 23t-26 20t-21 17t-25.5 17t-29 13.5t-33.5 5.5q-29 0 -50.5 -11.5t-37 -27.5t-26.5 -34t-17 -31q-6 -14 -20 -15t-25 7z" />
    <glyph glyph-name="uni2206" horiz-adv-x="1369" 
d="M1350 0h-1331v50l646 1389h78l607 -1389v-50zM1068 172l-434 995l-455 -995h889z" />
    <glyph glyph-name="guillemotleft" unicode="&#xab;" horiz-adv-x="887" 
d="M440 459q-9 12 -7.5 26t7.5 23l224 303q5 8 14.5 16.5t21.5 8.5h29q26 0 34.5 -19.5t-3.5 -44.5l-152 -285l146 -301q12 -24 3.5 -42.5t-34.5 -18.5h-39q-11 0 -18.5 5t-12.5 11zM106 459q-9 12 -7.5 26t7.5 23l224 303q5 8 14.5 16.5t22.5 8.5h28q26 0 34.5 -19.5
t-3.5 -44.5l-152 -285l146 -301q12 -24 3.5 -42.5t-34.5 -18.5h-39q-11 0 -18.5 5t-12.5 11z" />
    <glyph glyph-name="guillemotright" unicode="&#xbb;" horiz-adv-x="887" 
d="M610 487l-151 285q-13 25 -4.5 44.5t34.5 19.5h29q13 0 22.5 -8.5t14.5 -16.5l223 -303q6 -9 8 -23t-8 -26l-213 -318q-5 -6 -12 -11t-18 -5h-39q-26 0 -34.5 18.5t3.5 42.5zM162 125q-26 0 -34.5 18.5t3.5 42.5l145 301l-151 285q-12 25 -3.5 44.5t34.5 19.5h28
q13 0 22.5 -8.5t14.5 -16.5l223 -303q7 -9 8.5 -23t-8.5 -26l-213 -318q-5 -6 -12 -11t-18 -5h-39z" />
    <glyph glyph-name="ellipsis" unicode="&#x2026;" horiz-adv-x="1266" 
d="M915 96q0 25 9.5 46t25.5 37t37 25t45 9q25 0 46 -9t37 -25t25 -37t9 -46q0 -24 -9 -45t-25 -36.5t-37 -25t-46 -9.5q-24 0 -45 9.5t-37 25t-25.5 36.5t-9.5 45zM512 96q0 25 9.5 46t25 37t37 25t45.5 9t45.5 -9t37 -25t24.5 -37t9 -46q0 -24 -9 -45t-24.5 -36.5t-37 -25
t-45.5 -9.5t-45.5 9.5t-37 25t-25 36.5t-9.5 45zM117 96q0 25 9.5 46t25 37t36.5 25t45 9q25 0 46 -9t37 -25t25 -37t9 -46q0 -24 -9 -45t-25 -36.5t-37 -25t-46 -9.5q-24 0 -45 9.5t-36.5 25t-25 36.5t-9.5 45z" />
    <glyph glyph-name="Agrave" unicode="&#xc0;" horiz-adv-x="1437" 
d="M766 1792l-41 -72l-303 275l154 82zM1461 0h-207l-176 387h-709l-176 -387h-207l737 1610zM998 563l-275 625l-274 -625h549z" />
    <glyph glyph-name="Atilde" unicode="&#xc3;" horiz-adv-x="1437" 
d="M1078 387h-709l-176 -387h-207l737 1610l738 -1610h-207zM998 563l-275 625l-274 -625h549zM490 1720l-51 45l6 9q88 116 188 120q60 2 123 -32q45 -25 92 -23t115 74l53 -53q-86 -121 -205 -129q-34 -2 -111 30.5t-106 30.5q-57 -4 -104 -72z" />
    <glyph glyph-name="Otilde" unicode="&#xd5;" horiz-adv-x="1693" 
d="M845 1577q336 0 572.5 -234.5t236.5 -570.5q0 -344 -232.5 -574.5t-576.5 -230.5t-576.5 230.5t-232.5 574.5q0 336 236.5 570.5t572.5 234.5zM845 147q260 0 438 182.5t178 442.5q0 268 -174 446.5t-442 178.5q-266 0 -441 -179.5t-175 -445.5q0 -260 178 -442.5
t438 -182.5zM611 1722l-51 45l6 9q88 116 189 120q59 2 123 -32q45 -25 92 -23t115 74l53 -53q-86 -121 -205 -129q-35 -2 -111.5 30.5t-105.5 30.5q-57 -4 -105 -72z" />
    <glyph glyph-name="OE" unicode="&#x152;" horiz-adv-x="1962" 
d="M106 715q0 102 26 196.5t73.5 176.5t114.5 149.5t149 115.5t176 74.5t197 26.5q35 0 66 -3t56 -7q28 -4 54 -10h807q17 0 28 -12t11 -27v-60q0 -15 -11 -27t-28 -12h-688v-499h587q16 0 27.5 -12t11.5 -27v-60q0 -17 -11.5 -28t-27.5 -11h-587v-522h688q17 0 28 -11.5
t11 -27.5v-59q0 -16 -11 -27.5t-28 -11.5h-807q-26 -6 -54 -10q-25 -4 -56 -7t-66 -3q-102 0 -196.5 26t-176.5 73.5t-149 114.5t-114.5 148.5t-73.5 175.5t-26 197zM250 715q0 -122 46.5 -230t127 -188.5t188.5 -127t230 -46.5q35 0 69 3t68 11v1155q-34 8 -68 12.5
t-69 4.5q-122 0 -230 -47t-188.5 -128t-127 -189t-46.5 -230z" />
    <glyph glyph-name="oe" unicode="&#x153;" horiz-adv-x="1843" 
d="M98 477q0 100 36.5 189t100 156t149 106t183.5 39q58 0 114 -14t106 -40.5t92.5 -64t74.5 -84.5q62 96 155 149.5t218 53.5q88 0 166 -30.5t136.5 -86.5t92 -135.5t33.5 -177.5q0 -13 -1 -29t-3 -29q-2 -18 -14.5 -29.5t-28.5 -11.5h-680q3 -68 31 -127t71.5 -102.5
t99 -68.5t113.5 -25q44 0 78.5 5.5t64 16t56.5 25t55 31.5q5 3 12.5 6t16 3t17 -3.5t14.5 -12.5l26 -41q6 -8 10 -14.5t4.5 -13t-4.5 -14t-18 -17.5q-21 -17 -55 -36t-78.5 -35.5t-99 -27t-115.5 -10.5q-62 0 -116.5 16t-101.5 45t-85.5 68.5t-69.5 86.5
q-32 -47 -74.5 -86.5t-92.5 -68.5t-106 -45t-114 -16q-98 0 -183.5 40t-149 108.5t-100 159.5t-36.5 192zM1604 557q-3 60 -24.5 110t-58 86t-86.5 56t-108 20q-60 0 -111.5 -22t-90.5 -59.5t-63 -87t-30 -103.5h572zM244 475q0 -74 25 -139t69 -114.5t103.5 -78
t129.5 -28.5t129 28.5t102 78t67 114.5t24 139q0 72 -24 136.5t-67 113t-102 76.5t-129 28t-129.5 -28t-103.5 -76.5t-69 -113t-25 -136.5z" />
    <glyph glyph-name="endash" unicode="&#x2013;" horiz-adv-x="1024" 
d="M8 489v105h1022v-105h-1022z" />
    <glyph glyph-name="emdash" unicode="&#x2014;" horiz-adv-x="2048" 
d="M0 489v105h2075v-105h-2075z" />
    <glyph glyph-name="quotedblleft" unicode="&#x201c;" horiz-adv-x="1028" 
d="M700 1151q-41 92 -86 187.5t-86 187.5h125q41 -92 86 -187.5t86 -187.5h-125zM389 1151q-41 92 -87 187.5t-87 187.5h127q41 -92 86 -187.5t86 -187.5h-125z" />
    <glyph glyph-name="quotedblright" unicode="&#x201d;" horiz-adv-x="991" 
d="M323 1151h-127q47 100 87 187t87 188h125zM626 1151h-127q47 100 87 187t87 188h125z" />
    <glyph glyph-name="quoteleft" unicode="&#x2018;" horiz-adv-x="718" 
d="M395 1151q-41 92 -86 187.5t-86 187.5h125q41 -92 86 -187.5t86 -187.5h-125z" />
    <glyph glyph-name="quoteright" unicode="&#x2019;" horiz-adv-x="718" 
d="M333 1151h-127q47 100 87 187t87 188h125z" />
    <glyph glyph-name="divide" unicode="&#xf7;" horiz-adv-x="1229" 
d="M608 967q-24 0 -45 9.5t-36.5 25t-25 36.5t-9.5 45q0 25 9.5 46t25 37t36.5 25t45 9q25 0 46 -9t37 -25t25 -37t9 -46q0 -24 -9 -45t-25 -36.5t-37 -25t-46 -9.5zM225 643q-15 0 -27 12t-12 27v57q0 16 12 27.5t27 11.5h781q15 0 25.5 -11.5t10.5 -27.5v-57
q0 -15 -10.5 -27t-25.5 -12h-781zM492 350q0 25 9.5 46t25 37t36.5 25t45 9q25 0 46 -9t37 -25t25 -37t9 -46q0 -24 -9 -45t-25 -37t-37 -25.5t-46 -9.5q-24 0 -45 9.5t-36.5 25.5t-25 37t-9.5 45z" />
    <glyph glyph-name="lozenge" unicode="&#x25ca;" horiz-adv-x="1270" 
d="M145 627q-15 20 -23.5 34t-13 26.5t-5.5 24.5t1 27q1 12 3 22t7.5 20.5t14 23.5t21.5 31l452 600q5 8 12 13t17 5h10q8 0 16 -4.5t13 -13.5l450 -598q13 -19 22 -33t14.5 -26.5t7.5 -25.5t1 -30q-1 -14 -3.5 -25t-8 -22.5t-13.5 -24t-20 -30.5l-450 -627q-5 -9 -13 -13
t-16 -4h-10q-10 0 -17 5.5t-12 11.5zM637 174l385 555l-385 531h-4l-385 -531l385 -555h4z" />
    <glyph glyph-name="ydieresis" unicode="&#xff;" horiz-adv-x="1024" 
d="M59 895q-9 23 0 37t37 14h86q31 0 41 -26l269 -752h4l319 752q5 12 16 19t25 7h76q28 0 38 -15t-1 -38l-592 -1352q-5 -11 -17 -19.5t-24 -8.5h-74q-28 0 -39 16t0 41l183 432zM711 1190q-22 0 -41 8t-33.5 22.5t-22.5 33.5t-8 40q0 22 8 42t22.5 34t33.5 22.5t41 8.5
t41.5 -8.5t33.5 -22.5t22.5 -34t8.5 -42q0 -21 -8.5 -40t-22.5 -33.5t-33.5 -22.5t-41.5 -8zM315 1190q-21 0 -40 8t-33.5 22.5t-22.5 33.5t-8 40q0 22 8 42t22.5 34t33.5 22.5t40 8.5q22 0 42 -8.5t34 -22.5t22.5 -34t8.5 -42q0 -21 -8.5 -40t-22.5 -33.5t-34 -22.5t-42 -8
z" />
    <glyph glyph-name="Ydieresis" unicode="&#x178;" horiz-adv-x="1176" 
d="M508 690l-494 684q-6 10 -6 20.5t4.5 19.5t13.5 14.5t21 5.5h96q11 0 19.5 -6.5t13.5 -12.5l414 -571l414 571q5 6 13 12.5t19 6.5h97q12 0 21 -5.5t13.5 -14.5t4 -19.5t-6.5 -20.5l-499 -682v-653q0 -16 -12 -27.5t-27 -11.5h-80q-17 0 -28 11.5t-11 27.5v651zM805 1614
q-21 0 -40.5 8t-33.5 22.5t-22.5 33.5t-8.5 40q0 22 8.5 42t22.5 34t33.5 22.5t40.5 8.5q22 0 41.5 -8.5t33.5 -22.5t22.5 -34t8.5 -42q0 -21 -8.5 -40t-22.5 -33.5t-33.5 -22.5t-41.5 -8zM373 1614q-22 0 -41 8t-33.5 22.5t-22.5 33.5t-8 40q0 22 8 42t22.5 34t33.5 22.5
t41 8.5t41.5 -8.5t33.5 -22.5t22.5 -34t8.5 -42q0 -21 -8.5 -40t-22.5 -33.5t-33.5 -22.5t-41.5 -8z" />
    <glyph glyph-name="fraction" horiz-adv-x="246" 
d="M-180 20q-3 -6 -12 -13t-23 -7h-29q-23 0 -34.5 17.5t-0.5 37.5l703 1358q12 21 35 21h33q23 0 34 -18t0 -38l-706 -1358v0z" />
    <glyph glyph-name="Euro" unicode="&#x20ac;" horiz-adv-x="1229" 
d="M375 518q18 -87 50 -158.5t77 -122.5t102 -79.5t125 -28.5q58 0 101.5 8t79.5 23.5t68.5 38.5t68.5 53q11 9 24.5 10.5t24.5 -10.5l49 -55q11 -13 10 -29t-12 -27q-88 -83 -189 -122t-223 -39q-101 0 -187.5 38t-154.5 108t-114.5 169.5t-67.5 222.5h-113q-15 0 -26 12
t-11 27v14q0 16 11 27.5t26 11.5h101q-2 25 -3.5 51t-1.5 54v49h-96q-15 0 -26 11.5t-11 27.5v14q0 16 11 27.5t26 11.5h105q15 121 57.5 229.5t112 190.5t165.5 130t218 48q67 0 121.5 -11t99.5 -32t83.5 -50.5t73.5 -66.5q13 -12 14.5 -27.5t-9.5 -29.5l-41 -55
q-13 -16 -31 -16.5t-37 18.5q-28 27 -54.5 50t-58 39t-71 25t-92.5 9q-82 0 -147 -36t-113.5 -98t-79 -144t-43.5 -173h561q17 0 28 -11.5t11 -27.5v-16q0 -16 -11 -26.5t-28 -10.5h-572v-47q0 -28 1 -54.5t3 -52.5h486q17 0 28 -11.5t11 -27.5v-16q0 -15 -11 -26t-28 -11
h-471z" />
    <glyph glyph-name="guilsinglleft" unicode="&#x2039;" horiz-adv-x="553" 
d="M106 459q-9 12 -7.5 26t7.5 23l224 303q8 11 16 18t21 7h28q26 0 34.5 -19.5t-3.5 -44.5l-152 -285l146 -301q11 -24 3 -42.5t-34 -18.5h-39q-11 0 -18.5 5t-12.5 11z" />
    <glyph glyph-name="guilsinglright" unicode="&#x203a;" horiz-adv-x="553" 
d="M162 125q-26 0 -34 18.5t3 42.5l145 301l-151 285q-12 25 -3.5 44.5t34.5 19.5h28q13 0 22 -8t15 -17l223 -303q7 -9 8.5 -23t-8.5 -26l-213 -318q-5 -6 -12 -11t-18 -5h-39v0z" />
    <glyph glyph-name="fi" unicode="&#xfb01;" horiz-adv-x="1182" 
d="M244 815h-152q-18 0 -31.5 13.5t-13.5 31.5v41q0 20 13.5 32.5t31.5 12.5h152v125q0 93 26.5 164.5t74 120t113.5 73.5t146 25q59 0 111.5 -13t95 -31t73.5 -37.5t46 -31.5q12 -8 15 -25t-5 -28l-39 -57q-11 -16 -26.5 -15.5t-32.5 13.5q-18 13 -41.5 28.5t-53.5 28.5
t-66.5 22t-78.5 9q-99 0 -153 -62t-54 -184v-125h586q19 0 32 -14t13 -31v-856q0 -19 -13 -32t-32 -13h-61q-17 0 -31.5 13t-14.5 32v770h-479v-770q0 -19 -13 -32t-32 -13h-61q-19 0 -32 13t-13 32v770z" />
    <glyph glyph-name="fl" unicode="&#xfb02;" horiz-adv-x="1241" 
d="M244 815h-152q-18 0 -31.5 12.5t-13.5 30.5v43q0 20 13.5 32.5t31.5 12.5h152v109q0 103 30.5 178.5t82 124.5t120 72.5t144.5 23.5q74 0 132 -18.5t100 -40.5q48 -26 85 -58l16 58q3 6 6 13t8 12.5t12.5 9.5t18.5 4l27 -2q19 0 32 -14.5t13 -31.5v-1341q0 -19 -13 -32
t-32 -13h-59q-17 0 -31 13t-14 32v1124q-33 41 -77 74q-38 28 -91 51t-121 23q-47 0 -90 -15.5t-76 -47.5t-52.5 -81.5t-19.5 -117.5v-109h281q18 0 31.5 -12.5t13.5 -32.5v-43q0 -18 -13.5 -30.5t-31.5 -12.5h-281v-770q0 -19 -13 -32t-32 -13h-61q-19 0 -32 13t-13 32v770
z" />
    <glyph glyph-name="daggerdbl" unicode="&#x2021;" horiz-adv-x="1253" 
d="M158 96q0 16 11.5 27.5t27.5 11.5h356l-18 684h-400q-15 0 -27 12t-12 27v57q0 16 12 27.5t27 11.5h400v441q0 15 11.5 27t26.5 12h103q15 0 27 -12t12 -27v-441h405q16 0 26.5 -11.5t10.5 -27.5v-57q0 -15 -10.5 -27t-26.5 -12h-405l-19 -684h363q15 0 26 -11.5
t11 -27.5v-57q0 -16 -11 -27.5t-26 -11.5h-367l-16 -455q0 -12 -12.5 -22t-26.5 -10h-25q-14 0 -26.5 10t-12.5 22l-16 455h-360q-16 0 -27.5 11.5t-11.5 27.5v57z" />
    <glyph glyph-name="quotesinglbase" unicode="&#x201a;" horiz-adv-x="494" 
d="M117 100q0 54 29.5 89.5t84.5 35.5q38 0 66.5 -17.5t48 -48t29.5 -71.5t10 -88q0 -59 -11.5 -108.5t-31 -91.5t-44.5 -77.5t-52 -64.5q-10 -9 -17.5 -8.5t-15.5 6.5l-39 35q-11 11 -8.5 20t10.5 17q21 23 42 49t37 56t26 64t10 74q0 11 -1.5 23t-6.5 24q-11 -8 -31.5 -13
t-36.5 -5q-24 0 -42.5 9.5t-31 24t-18.5 32t-6 34.5z" />
    <glyph glyph-name="quotedblbase" unicode="&#x201e;" horiz-adv-x="860" 
d="M117 100q0 54 29.5 89.5t84.5 35.5q38 0 66.5 -17.5t48 -48t29.5 -71.5t10 -88q0 -59 -11.5 -108.5t-31 -91.5t-44.5 -77.5t-52 -64.5q-10 -9 -17.5 -8.5t-15.5 6.5l-39 35q-11 11 -8.5 20t10.5 17q21 23 42 49t37 56t26 64t10 74q0 11 -1.5 23t-6.5 24q-11 -8 -31.5 -13
t-36.5 -5q-24 0 -42.5 9.5t-31 24t-18.5 32t-6 34.5zM483 100q0 54 29.5 89.5t85.5 35.5q37 0 66 -17.5t48.5 -48t29.5 -71.5t10 -88q0 -59 -12 -108.5t-31.5 -91.5t-44.5 -77.5t-52 -64.5q-9 -9 -16.5 -8.5t-15.5 6.5l-39 35q-11 11 -8.5 20t10.5 17q21 23 41.5 49t36.5 56
t26 64t10 74q0 11 -1.5 23t-6.5 24q-11 -8 -31.5 -13t-35.5 -5q-25 0 -43.5 9.5t-31 24t-18.5 32t-6 34.5z" />
    <glyph glyph-name="perthousand" unicode="&#x2030;" horiz-adv-x="2023" 
d="M377 903q-58 0 -108.5 21.5t-88 59t-59 88t-21.5 108.5q0 57 21.5 107.5t59 88t88 59t108.5 21.5q57 0 107 -21.5t87.5 -59t59.5 -88t22 -107.5q0 -58 -22 -108.5t-59.5 -88t-87.5 -59t-107 -21.5zM993 1413q12 21 35 21h33q23 0 34 -18t1 -38l-707 -1358q-3 -6 -12 -13
t-23 -7h-28q-12 0 -21 5t-14 13t-5.5 17.5t5.5 19.5zM377 1020q31 0 59.5 12.5t49.5 34t33.5 50.5t12.5 63q0 31 -12.5 59.5t-33.5 49.5t-49.5 33.5t-59.5 12.5q-34 0 -63 -12.5t-50.5 -33.5t-34 -49.5t-12.5 -59.5q0 -34 12.5 -63t34 -50.5t50.5 -34t63 -12.5zM1382 254
q0 58 21.5 108t59 87.5t88 59t108.5 21.5q57 0 107 -21.5t87.5 -59t59.5 -87.5t22 -108t-22 -108.5t-59.5 -88t-87.5 -59t-107 -21.5q-58 0 -108.5 21.5t-88 59t-59 88t-21.5 108.5zM748 254q0 58 21.5 108t59 87.5t87.5 59t108 21.5q57 0 107 -21.5t87.5 -59t59.5 -87.5
t22 -108t-22 -108.5t-59.5 -88t-87.5 -59t-107 -21.5q-58 0 -108 21.5t-87.5 59t-59 88t-21.5 108.5zM1499 254q0 -34 12.5 -63t34 -50.5t50.5 -34t63 -12.5q31 0 59.5 12.5t50 34t34 50.5t12.5 63q0 31 -12.5 59.5t-34 50t-50 34t-59.5 12.5q-34 0 -63 -12.5t-50.5 -34
t-34 -50t-12.5 -59.5zM864 254q0 -34 12.5 -63t34 -50.5t50.5 -34t63 -12.5q31 0 59.5 12.5t50 34t34 50.5t12.5 63q0 31 -12.5 59.5t-34 50t-50 34t-59.5 12.5q-34 0 -63 -12.5t-50.5 -34t-34 -50t-12.5 -59.5z" />
    <glyph glyph-name="Acircumflex" unicode="&#xc2;" horiz-adv-x="1437" 
d="M1078 387h-709l-176 -387h-207l737 1610l738 -1610h-207zM998 563l-275 625l-274 -625h549zM494 1714l229 228l234 -228l-56 -74l-178 152l-176 -152z" />
    <glyph glyph-name="Ecircumflex" unicode="&#xca;" horiz-adv-x="1064" 
d="M145 0v1544h829v-176h-636v-432h618v-176h-618v-584h636v-176h-829zM327 1714l230 228l233 -228l-55 -74l-178 152l-176 -152z" />
    <glyph glyph-name="Aacute" unicode="&#xc1;" horiz-adv-x="1437" 
d="M1078 387h-709l-176 -387h-207l737 1610l738 -1610h-207zM998 563l-275 625l-274 -625h549zM871 2077l153 -82l-303 -275l-41 72z" />
    <glyph glyph-name="Edieresis" unicode="&#xcb;" horiz-adv-x="1097" 
d="M167 0v1513h815v-110h-690v-582h666v-110h-666v-600h690v-111h-815zM360 1649v233h124v-233h-124zM667 1649v233h125v-233h-125z" />
    <glyph glyph-name="Egrave" unicode="&#xc8;" horiz-adv-x="1064" 
d="M145 0v1544h829v-176h-636v-432h618v-176h-618v-584h636v-176h-829zM598 1794l-41 -72l-303 275l153 82z" />
    <glyph glyph-name="Iacute" unicode="&#xcd;" horiz-adv-x="473" 
d="M332 1544v-1544h-193v1544h193zM381 2079l153 -82l-303 -275l-41 72z" />
    <glyph glyph-name="Icircumflex" unicode="&#xce;" horiz-adv-x="553" 
d="M197 1395q0 15 11.5 27t27.5 12h81q16 0 27.5 -12t11.5 -27v-1356q0 -16 -11.5 -27.5t-27.5 -11.5h-81q-16 0 -27.5 11.5t-11.5 27.5v1356zM-8 1624q-8 11 -2.5 22t14.5 17l246 192q6 5 13 7t13 2q17 0 27 -9l246 -192q9 -6 14.5 -17t-2.5 -22q-7 -9 -14 -21.5
t-15.5 -21.5t-20 -11t-26.5 9l-209 143l-208 -139q-19 -12 -29.5 -9.5t-18.5 13.5z" />
    <glyph glyph-name="Idieresis" unicode="&#xcf;" horiz-adv-x="553" 
d="M197 1395q0 15 11.5 27t27.5 12h81q16 0 27.5 -12t11.5 -27v-1356q0 -16 -11.5 -27.5t-27.5 -11.5h-81q-16 0 -27.5 11.5t-11.5 27.5v1356zM494 1614q-22 0 -41 8t-33.5 22.5t-22.5 33.5t-8 40q0 22 8 42t22.5 34t33.5 22.5t41 8.5t41.5 -8.5t33.5 -22.5t22.5 -34
t8.5 -42q0 -21 -8.5 -40t-22.5 -33.5t-33.5 -22.5t-41.5 -8zM61 1614q-21 0 -40 8t-33.5 22.5t-22.5 33.5t-8 40q0 22 8 42t22.5 34t33.5 22.5t40 8.5q22 0 42 -8.5t34 -22.5t22.5 -34t8.5 -42q0 -21 -8.5 -40t-22.5 -33.5t-34 -22.5t-42 -8z" />
    <glyph glyph-name="Igrave" unicode="&#xcc;" horiz-adv-x="473" 
d="M336 1544v-1544h-192v1544h192zM283 1792l-41 -72l-303 275l154 82z" />
    <glyph glyph-name="Oacute" unicode="&#xd3;" horiz-adv-x="1693" 
d="M845 1577q336 0 572.5 -234.5t236.5 -570.5q0 -344 -232.5 -574.5t-576.5 -230.5t-576.5 230.5t-232.5 574.5q0 336 236.5 570.5t572.5 234.5zM845 147q260 0 438 182.5t178 442.5q0 268 -174 446.5t-442 178.5q-266 0 -441 -179.5t-175 -445.5q0 -260 178 -442.5
t438 -182.5zM992 2077l154 -82l-303 -275l-41 72z" />
    <glyph glyph-name="Ocircumflex" unicode="&#xd4;" horiz-adv-x="1693" 
d="M845 1577q336 0 572.5 -234.5t236.5 -570.5q0 -344 -232.5 -574.5t-576.5 -230.5t-576.5 230.5t-232.5 574.5q0 336 236.5 570.5t572.5 234.5zM845 147q260 0 438 182.5t178 442.5q0 268 -174 446.5t-442 178.5q-266 0 -441 -179.5t-175 -445.5q0 -260 178 -442.5
t438 -182.5zM614 1712l229 227l233 -227l-55 -74l-178 152l-176 -152z" />
    <glyph glyph-name="Ograve" unicode="&#xd2;" horiz-adv-x="1693" 
d="M845 1577q336 0 572.5 -234.5t236.5 -570.5q0 -344 -232.5 -574.5t-576.5 -230.5t-576.5 230.5t-232.5 574.5q0 336 236.5 570.5t572.5 234.5zM845 147q260 0 438 182.5t178 442.5q0 268 -174 446.5t-442 178.5q-266 0 -441 -179.5t-175 -445.5q0 -260 178 -442.5
t438 -182.5zM888 1794l-41 -72l-303 275l154 82z" />
    <glyph glyph-name="Uacute" unicode="&#xda;" horiz-adv-x="1368" 
d="M118 1544h193v-911q0 -486 372 -486q373 0 373 486v911h192v-977q0 -264 -149 -428q-154 -172 -416 -172t-415 172q-150 164 -150 428v977zM825 1995l153 -82l-303 -275l-41 72z" />
    <glyph glyph-name="Ucircumflex" unicode="&#xdb;" horiz-adv-x="1341" 
d="M1187 565q0 -153 -37 -265t-104.5 -184.5t-161.5 -107.5t-209 -35t-208 35t-160.5 107.5t-104.5 184.5t-37 265v948h127v-948q0 -246 97.5 -362.5t287.5 -116.5q188 0 286.5 116.5t98.5 362.5v948h125v-948zM867 1649l-184 157q-43 -37 -92 -78.5t-94 -78.5h-152
q74 65 136.5 116.5t136.5 116.5h125q71 -63 133.5 -116.5t132.5 -116.5h-142z" />
    <glyph glyph-name="Ugrave" unicode="&#xd9;" horiz-adv-x="1368" 
d="M118 1544h193v-911q0 -486 372 -486q373 0 373 486v911h192v-977q0 -264 -149 -428q-154 -172 -416 -172t-415 172q-150 164 -150 428v977zM722 1710l-41 -72l-303 275l154 82z" />
    <glyph glyph-name="dotlessi" unicode="&#x131;" horiz-adv-x="471" 
d="M160 901q0 17 13 31t32 14h61q17 0 31 -14t14 -31v-856q0 -19 -14 -32t-31 -13h-61q-19 0 -32 13t-13 32v856z" />
    <glyph glyph-name="circumflex" unicode="&#x2c6;" horiz-adv-x="764" 
d="M94 1174q-8 11 -2.5 21.5t14.5 16.5l246 193q6 5 13.5 6.5t13.5 1.5q9 0 14.5 -1.5t12.5 -6.5l245 -193q10 -6 15.5 -16.5t-2.5 -21.5q-7 -9 -14 -21.5t-15.5 -21.5t-20 -11.5t-26.5 8.5l-209 144l-209 -139q-19 -13 -29 -10t-18 14z" />
    <glyph glyph-name="tilde" unicode="&#x2dc;" horiz-adv-x="778" 
d="M94 1196q-12 6 -12.5 20t4.5 25q7 14 18 42.5t32 57.5t54 50.5t84 21.5q46 0 78 -23.5t57 -52t46 -52t45 -23.5q21 0 37 11.5t27 27.5t17.5 34t10.5 31q5 15 17.5 19.5t29.5 -3.5l33 -16q9 -5 12 -11.5t2.5 -14t-3 -15t-3.5 -12.5q-8 -23 -21.5 -51.5t-35.5 -54
t-52.5 -43t-72.5 -17.5q-28 0 -52 11.5t-44 28.5t-37.5 36.5t-33 36.5t-30.5 28.5t-29 11.5q-21 0 -35.5 -10t-24.5 -25t-17 -33t-13 -34q-5 -15 -18 -23t-33 3z" />
    <glyph glyph-name="breve" unicode="&#x2d8;" horiz-adv-x="709" 
d="M354 1087q-54 0 -101 18t-84 49.5t-60.5 74t-30.5 92.5q-3 17 3.5 29t24.5 12h44q17 0 25 -10.5t13 -24.5q17 -59 60.5 -95t105.5 -36q28 0 54 10.5t47 28t37 41.5t24 51q12 35 39 35h47q17 0 24.5 -12t4.5 -29q-9 -50 -33 -92.5t-60.5 -74t-83.5 -49.5t-100 -18z" />
    <glyph glyph-name="dotaccent" unicode="&#x2d9;" horiz-adv-x="449" 
d="M221 1163q-23 0 -43 9t-35 24t-23.5 35t-8.5 43q0 24 8.5 45t23.5 36.5t35 24.5t43 9q24 0 44.5 -9t36 -24.5t24 -36.5t8.5 -45q0 -23 -8.5 -43t-24 -35t-36 -24t-44.5 -9z" />
    <glyph glyph-name="ring" unicode="&#x2da;" horiz-adv-x="594" 
d="M297 1008q-47 0 -87.5 17.5t-70.5 47.5t-47.5 70.5t-17.5 87.5t17.5 87.5t47.5 70.5t70.5 47.5t87.5 17.5q46 0 86.5 -17.5t71 -47.5t48 -70.5t17.5 -87.5t-17.5 -87.5t-48 -70.5t-71 -47.5t-86.5 -17.5zM297 1106q24 0 46 10t38.5 27.5t26.5 40t10 47.5q0 24 -10 46
t-26.5 38.5t-38.5 26.5t-46 10q-25 0 -47.5 -10t-40 -26.5t-27.5 -38.5t-10 -46q0 -25 10 -47.5t27.5 -40t40 -27.5t47.5 -10z" />
    <glyph glyph-name="cedilla" unicode="&#xb8;" horiz-adv-x="506" 
d="M340 6l-92 -143q9 3 22.5 5.5t28.5 2.5q32 0 63 -9.5t55 -29.5t39 -52.5t15 -78.5q0 -44 -18 -79.5t-48.5 -61t-71 -39t-85.5 -13.5q-57 0 -99.5 16.5t-68.5 41.5q-9 9 -7.5 19.5t7.5 23.5l16 31q14 29 43 10q16 -16 42 -28.5t61 -12.5q52 0 83 25t31 67q0 48 -30 70
t-78 22q-28 0 -51.5 -6t-38.5 -14q-6 -2 -11.5 -0.5t-9 6t-5 10t0.5 10.5l100 207h107z" />
    <glyph glyph-name="hungarumlaut" unicode="&#x2dd;" horiz-adv-x="803" 
d="M477 1067q-15 0 -21 11.5t-1 27.5l102 289q5 15 14 27t25 12h80q29 0 38.5 -16t-1.5 -36l-160 -284q-6 -13 -16 -22t-21 -9h-39zM137 1067q-15 0 -21 11.5t-1 27.5l102 289q5 15 14.5 27t24.5 12h80q29 0 38.5 -16t-1.5 -36l-160 -284q-6 -13 -16 -22t-21 -9h-39z" />
    <glyph glyph-name="ogonek" unicode="&#x2db;" horiz-adv-x="565" 
d="M408 6q-29 -17 -68 -43.5t-73.5 -62t-58.5 -78t-24 -90.5q0 -51 27.5 -80t77.5 -29q22 0 42.5 6.5t37.5 15.5t30 17.5t19 13.5q11 10 21 7t12 -17l2 -69q2 -14 -3.5 -26.5t-21.5 -23.5q-11 -6 -28.5 -14t-39.5 -15.5t-48 -12.5t-54 -5q-50 0 -88 16t-63.5 43.5t-38.5 65
t-13 80.5q0 61 24 110.5t59.5 87.5t75 66.5t71.5 48.5l123 -12v0z" />
    <glyph glyph-name="caron" unicode="&#x2c7;" horiz-adv-x="764" 
d="M106 1311q-9 6 -14.5 17t2.5 22l29 36q8 11 18 14t29 -9l209 -140l209 144q18 12 28.5 9.5t18.5 -13.5l29 -41q7 -9 4 -18t-10.5 -16.5t-17 -14t-15.5 -11.5l-219 -172q-7 -5 -12.5 -6.5t-14.5 -1.5q-6 0 -13.5 1.5t-13.5 6.5z" />
    <glyph glyph-name="Lslash" unicode="&#x141;" horiz-adv-x="1012" 
d="M197 637l-43 -25q-17 -11 -30.5 -5t-21.5 20l-8 16q-6 12 -2.5 26.5t17.5 22.5l88 49v654q0 15 11 27t28 12h79q16 0 27.5 -12t11.5 -27v-561l228 131q15 9 31 3.5t22 -18.5l6 -12q8 -14 4 -29t-18 -24l-273 -156v-592h590q17 0 28 -11.5t11 -27.5v-59q0 -16 -11 -27.5
t-28 -11.5h-708q-17 0 -28 11.5t-11 27.5v598z" />
    <glyph glyph-name="lslash" unicode="&#x142;" horiz-adv-x="594" 
d="M190 655l-98 -55q-12 -8 -27.5 -4t-23.5 18l-6 13q-8 12 -5 28t17 25l143 82v627q0 17 13.5 31t32.5 14h61q17 0 31 -14t14 -31v-539l178 102q16 10 30.5 4t22.5 -18l7 -12q8 -14 3.5 -29t-18.5 -25l-223 -129v-698q0 -19 -14 -32t-31 -13h-61q-19 0 -32.5 13t-13.5 32
v610z" />
    <glyph glyph-name="Scaron" unicode="&#x160;" horiz-adv-x="1090" 
d="M129 145q-6 6 -12.5 12t-10 14.5t-2 19t12.5 24.5l30 39q16 20 30 25.5t36 -13.5q5 -5 35 -28.5t78 -50.5t109.5 -48.5t129.5 -21.5q62 0 113 18.5t87 50t55.5 74t19.5 90.5q0 53 -23 96t-68 81t-112.5 73.5t-155.5 73.5q-84 36 -151 72.5t-113.5 83.5t-71 109.5
t-24.5 150.5q0 35 9.5 75.5t31 81t55.5 78t82.5 66t112 46t145.5 17.5q75 0 139 -16t111 -36q55 -23 100 -52q5 -3 10.5 -8.5t9 -14.5t2.5 -20.5t-9 -26.5l-21 -35q-12 -21 -29.5 -22.5t-42.5 12.5q-32 19 -62.5 34.5t-62.5 26t-68 16t-79 5.5q-81 0 -135.5 -23t-87.5 -57
t-46.5 -73.5t-13.5 -71.5q0 -55 19 -95.5t55 -73t87 -59t116 -53.5q103 -42 187.5 -85t143.5 -95.5t91.5 -119t32.5 -155.5q0 -80 -35.5 -148.5t-96 -119t-141 -79.5t-170.5 -29q-91 0 -166 22.5t-130.5 51t-90.5 55.5t-45 36zM559 1573q-6 0 -13 1.5t-14 6.5l-245 193
q-10 6 -15.5 16.5t2.5 21.5l29 37q8 11 18.5 14t28.5 -10l209 -139l209 144q19 12 29 9t18 -14l29 -41q7 -9 4 -17.5t-10.5 -16.5t-17 -14.5t-15.5 -10.5l-219 -172q-11 -8 -27 -8z" />
    <glyph glyph-name="scaron" unicode="&#x161;" horiz-adv-x="831" 
d="M424 -23q-59 0 -108.5 11.5t-89 29t-68.5 37.5t-47 37q-8 8 -10.5 18.5t3.5 22.5l29 53q9 17 22 22t33 -9q12 -9 33.5 -23.5t51.5 -28t68 -23t83 -9.5q72 0 117 31.5t45 86.5q0 34 -13.5 59t-40.5 47t-66.5 42.5t-90.5 46.5q-47 23 -95 48.5t-86.5 59t-63 78t-24.5 105.5
q0 37 15 80t49.5 80.5t90.5 62.5t138 25q46 0 88 -7t77 -17.5t62 -24t44 -25.5q31 -24 10 -64l-21 -38q-11 -20 -30.5 -23t-34.5 6q-31 19 -80 37t-115 18q-39 0 -65.5 -10t-43 -25t-23.5 -33.5t-7 -35.5q0 -32 12 -54.5t35 -41t56.5 -35.5t76.5 -37q61 -29 116.5 -56.5
t97.5 -62t66.5 -80.5t24.5 -110q0 -56 -23 -105.5t-65.5 -86.5t-101.5 -58t-131 -21zM156 1311q-10 6 -15.5 17t2.5 22l29 36q8 11 18.5 14t28.5 -9l209 -140l209 144q19 12 29 9.5t18 -13.5l29 -41q7 -9 4 -18t-10.5 -16.5t-17 -14t-15.5 -11.5l-219 -172q-7 -5 -12.5 -6.5
t-14.5 -1.5q-6 0 -13 1.5t-14 6.5z" />
    <glyph glyph-name="Zcaron" unicode="&#x17d;" horiz-adv-x="1081" 
d="M55 55q0 20 11 39l733 1190v6h-645q-16 0 -27.5 12t-11.5 27v66q0 15 11.5 27t27.5 12h829q16 0 27.5 -12t11.5 -27v-6q0 -11 -2.5 -20.5t-7.5 -18.5l-746 -1205v-2h676q17 0 28 -11.5t11 -27.5v-65q0 -16 -11 -27.5t-28 -11.5h-848q-15 0 -27 11.5t-12 27.5v16z
M578 1573q-16 0 -27 8l-246 193q-9 6 -14.5 16.5t2.5 21.5l29 37q8 11 18 14t29 -10l209 -139l208 144q19 12 29.5 9t18.5 -14l28 -41q7 -9 4 -17.5t-10.5 -16.5t-17 -14.5t-15.5 -10.5l-219 -172q-6 -5 -11.5 -6.5t-14.5 -1.5z" />
    <glyph glyph-name="zcaron" unicode="&#x17e;" horiz-adv-x="848" 
d="M78 49q0 19 12 37l479 725v6h-428q-17 0 -28 13.5t-11 31.5v39q0 20 11 32.5t28 12.5h600q23 0 33 -11t10 -30q0 -13 -8 -24l-483 -746v-6h395q45 0 45 -45v-39q0 -19 -11.5 -32t-33.5 -13h-565q-19 0 -32 13t-13 32v4zM166 1311q-9 6 -14.5 17t2.5 22l28 36
q8 11 18.5 14t28.5 -9l209 -140l209 144q19 12 29 9.5t18 -13.5l29 -41q7 -9 4 -18t-10.5 -16.5t-17 -14t-15.5 -11.5l-219 -172q-6 -5 -11.5 -6.5t-15.5 -1.5q-6 0 -13 1.5t-13 6.5z" />
    <glyph glyph-name="brokenbar" unicode="&#xa6;" horiz-adv-x="430" 
d="M209 805q-16 0 -27.5 10.5t-11.5 26.5v676q0 17 11.5 27.5t27.5 10.5h14q16 0 26.5 -10.5t10.5 -27.5v-676q0 -16 -11.5 -26.5t-27.5 -10.5h-12zM170 227q0 17 11.5 28t27.5 11h14q16 0 26.5 -11t10.5 -28v-678q0 -15 -11.5 -25.5t-27.5 -10.5h-12q-16 0 -27.5 10.5
t-11.5 25.5v678z" />
    <glyph glyph-name="Eth" unicode="&#xd0;" horiz-adv-x="1478" 
d="M32 864h131v604h563q365 0 531 -249q121 -185 121 -459q0 -246 -93 -436q-155 -324 -528 -324h-594v686h-131v178zM364 864h420v-178h-420v-516h354q102 0 168 20q115 39 188 152q60 88 86 227q15 82 15 154q0 272 -108.5 423.5t-350.5 151.5h-352v-434z" />
    <glyph glyph-name="eth" unicode="&#xf0;" horiz-adv-x="1182" 
d="M102 463q0 105 37.5 189.5t100 144t145 91.5t172.5 32q68 0 125.5 -15t101.5 -33q50 -21 93 -47q-14 54 -41.5 104.5t-63.5 96.5t-78.5 86.5t-87.5 75.5l-205 -119q-14 -8 -29.5 -3t-21.5 17l-8 17q-9 12 -5.5 27.5t17.5 23.5l168 98q-80 51 -130.5 75.5t-78.5 35.5
q-34 14 -16 51l27 57q5 11 17 15.5t26 -0.5q46 -17 123.5 -55t166.5 -101l148 84q17 9 32 4.5t23 -18.5l8 -15q8 -14 4 -29t-18 -24l-115 -65q63 -55 121 -123.5t103 -153.5t71.5 -186t26.5 -221q0 -126 -29 -235.5t-89 -190.5t-153 -127.5t-221 -46.5q-103 0 -188.5 38
t-147.5 103.5t-96.5 153.5t-34.5 188zM252 453q0 -68 24.5 -128.5t67 -106.5t100.5 -72.5t125 -26.5q93 0 158.5 39.5t106.5 102t60 139t19 151.5q0 25 -2.5 48t-5.5 46q-41 38 -93 68q-45 26 -106 47.5t-135 21.5q-67 0 -125 -25.5t-101 -70t-68 -104.5t-25 -129z" />
    <glyph glyph-name="Yacute" unicode="&#xdd;" horiz-adv-x="1171" 
d="M494 672l-504 872h221l379 -659l379 659h221l-504 -872v-672h-192v672zM738 1995l153 -82l-303 -275l-41 72z" />
    <glyph glyph-name="yacute" unicode="&#xfd;" horiz-adv-x="989" 
d="M414 164l-438 794h215l324 -608l301 608h207l-777 -1507h-209zM666 1403l152 -82l-303 -270l-39 69z" />
    <glyph glyph-name="Thorn" unicode="&#xde;" horiz-adv-x="1214" 
d="M197 1393q0 15 11 28t28 13h77q16 0 27.5 -12t11.5 -27v-219h336q94 0 178 -36t146 -97.5t98.5 -144t36.5 -175.5q0 -95 -36.5 -179t-98.5 -146.5t-145 -99t-177 -36.5h-338v-223q0 -16 -11.5 -27.5t-27.5 -11.5h-77q-17 0 -28 11.5t-11 27.5v1354zM678 414
q63 0 119.5 24t99 66.5t67.5 99.5t25 123q0 62 -25 115.5t-67.5 93t-99 62t-119.5 22.5h-326v-606h326z" />
    <glyph glyph-name="thorn" unicode="&#xfe;" horiz-adv-x="1118" 
d="M309 -442q0 -19 -14 -32t-31 -13h-59q-19 0 -32 13t-13 32v1831q0 17 13 31t32 14h59q17 0 31 -14t14 -31v-512q31 25 71 45q35 17 84.5 31t113.5 14q102 0 183.5 -39.5t138.5 -107t87.5 -158t30.5 -191.5q0 -104 -33.5 -194.5t-92.5 -157t-141.5 -104.5t-179.5 -38
q-60 0 -107.5 12t-82.5 27q-40 17 -72 39v-497zM309 201q32 -25 71 -43q33 -17 76 -30t93 -13q68 0 126 25t100 71.5t65.5 113t23.5 148.5q0 69 -19 133t-57 113.5t-95 79.5t-134 30q-57 0 -103 -18t-79 -40q-39 -26 -68 -58v-512z" />
    <glyph glyph-name="minus" unicode="&#x2212;" horiz-adv-x="1229" 
d="M225 643q-15 0 -27 12t-12 27v57q0 16 12 27.5t27 11.5h781q15 0 25.5 -11.5t10.5 -27.5v-57q0 -15 -10.5 -27t-25.5 -12h-781v0z" />
    <glyph glyph-name="multiply" unicode="&#xd7;" horiz-adv-x="1229" 
d="M291 430q-11 11 -11 26.5t11 26.5l227 228l-227 227q-11 11 -11 27.5t11 27.5l39 41q11 11 27.5 11t27.5 -11l227 -227l230 229q11 11 26.5 10t26.5 -12l41 -41q11 -11 12 -26.5t-10 -26.5l-229 -229l229 -228q11 -12 10 -28t-12 -27l-41 -39q-11 -11 -26.5 -12t-26.5 10
l-230 229l-227 -227q-11 -11 -26.5 -11t-26.5 11z" />
    <glyph glyph-name="onesuperior" unicode="&#xb9;" horiz-adv-x="377" 
d="M186 1032q-20 0 -20 19v430l-84 -23q-8 -2 -13.5 0t-7.5 8l-10 35q-2 8 -1 12.5t7 10.5l144 114h57q9 0 13.5 -5t4.5 -13v-569q0 -8 -5 -13.5t-13 -5.5h-72v0z" />
    <glyph glyph-name="twosuperior" unicode="&#xb2;" horiz-adv-x="586" 
d="M88 1032q-8 0 -14 4t-6 15v28l260 273q31 34 48 60.5t17 53.5q0 16 -6.5 33t-20.5 31.5t-36.5 23.5t-53.5 9q-34 0 -68 -18.5t-58 -43.5q-8 -8 -15 -5.5t-10 5.5l-41 43q-5 5 -5.5 11.5t5.5 11.5q23 26 54 46q26 17 62.5 31.5t82.5 14.5q55 0 96.5 -14.5t69 -39t41.5 -58
t14 -70.5q0 -50 -28 -94t-73 -91l-165 -170h247q19 0 19 -20v-51q0 -7 -3 -13t-16 -6h-397v0z" />
    <glyph glyph-name="threesuperior" unicode="&#xb3;" horiz-adv-x="592" 
d="M281 1012q-48 0 -83.5 9.5t-61 23t-42 28t-24.5 23.5q-5 5 -5 11t7 11l43 41q15 9 26 -2q2 -2 14 -10t30 -18t41.5 -17.5t49.5 -7.5q24 0 46 6.5t39.5 18.5t27.5 29t10 38q0 19 -8.5 37t-27 31.5t-46.5 21.5t-67 8h-64q-8 0 -14 4.5t-6 14.5v51q0 18 20 18h64
q69 0 101 26.5t32 64.5q0 21 -9 38t-24.5 29t-35.5 18.5t-42 6.5q-44 0 -71.5 -17t-42.5 -32q-5 -5 -12 -6t-15 6l-41 36q-6 5 -6 12.5t6 12.5q23 23 53 41q26 15 60.5 28t77.5 13q44 0 83 -12t68.5 -34t46.5 -53.5t17 -70.5q0 -26 -8 -49t-21.5 -42t-30.5 -32t-35 -20v-5
q19 -7 39 -20.5t36.5 -33t27 -44.5t10.5 -55q0 -38 -16.5 -70t-47 -55.5t-73.5 -37t-96 -13.5z" />
    <glyph glyph-name="onehalf" unicode="&#xbd;" horiz-adv-x="1278" 
d="M905 1413q12 21 35 21h33q23 0 34 -18t1 -38l-707 -1358q-3 -6 -12 -13t-23 -7h-28q-12 0 -21 5t-14 13t-5.5 17.5t5.5 19.5zM231 827q-9 0 -14.5 5.5t-5.5 13.5v430l-84 -23q-17 -3 -21 9l-10 34q-2 8 -1 12.5t7 10.5l144 115h57q9 0 14 -5.5t5 -13.5v-569
q0 -8 -5.5 -13.5t-13.5 -5.5h-72zM729 47l260 272q31 35 48.5 61t17.5 54q0 16 -6.5 33t-20.5 31t-36.5 23t-53.5 9q-34 0 -68 -18t-59 -43q-8 -8 -14.5 -5.5t-10.5 5.5l-41 43q-5 5 -5.5 11.5t5.5 11.5q23 26 54 46q26 17 62.5 31.5t82.5 14.5q55 0 96.5 -14.5t69.5 -39
t41.5 -58t13.5 -71.5q0 -49 -27.5 -93t-72.5 -91l-166 -170h248q18 0 18 -20v-52q0 -6 -3 -12t-15 -6h-397q-8 0 -14.5 3.5t-6.5 14.5v29z" />
    <glyph glyph-name="onequarter" unicode="&#xbc;" horiz-adv-x="1298" 
d="M905 1413q12 21 35 21h33q23 0 34 -18t1 -38l-707 -1358q-3 -6 -12 -13t-23 -7h-28q-12 0 -21 5t-14 13t-5.5 17.5t5.5 19.5zM231 827q-9 0 -14.5 5.5t-5.5 13.5v430l-84 -23q-17 -3 -21 9l-10 34q-2 8 -1 12.5t7 10.5l144 115h57q9 0 14 -5.5t5 -13.5v-569
q0 -8 -5.5 -13.5t-13.5 -5.5h-72zM668 205l346 395q3 3 8 4.5t8 1.5h49q8 0 14.5 -5t6.5 -13v-379h84q8 0 13 -5t5 -11v-54q0 -6 -5 -11t-13 -5h-84v-105q0 -8 -6.5 -13t-14.5 -5h-65q-8 0 -14.5 5t-6.5 13v103h-307q-8 0 -13 5t-5 13v66zM997 211v242l-217 -242h217z" />
    <glyph glyph-name="threequarters" unicode="&#xbe;" horiz-adv-x="1389" 
d="M319 807q-47 0 -83 9.5t-61.5 23t-41.5 28t-24 23.5q-5 5 -5 11t7 11l43 41q15 10 26 -2q2 -2 14 -10t30 -18t41.5 -17.5t49.5 -7.5q24 0 46 6.5t39.5 18.5t27.5 29t10 38q0 19 -8.5 37t-27 31.5t-46.5 22t-67 8.5h-64q-8 0 -14 4.5t-6 13.5v51q0 19 20 19h64
q69 0 101 26.5t32 63.5q0 21 -9 38t-24.5 29t-35.5 18.5t-42 6.5q-44 0 -71.5 -17t-42.5 -32q-5 -5 -12 -5.5t-15 5.5l-41 37q-6 5 -6 12t6 12q23 23 53 41q25 15 60 28t77 13q45 0 84 -12t68.5 -34t46.5 -53.5t17 -70.5q0 -26 -9 -49.5t-23 -42.5t-31.5 -32.5t-35.5 -20.5
v-4q18 -7 39 -20.5t38 -32.5t28.5 -44t11.5 -55q0 -38 -16.5 -70t-47 -55.5t-74 -37t-96.5 -13.5zM995 1413q13 21 35 21h33q23 0 34 -18t1 -38l-707 -1358q-3 -6 -12 -13t-23 -7h-28q-23 0 -34.5 17.5t-0.5 37.5zM758 205l346 395q3 3 8 4.5t8 1.5h49q8 0 14.5 -5t6.5 -13
v-379h84q8 0 13 -5t5 -11v-54q0 -6 -5 -11t-13 -5h-84v-105q0 -8 -6.5 -13t-14.5 -5h-65q-8 0 -14.5 5t-6.5 13v103h-307q-8 0 -13 5t-5 13v66zM1087 211v242l-217 -242h217z" />
    <glyph glyph-name="franc" unicode="&#x20a3;" horiz-adv-x="1000" 
d="M600 278h-244v-278h-168v278h-160v156h160v1000h728v-152h-560v-496h518v-151h-518v-201h244v-156z" />
    <glyph glyph-name="Gbreve" unicode="&#x11e;" horiz-adv-x="1503" 
d="M106 715q0 102 26.5 196.5t74.5 176.5t115.5 149.5t149.5 115.5t176.5 74.5t197.5 26.5q78 0 145.5 -13t127.5 -37.5t115 -60t107 -79.5q13 -13 14 -29t-12 -29q-14 -14 -29 -28.5t-28 -28.5q-14 -16 -25 -15t-28 17q-39 34 -85.5 63.5t-97 51t-103 33.5t-103.5 12
q-81 0 -154.5 -21.5t-137 -60.5t-115 -93t-88 -119.5t-56 -140t-19.5 -153.5q0 -118 43.5 -225.5t120 -189t180.5 -129.5t226 -48q85 0 152.5 13t115.5 30q56 18 100 43v287h-235q-17 0 -28 10.5t-11 26.5v75q0 17 11 28t28 11h354q16 0 26.5 -11.5t10.5 -27.5v-469
q0 -8 -5 -17.5t-11 -14.5q-64 -38 -142 -68q-67 -26 -159.5 -46.5t-204.5 -20.5q-103 0 -197.5 26t-176.5 73.5t-149.5 114.5t-115.5 148.5t-74.5 175.5t-26.5 197zM846 1579q-54 0 -101.5 17.5t-84 49t-60.5 74t-31 92.5q-3 17 3.5 29t25.5 12h43q17 0 25.5 -10t13.5 -24
q17 -59 60.5 -95t105.5 -36q28 0 54 10.5t47 28t36.5 41.5t24.5 51q12 34 39 34h47q17 0 24 -12t4 -29q-8 -50 -32.5 -92.5t-61 -74t-83 -49t-99.5 -17.5z" />
    <glyph glyph-name="gbreve" unicode="&#x11f;" horiz-adv-x="1120" 
d="M588 1087q-54 0 -101.5 18t-84 49.5t-60.5 74t-31 92.5q-3 17 3.5 29t25.5 12h43q17 0 25.5 -10.5t13.5 -24.5q17 -59 60.5 -95t105.5 -36q28 0 54 10.5t47 28t36.5 41.5t24.5 51q12 35 38 35h48q17 0 24 -12t4 -29q-8 -50 -32.5 -92.5t-61 -74t-83 -49.5t-99.5 -18z
M254 475q0 -77 24 -142.5t66 -113.5t99.5 -75t125.5 -27q49 0 92.5 12t76.5 27q39 17 71 39v518q-29 31 -67 57q-32 21 -78.5 39t-104.5 18q-71 0 -127 -29t-96 -78t-61 -112.5t-21 -132.5zM961 -6q0 -122 -34.5 -206t-92 -137t-132 -76.5t-155.5 -23.5q-56 0 -108 13
t-95 31.5t-76 40t-51 38.5q-12 11 -15 28t5 28l41 59q11 17 27.5 17.5t33.5 -15.5q19 -16 44 -33.5t55 -32.5t65 -24.5t74 -9.5q56 0 104 16.5t83.5 52.5t56 93.5t20.5 140.5v67q-33 -24 -73 -42q-35 -16 -82.5 -29t-106.5 -13q-98 0 -180 38.5t-142 106t-93.5 157.5
t-33.5 194q0 101 33 191t92 157.5t140 106.5t178 39q64 0 116 -15.5t89 -33.5q43 -21 77 -48l15 43q8 14 17 23.5t28 9.5h28q19 0 33.5 -14t14.5 -31v-907z" />
    <glyph glyph-name="Idotaccent" unicode="&#x130;" horiz-adv-x="553" 
d="M197 1395q0 15 11.5 27t27.5 12h81q16 0 27.5 -12t11.5 -27v-1356q0 -16 -11.5 -27.5t-27.5 -11.5h-81q-16 0 -27.5 11.5t-11.5 27.5v1356zM276 1634q-23 0 -43 9t-35 24.5t-23.5 35.5t-8.5 42q0 24 8.5 45t23.5 36.5t35 24.5t43 9q24 0 44.5 -9t36 -24.5t24 -36.5
t8.5 -45q0 -22 -8.5 -42t-24 -35.5t-36 -24.5t-44.5 -9z" />
    <glyph glyph-name="Scedilla" unicode="&#x15e;" horiz-adv-x="1090" 
d="M129 145l-12 12t-9 14t-1.5 18.5t10.5 25.5l30 39q16 20 33 28.5t39 -10.5q5 -5 34 -29.5t75.5 -52.5t107.5 -50.5t129 -22.5q62 0 113 18t87 49t55.5 72t19.5 86q0 53 -23 96t-68 81t-112.5 73.5t-155.5 73.5q-84 36 -151 74t-113.5 86.5t-71 112t-24.5 151.5
q0 35 9.5 75.5t31 81t55.5 78t82.5 66t112 46t145.5 17.5q75 0 139 -16t111 -36q55 -23 100 -52q5 -3 11 -8.5t9.5 -14.5t2.5 -20.5t-10 -26.5l-25 -39q-14 -22 -30.5 -27t-41.5 9l-30 18t-62.5 32t-83 30.5t-92.5 13.5q-81 0 -135.5 -23t-87.5 -57t-46.5 -73.5t-13.5 -71.5
q0 -52 19 -93.5t55 -76t87 -63.5t116 -56q103 -42 187.5 -85t143.5 -95.5t91.5 -119t32.5 -155.5q0 -78 -33.5 -143.5t-90.5 -114.5t-133 -77.5t-161 -32.5l-76 -117q9 3 22.5 5.5t28.5 2.5q32 0 64.5 -9.5t58 -29.5t41.5 -52.5t16 -78.5q0 -44 -19 -79.5t-51 -61t-74 -39
t-87 -13.5q-57 0 -99.5 16.5t-68.5 41.5q-9 9 -7.5 19.5t7.5 23.5l16 31q16 28 43 10q16 -16 42 -28.5t61 -12.5q52 0 83 21t31 63q0 47 -30.5 65.5t-77.5 18.5q-28 0 -55.5 -6.5t-42.5 -14.5q-6 -2 -11.5 0t-9 6t-5 10t0.5 11l98 203q-75 8 -137 31t-107.5 48.5t-74 48.5
t-37.5 31z" />
    <glyph glyph-name="scedilla" unicode="&#x15f;" horiz-adv-x="831" 
d="M745 248q0 -55 -22 -103t-62 -84.5t-96 -58.5t-125 -25l-73 -114q9 3 22 5.5t29 2.5q32 0 64 -9.5t57.5 -29.5t41 -52.5t15.5 -78.5q0 -44 -19 -79.5t-50.5 -61t-73 -39t-86.5 -13.5q-57 0 -99.5 16.5t-68.5 41.5q-10 9 -8.5 19.5t8.5 23.5l16 31q14 29 43 10
q16 -16 41.5 -28.5t60.5 -12.5q53 0 84 21t31 63q0 47 -30.5 65.5t-77.5 18.5q-28 0 -55.5 -6.5t-43.5 -14.5q-5 -2 -10.5 0t-9 6t-5 10t0.5 11l96 201q-42 6 -76 17t-61.5 24.5t-49 28.5t-36.5 28q-8 8 -13.5 23.5t0.5 27.5l29 53q9 17 27.5 20t38.5 -11q12 -9 31.5 -23
t47.5 -26.5t64.5 -21.5t81.5 -9q72 0 117 31.5t45 86.5q0 34 -13.5 59t-40.5 47t-66.5 42.5t-90.5 46.5q-47 23 -95 48.5t-86.5 59t-63 78t-24.5 105.5q0 37 15 80t49.5 80.5t90.5 62.5t138 25q93 0 161.5 -22.5t103.5 -47.5q15 -12 21 -30t-5 -38l-21 -38
q-11 -20 -30.5 -23t-34.5 6q-31 19 -80 37t-115 18q-39 0 -65.5 -10t-43 -24.5t-23.5 -31.5t-7 -32q0 -34 12 -58t35 -43t56.5 -36t76.5 -37q61 -29 116.5 -56.5t97.5 -62t66.5 -80.5t24.5 -110z" />
    <glyph glyph-name="Cacute" unicode="&#x106;" horiz-adv-x="1446" 
d="M106 715q0 102 26.5 196.5t74.5 176.5t115.5 149.5t149.5 115.5t176.5 74.5t197.5 26.5q78 0 145.5 -13t127.5 -37.5t115 -60t107 -79.5q13 -13 14 -29t-12 -29l-55 -55q-12 -16 -25 -14.5t-28 16.5q-81 69 -180 111.5t-211 42.5q-122 0 -226.5 -47.5t-181 -128.5
t-120.5 -188t-44 -226q0 -79 20 -153.5t56.5 -139.5t88 -119.5t115 -93.5t137.5 -60.5t155 -21.5q67 0 121 11t100.5 31t87.5 48.5t82 63.5q28 23 53 -2l47 -48q13 -9 11 -26.5t-13 -28.5q-102 -93 -226 -145.5t-261 -52.5q-103 0 -197.5 26t-176.5 73.5t-149.5 114.5
t-115.5 148.5t-74.5 175.5t-26.5 197zM659 1649q-6 12 -1.5 23t14.5 16l307 172q4 3 11.5 5t15.5 1.5t15 -3.5t11 -10l37 -73q6 -13 3 -25.5t-15 -17.5l-330 -138q-22 -9 -31.5 -8.5t-15.5 13.5z" />
    <glyph glyph-name="cacute" unicode="&#x107;" horiz-adv-x="1024" 
d="M98 471q0 105 36.5 195.5t100.5 157t152 105t191 38.5q106 0 192 -40.5t152 -115.5q14 -17 11 -35.5t-20 -32.5l-32 -30q-12 -10 -21.5 -12t-17.5 1.5t-15 10t-14 14.5q-49 56 -107 79t-131 23q-68 0 -126.5 -28t-102.5 -76t-69 -113t-25 -139q0 -75 25 -140.5t67.5 -114
t100.5 -76t124 -27.5q54 0 93.5 12.5t69.5 32t52.5 43.5t42.5 47t40 19.5t40 -23.5l13 -13q15 -15 19.5 -30.5t-7.5 -34.5q-27 -39 -64 -74t-82.5 -61t-98.5 -41t-112 -15q-105 0 -192.5 37t-151 103t-98.5 156.5t-35 197.5zM383 1194q-6 12 -1.5 23t13.5 16l307 172
q10 6 28 6.5t26 -12.5l37 -74q6 -12 3 -25t-16 -18l-329 -137q-22 -9 -31.5 -8.5t-16.5 12.5z" />
    <glyph glyph-name="Ccaron" unicode="&#x10c;" horiz-adv-x="1446" 
d="M106 715q0 102 26.5 196.5t74.5 176.5t115.5 149.5t149.5 115.5t176.5 74.5t197.5 26.5q78 0 145.5 -13t127.5 -37.5t115 -60t107 -79.5q13 -13 14 -29t-12 -29l-55 -55q-12 -16 -25 -14.5t-28 16.5q-81 69 -180 111.5t-211 42.5q-122 0 -226.5 -47.5t-181 -128.5
t-120.5 -188t-44 -226q0 -79 20 -153.5t56.5 -139.5t88 -119.5t115 -93.5t137.5 -60.5t155 -21.5q67 0 121 11t100.5 31t87.5 48.5t82 63.5q28 23 53 -2l47 -48q13 -9 11 -26.5t-13 -28.5q-102 -93 -226 -145.5t-261 -52.5q-103 0 -197.5 26t-176.5 73.5t-149.5 114.5
t-115.5 148.5t-74.5 175.5t-26.5 197zM844 1573q-6 0 -13.5 1.5t-13.5 6.5l-246 193q-9 6 -14.5 16.5t2.5 21.5l29 37q8 11 18 14t29 -10l209 -139l209 144q18 12 28.5 9t18.5 -14l28 -41q7 -9 4.5 -17.5t-10 -16.5t-17 -14.5t-15.5 -10.5l-220 -172q-6 -5 -11.5 -6.5
t-14.5 -1.5z" />
    <glyph glyph-name="ccaron" unicode="&#x10d;" horiz-adv-x="1024" 
d="M98 471q0 105 36.5 195.5t100.5 157t152 105t191 38.5q106 0 192 -40.5t152 -115.5q14 -17 11 -35.5t-20 -32.5l-32 -30q-12 -10 -21.5 -12t-17.5 1.5t-15 10t-14 14.5q-49 56 -107 79t-131 23q-68 0 -126.5 -28t-102.5 -76t-69 -113t-25 -139q0 -75 25 -140.5t67.5 -114
t100.5 -76t124 -27.5q54 0 93.5 12.5t69.5 32t52.5 43.5t42.5 47t40 19.5t40 -23.5l13 -13q15 -15 19.5 -30.5t-7.5 -34.5q-27 -39 -64 -74t-82.5 -61t-98.5 -41t-112 -15q-105 0 -192.5 37t-151 103t-98.5 156.5t-35 197.5zM303 1311q-9 6 -14.5 17t2.5 22l28 36
q8 11 18.5 14t29.5 -9l208 -140l209 144q19 12 29 9.5t18 -13.5l29 -41q7 -9 4 -18t-10.5 -16.5t-17 -14t-15.5 -11.5l-219 -172q-6 -5 -11.5 -6.5t-15.5 -1.5q-6 0 -13 1.5t-13 6.5z" />
    <glyph glyph-name="dcroat" unicode="&#x111;" horiz-adv-x="1064" 
d="M538 131q146 0 232 102q80 99 80 246q0 148 -82 242q-86 102 -230 102q-139 0 -221 -101t-82 -243q0 -145 78 -241q84 -107 225 -107zM1024 1245v-1245h-185v150h-4q-122 -183 -325 -183q-213 0 -340 156q-119 143 -119 362q0 207 119 351q129 151 332 151
q208 0 333 -188h4v446h-294v156h294v377h185v-377h174v-156h-174z" />
    <glyph glyph-name="overscore.001" horiz-adv-x="1317" 
d="M1322 1603h-1327v101h1327v-101z" />
    <glyph glyph-name="middot.001" horiz-adv-x="572" 
d="M125 559q0 27 10.5 51.5t28.5 42.5t42 28.5t52 10.5t53 -10.5t43 -28.5t28.5 -42.5t10.5 -51.5q0 -28 -10.5 -53t-28.5 -44t-43 -30t-53 -11t-52 11t-42 30t-28.5 44t-10.5 53z" />
    <glyph glyph-name="Abreve" unicode="&#x102;" horiz-adv-x="1437" 
d="M1078 387h-709l-176 -387h-207l737 1610l738 -1610h-207zM998 563l-275 625l-274 -625h549zM449 1890h106q47 -112 168 -112t168 112h107q-19 -102 -93.5 -156.5t-181.5 -54.5q-104 0 -180 55.5t-94 155.5z" />
    <glyph glyph-name="abreve" unicode="&#x103;" horiz-adv-x="1136" 
d="M538 131q148 0 232 102q80 97 80 246q0 146 -84 245t-228 99q-139 0 -223 -104q-80 -96 -80 -240q0 -145 78 -241q84 -107 225 -107zM1024 958v-958h-185v150h-4q-122 -183 -325 -183q-213 0 -340 156q-119 143 -119 362q0 209 121 351q127 151 332 151q206 0 331 -188h4
v159h185zM229 1300h107q47 -112 168 -112q120 0 168 112h106q-18 -102 -93 -156t-181 -54q-105 0 -180.5 55t-94.5 155z" />
    <glyph glyph-name="Aogonek" unicode="&#x104;" horiz-adv-x="1362" 
d="M49 0q-23 0 -33.5 16.5t-1.5 36.5l623 1379q5 9 13 15.5t22 6.5h20q14 0 22 -6.5t13 -15.5l614 -1369q13 -27 3.5 -41.5t-35.5 -25.5q-32 -13 -69 -38.5t-68.5 -60.5t-52.5 -77t-21 -88q0 -51 27.5 -80t76.5 -29q22 0 43 6.5t38 15.5t29.5 17.5t18.5 13.5q11 10 21 7
t12 -17l2 -69q2 -14 -3.5 -26.5t-21.5 -23.5q-11 -6 -28 -14t-39.5 -15.5t-48.5 -12.5t-54 -5q-50 0 -87.5 16t-63 43.5t-38.5 65t-13 80.5q0 61 23.5 111t57.5 89t73 67.5t71 47.5q-1 1 -1.5 2.5t-5 11t-13.5 30t-25.5 58t-42.5 95.5t-64 143h-727l-149 -337
q-3 -8 -12 -15.5t-23 -7.5h-82zM987 487l-299 672h-16l-299 -672h614z" />
    <glyph glyph-name="aogonek" unicode="&#x105;" horiz-adv-x="965" 
d="M86 287q0 67 25 124.5t73 99.5t118.5 65.5t162.5 23.5q38 0 74 -5t65 -11q33 -7 64 -15q1 65 -4.5 114t-22 81.5t-47.5 48.5t-82 16q-48 0 -92 -6.5t-80.5 -15.5t-64.5 -18.5t-44 -14.5q-18 -8 -28 0t-17 25l-20 55q-6 22 3 32.5t26 18.5q18 8 49 18.5t73 20.5t93.5 16.5
t109.5 6.5q91 0 148 -23t89 -71.5t44 -123.5t12 -180v-524q0 -15 -10.5 -26t-24.5 -19q-30 -17 -67 -43.5t-69.5 -60.5t-54.5 -75.5t-22 -88.5q0 -51 27.5 -80t77.5 -29q22 0 42.5 6.5t37.5 15.5t30 17.5t19 13.5q11 10 20.5 7t11.5 -17l3 -69q3 -29 -25 -50
q-11 -6 -28.5 -14t-39.5 -15.5t-48 -12.5t-54 -5q-50 0 -88 16t-63.5 43.5t-38.5 65t-13 80.5q0 60 27.5 111t67 92t83.5 72t76 51l-18 67q-18 -18 -46 -39.5t-64.5 -39.5t-82.5 -30t-100 -12q-62 0 -115.5 21.5t-93 62t-62 97.5t-22.5 129zM236 287q0 -36 12 -67.5t34 -55
t53.5 -36.5t70.5 -13q43 0 83.5 11t74.5 29t60.5 41t41.5 46v192q-23 13 -76.5 25t-124.5 12q-49 0 -91 -11.5t-72.5 -35t-48 -58t-17.5 -79.5z" />
    <glyph glyph-name="Dcaron" unicode="&#x10e;" horiz-adv-x="1520" 
d="M197 1395q0 15 10.5 27t25.5 12h459q99 0 190.5 -25.5t171.5 -72.5t145.5 -112.5t112.5 -144.5t73 -170.5t26 -189.5q0 -99 -26 -191t-73 -172t-112.5 -145.5t-145.5 -112.5t-171.5 -72.5t-190.5 -25.5h-459q-15 0 -25.5 11.5t-10.5 27.5v1356zM674 141q126 0 231 43
t180.5 119.5t117.5 182.5t42 233q0 126 -42 231.5t-117.5 182t-180.5 119t-231 42.5h-322v-1153h322zM686 1573q-6 0 -13 1.5t-14 6.5l-245 193q-10 6 -15.5 16.5t2.5 21.5l29 37q8 11 18.5 14t28.5 -10l209 -139l209 144q19 12 29 9t18 -14l29 -41q7 -9 4 -17.5
t-10.5 -16.5t-17 -14.5t-15.5 -10.5l-219 -172q-11 -8 -27 -8z" />
    <glyph glyph-name="dcaron" unicode="&#x10f;" horiz-adv-x="1130" 
d="M100 475q0 104 30 194t87.5 156t141 104t190.5 38q59 0 106.5 -9.5t82.5 -20.5q40 -13 73 -30v482q0 17 13 31t32 14h57q19 0 33.5 -14t14.5 -31v-1344q0 -19 -14.5 -32t-33.5 -13h-36q-16 0 -25.5 11t-15.5 28l-13 61q-37 -35 -83 -62q-40 -23 -94.5 -42t-121.5 -19
q-90 0 -167.5 40t-134.5 108t-89.5 158.5t-32.5 191.5zM254 473q0 -69 21 -133.5t59 -114.5t91 -80t118 -30q64 0 113.5 23t84.5 52q40 33 70 76v510q-33 15 -72 26q-33 10 -77 18.5t-93 8.5q-76 0 -134.5 -29t-98.5 -78t-61 -113.5t-21 -135.5zM1069 1358q0 46 31.5 72
t79.5 26q63 0 102 -44.5t39 -129.5q0 -38 -8 -72t-21.5 -63t-30 -52.5t-34.5 -41.5q-8 -8 -15 -7.5t-16 7.5l-33 24q-11 11 -9.5 19t9.5 16q25 20 42.5 56.5t17.5 76.5q0 29 -11 45q-5 -5 -18.5 -9.5t-32.5 -4.5q-42 0 -67 23.5t-25 58.5z" />
    <glyph glyph-name="Dcroat" unicode="&#x110;" horiz-adv-x="1478" 
d="M32 864h131v604h563q365 0 531 -249q121 -185 121 -459q0 -246 -93 -436q-155 -324 -528 -324h-594v686h-131v178zM364 864h420v-178h-420v-516h354q102 0 168 20q115 39 188 152q60 88 86 227q15 82 15 154q0 272 -108.5 423.5t-350.5 151.5h-352v-434z" />
    <glyph glyph-name="Eogonek" unicode="&#x118;" horiz-adv-x="1180" 
d="M197 1395q0 15 11 27t28 12h806q17 0 28 -12t11 -27v-60q0 -15 -11 -27t-28 -12h-688v-499h588q16 0 27.5 -12t11.5 -27v-60q0 -17 -11.5 -28t-27.5 -11h-588v-522h688q17 0 28 -11.5t11 -27.5v-51q0 -18 -7.5 -28.5t-18.5 -16.5q-30 -18 -67.5 -44.5t-70 -61t-55 -76
t-22.5 -88.5q0 -51 27.5 -80t76.5 -29q22 0 43 6.5t38 15.5t29.5 17.5t18.5 13.5q11 10 21 7t12 -17l2 -69q2 -14 -3.5 -26.5t-21.5 -23.5q-11 -6 -28 -14t-39.5 -15.5t-48.5 -12.5t-54 -5q-50 0 -87.5 16t-63 43.5t-38.5 65t-13 80.5q0 55 19 100.5t48.5 82t65 64
t67.5 48.5h-675q-17 0 -28 11.5t-11 27.5v1356z" />
    <glyph glyph-name="eogonek" unicode="&#x119;" horiz-adv-x="1075" 
d="M100 473q0 100 31.5 189.5t90.5 157t144 107.5t193 40q93 0 171.5 -32.5t135.5 -90t89 -136t32 -171.5q0 -13 -1 -29t-3 -29q-2 -18 -14.5 -29.5t-28.5 -11.5h-688q1 -59 25.5 -117t66 -103.5t97 -74t120.5 -28.5q47 0 85.5 7.5t69.5 18.5t56 25t45 27q12 8 21.5 13.5
t17.5 5.5t16 -6t17 -20l24 -34q7 -11 11.5 -19t4.5 -15t-5.5 -14.5t-18.5 -17.5q-28 -22 -73 -45.5t-107 -40.5q-30 -18 -66.5 -44.5t-69 -61t-54 -75.5t-21.5 -87q0 -51 27.5 -80t76.5 -29q22 0 43 6.5t38 15.5t30 17.5t19 13.5q11 10 20.5 7t11.5 -17l2 -69
q2 -14 -3.5 -26.5t-20.5 -23.5q-11 -6 -28.5 -14t-39.5 -15.5t-48 -12.5t-54 -5q-50 0 -88 16t-63.5 43.5t-38.5 65t-13 80.5q0 48 15 88.5t39 74.5t54 61t60 48q-106 2 -190 42t-142.5 107.5t-89.5 156.5t-31 190zM836 559q-2 52 -22.5 101t-57 86.5t-86.5 60t-111 22.5
q-60 0 -112.5 -21.5t-93 -58t-66.5 -86t-33 -104.5h582z" />
    <glyph glyph-name="Ecaron" unicode="&#x11a;" horiz-adv-x="1180" 
d="M197 1395q0 15 11 27t28 12h806q17 0 28 -12t11 -27v-60q0 -15 -11 -27t-28 -12h-688v-499h588q16 0 27.5 -12t11.5 -27v-60q0 -17 -11.5 -28t-27.5 -11h-588v-522h688q17 0 28 -11.5t11 -27.5v-59q0 -16 -11 -27.5t-28 -11.5h-806q-17 0 -28 11.5t-11 27.5v1356z
M637 1573q-6 0 -13.5 1.5t-13.5 6.5l-245 193q-10 6 -15.5 16.5t2.5 21.5l29 37q8 11 18 14t29 -10l209 -139l209 144q18 12 28.5 9t18.5 -14l29 -41q7 -9 4 -17.5t-10.5 -16.5t-17 -14.5t-15.5 -10.5l-219 -172q-7 -5 -12.5 -6.5t-14.5 -1.5z" />
    <glyph glyph-name="ecaron" unicode="&#x11b;" horiz-adv-x="1075" 
d="M100 473q0 100 31.5 189.5t90.5 157t144 107.5t193 40q93 0 171.5 -32.5t135.5 -90t89 -136t32 -171.5q0 -13 -1 -29t-3 -29q-2 -18 -14.5 -29.5t-28.5 -11.5h-688q1 -59 25.5 -117t66 -103.5t97 -74t120.5 -28.5q47 0 85.5 7.5t69.5 18.5t56 25t45 27q12 8 21.5 13.5
t17.5 5.5t16 -6t17 -20l24 -34q7 -11 11.5 -19t4.5 -15t-5.5 -14.5t-18.5 -17.5q-21 -17 -55 -36t-78 -35.5t-98 -27t-115 -10.5q-108 0 -193 39.5t-144 107t-90.5 158t-31.5 191.5zM836 559q-2 52 -22.5 101t-57 86.5t-86.5 60t-111 22.5q-60 0 -112.5 -21.5t-93 -58
t-66.5 -86t-33 -104.5h582zM285 1311q-10 6 -15.5 17t2.5 22l29 36q8 11 18.5 14t28.5 -9l209 -140l209 144q19 12 29 9.5t18 -13.5l29 -41q7 -9 4 -18t-10.5 -16.5t-17 -14t-15.5 -11.5l-219 -172q-7 -5 -12.5 -6.5t-14.5 -1.5q-6 0 -13 1.5t-14 6.5z" />
    <glyph glyph-name="Lacute" unicode="&#x139;" horiz-adv-x="1012" 
d="M197 1395q0 15 11 27t28 12h79q16 0 27.5 -12t11.5 -27v-1258h590q17 0 28 -11.5t11 -27.5v-59q0 -16 -11 -27.5t-28 -11.5h-708q-17 0 -28 11.5t-11 27.5v1356zM72 1649q-7 12 -2 23t14 16l307 172q4 3 11.5 5t15.5 1.5t15 -3.5t11 -10l37 -73q6 -13 3 -25.5t-15 -17.5
l-330 -138q-21 -9 -31 -8.5t-16 13.5z" />
    <glyph glyph-name="lacute" unicode="&#x13a;" horiz-adv-x="492" 
d="M170 1389q0 17 13 31t32 14h61q17 0 31.5 -14t14.5 -31v-1344q0 -19 -14.5 -32t-31.5 -13h-61q-19 0 -32 13t-13 32v1344zM53 1638q-6 13 -1.5 23.5t14.5 15.5l307 172q4 3 11.5 5.5t15.5 2t15 -3.5t11 -10l37 -74q6 -12 3 -25t-15 -18l-330 -137q-22 -9 -31.5 -8.5
t-15.5 12.5z" />
    <glyph glyph-name="Lcaron" unicode="&#x13d;" horiz-adv-x="1028" 
d="M197 1395q0 15 11 27t28 12h79q16 0 27.5 -12t11.5 -27v-1258h590q17 0 28 -11.5t11 -27.5v-59q0 -16 -11 -27.5t-28 -11.5h-708q-17 0 -28 11.5t-11 27.5v1356zM684 1356q0 46 31.5 72t79.5 26q63 0 102 -44.5t39 -129.5q0 -38 -8 -72t-21.5 -63t-30 -52.5t-34.5 -41.5
q-8 -8 -15 -7.5t-16 7.5l-33 24q-11 11 -9.5 19t9.5 16q25 20 42.5 56.5t17.5 76.5q0 29 -11 45q-5 -5 -18.5 -9.5t-32.5 -4.5q-42 0 -67 23.5t-25 58.5z" />
    <glyph glyph-name="lcaron" unicode="&#x13e;" horiz-adv-x="492" 
d="M170 1389q0 17 13 31t32 14h61q17 0 31.5 -14t14.5 -31v-1344q0 -19 -14.5 -32t-31.5 -13h-61q-19 0 -32 13t-13 32v1344zM430 1358q0 46 31.5 72t79.5 26q63 0 102 -44.5t39 -129.5q0 -38 -8 -72t-21.5 -63t-30 -52.5t-34.5 -41.5q-8 -8 -15 -7.5t-16 7.5l-33 24
q-11 11 -9.5 19t9.5 16q25 20 42.5 56.5t17.5 76.5q0 29 -11 45q-5 -5 -18.5 -9.5t-32.5 -4.5q-42 0 -67 23.5t-25 58.5z" />
    <glyph glyph-name="Ldot" unicode="&#x13f;" horiz-adv-x="1057" 
d="M197 1395q0 15 11 27t28 12h79q16 0 27.5 -12t11.5 -27v-1258h590q17 0 28 -11.5t11 -27.5v-59q0 -16 -11 -27.5t-28 -11.5h-708q-17 0 -28 11.5t-11 27.5v1356zM897 598q-24 0 -45 9.5t-37 25t-25.5 37t-9.5 45.5t9.5 45.5t25.5 37t37 24.5t45 9q25 0 46 -9t37 -24.5
t25 -37t9 -45.5t-9 -45.5t-25 -37t-37 -25t-46 -9.5z" />
    <glyph glyph-name="ldot" unicode="&#x140;" horiz-adv-x="707" 
d="M170 1389q0 17 13 31t32 14h61q17 0 31.5 -14t14.5 -31v-1344q0 -19 -14.5 -32t-31.5 -13h-61q-19 0 -32 13t-13 32v1344zM598 590q-24 0 -45 9.5t-37 25t-25.5 37t-9.5 45.5t9.5 45.5t25.5 37t37 24.5t45 9q25 0 46 -9t37 -24.5t25 -37t9 -45.5t-9 -45.5t-25 -37
t-37 -25t-46 -9.5z" />
    <glyph glyph-name="Nacute" unicode="&#x143;" horiz-adv-x="1561" 
d="M197 1417q0 16 11.5 26.5t27.5 10.5h30q22 0 33 -16l911 -1135h4v1092q0 15 11 27t28 12h72q16 0 27.5 -12t11.5 -27v-1379q0 -15 -11.5 -25.5t-27.5 -10.5h-16q-22 0 -33 16l-928 1157h-2v-1114q0 -16 -11 -27.5t-28 -11.5h-71q-16 0 -27.5 11.5t-11.5 27.5v1378z
M600 1649q-6 12 -1.5 23t13.5 16l308 172q4 3 11.5 5t15.5 1.5t15 -3.5t11 -10l37 -73q6 -13 3 -25.5t-16 -17.5l-329 -138q-22 -9 -31.5 -8.5t-15.5 13.5z" />
    <glyph glyph-name="nacute" unicode="&#x144;" horiz-adv-x="1104" 
d="M160 901q0 17 13 31t32 14h33q30 0 36 -28l21 -72q37 34 85 60q42 23 100 42t132 19q103 0 169.5 -32t104.5 -88t53 -133.5t15 -168.5v-500q0 -19 -14 -32t-31 -13h-61q-19 0 -32 13t-13 32v520q0 136 -48 200t-153 64q-67 0 -120.5 -20.5t-91.5 -45.5q-45 -29 -79 -65
v-653q0 -19 -14 -32t-31 -13h-61q-19 0 -32 13t-13 32v856zM358 1194q-6 12 -1.5 23t14.5 16l307 172q4 3 11.5 5t15.5 2t15 -3t11 -10l37 -74q6 -12 3 -25t-15 -18l-330 -137q-22 -9 -31.5 -8.5t-15.5 12.5z" />
    <glyph glyph-name="Ncaron" unicode="&#x147;" horiz-adv-x="1561" 
d="M197 1417q0 16 11.5 26.5t27.5 10.5h30q22 0 33 -16l911 -1135h4v1092q0 15 11 27t28 12h72q16 0 27.5 -12t11.5 -27v-1379q0 -15 -11.5 -25.5t-27.5 -10.5h-16q-22 0 -33 16l-928 1157h-2v-1114q0 -16 -11 -27.5t-28 -11.5h-71q-16 0 -27.5 11.5t-11.5 27.5v1378z
M791 1573q-16 0 -27 8l-246 193q-9 6 -14.5 16.5t2.5 21.5l29 37q8 11 18 14t29 -10l209 -139l208 144q19 12 29.5 9t18.5 -14l28 -41q7 -9 4 -17.5t-10.5 -16.5t-17 -14.5t-15.5 -10.5l-219 -172q-6 -5 -11.5 -6.5t-14.5 -1.5z" />
    <glyph glyph-name="ncaron" unicode="&#x148;" horiz-adv-x="1104" 
d="M160 901q0 17 13 31t32 14h33q30 0 36 -28l21 -72q37 34 85 60q42 23 100 42t132 19q103 0 169.5 -32t104.5 -88t53 -133.5t15 -168.5v-500q0 -19 -14 -32t-31 -13h-61q-19 0 -32 13t-13 32v520q0 136 -48 200t-153 64q-67 0 -120.5 -20.5t-91.5 -45.5q-45 -29 -79 -65
v-653q0 -19 -14 -32t-31 -13h-61q-19 0 -32 13t-13 32v856zM289 1311q-10 6 -15.5 17t2.5 22l29 36q8 11 18.5 14t28.5 -9l209 -140l209 144q19 12 29 9.5t18 -13.5l29 -41q7 -9 4 -18t-10.5 -16.5t-17 -14t-15.5 -11.5l-219 -172q-11 -8 -27 -8q-6 0 -13 1.5t-13 6.5z" />
    <glyph glyph-name="Ohungarumlaut" unicode="&#x150;" horiz-adv-x="1686" 
d="M106 715q0 102 26 196.5t73.5 176.5t114.5 149.5t149 115.5t176 74.5t197 26.5q102 0 196.5 -26.5t176.5 -74.5t149 -115.5t115 -149.5t74 -176.5t26 -196.5t-26 -196.5t-74 -176t-115 -148.5t-149 -114.5t-176.5 -73.5t-196.5 -26t-196.5 26t-176.5 73.5t-149 114.5
t-114.5 148.5t-73.5 175.5t-26 197zM250 715q0 -122 46.5 -230t127 -188.5t188.5 -127t230 -46.5t230 46.5t189 127t128 188.5t47 230t-47 230.5t-128 189.5t-189 128.5t-230 47.5t-230 -47.5t-188.5 -128.5t-127 -189.5t-46.5 -230.5zM1040 1575q-8 0 -15.5 3t-13.5 8.5
t-9 12.5t-1 15l103 289q5 15 14 27t25 12h80q29 0 38.5 -16t-1.5 -36l-160 -284q-6 -13 -16 -22t-21 -9h-23zM700 1575q-15 0 -29 11.5t-9 27.5l102 289q5 15 14 27t25 12h80q29 0 38.5 -16t-1.5 -36l-160 -284q-6 -13 -16 -22t-21 -9h-23z" />
    <glyph glyph-name="ohungarumlaut" unicode="&#x151;" horiz-adv-x="1147" 
d="M98 475q0 100 37.5 189t102 156.5t151 107t184.5 39.5q99 0 185.5 -39.5t151 -107t102 -156.5t37.5 -189q0 -101 -37.5 -191.5t-102 -158.5t-151 -108t-185.5 -40q-98 0 -184.5 40t-151 108t-102 158.5t-37.5 191.5zM248 475q0 -74 24.5 -139t68 -114.5t103 -78
t129.5 -28.5t129.5 28.5t102.5 78t67.5 114.5t24.5 139q0 72 -24.5 136.5t-67.5 113t-102.5 76.5t-129.5 28t-129.5 -28t-103 -76.5t-68 -113t-24.5 -136.5zM735 1067q-15 0 -21 11.5t-1 27.5l102 289q5 15 14.5 27t24.5 12h80q29 0 38.5 -16t-1.5 -36l-160 -284
q-6 -13 -16 -22t-21 -9h-39zM395 1067q-15 0 -21 11.5t-1 27.5l102 289q5 15 14.5 27t24.5 12h80q29 0 38.5 -16t-1.5 -36l-160 -284q-6 -13 -16 -22t-21 -9h-39z" />
    <glyph glyph-name="Racute" unicode="&#x154;" horiz-adv-x="1331" 
d="M197 1395q0 15 11 27t28 12h530q92 0 173.5 -34t142 -93t95.5 -139t35 -171q0 -71 -22.5 -134.5t-62.5 -117.5t-95.5 -96t-122.5 -69l281 -521q11 -20 1 -39.5t-36 -19.5h-98q-19 0 -28 7.5t-17 23.5l-267 530h-391v-522q0 -16 -11.5 -27.5t-27.5 -11.5h-79
q-17 0 -28 11.5t-11 27.5v1356zM756 696q59 0 112.5 23t94 63.5t64.5 95t24 117.5q0 58 -24 110.5t-64.5 92.5t-94 63t-112.5 23h-398v-588h398zM430 1649q-6 12 -1.5 23t13.5 16l308 172q4 3 11.5 5t15.5 1.5t15 -3.5t11 -10l37 -73q6 -13 3 -25.5t-16 -17.5l-329 -138
q-22 -9 -31.5 -8.5t-15.5 13.5z" />
    <glyph glyph-name="racute" unicode="&#x155;" horiz-adv-x="791" 
d="M160 901q0 17 13 31t32 14h33q14 0 25 -8t16 -25l16 -67q30 34 72 60q36 23 90 42t129 19q27 0 59 -2.5t58.5 -11t41.5 -23.5t7 -39l-27 -74q-8 -23 -23 -26.5t-32 4.5t-43 17t-60 9q-69 0 -117 -19t-79 -42q-36 -26 -60 -60v-655q0 -19 -14 -32t-31 -13h-61
q-19 0 -32 13t-13 32v856zM231 1194q-6 12 -1.5 23t14.5 16l307 172q4 3 11.5 5t15.5 2t15 -3t11 -10l37 -74q6 -12 3 -25t-15 -18l-330 -137q-22 -9 -31.5 -8.5t-15.5 12.5z" />
    <glyph glyph-name="Rcaron" unicode="&#x158;" horiz-adv-x="1331" 
d="M197 1395q0 15 11 27t28 12h530q92 0 173.5 -34t142 -93t95.5 -139t35 -171q0 -71 -22.5 -134.5t-62.5 -117.5t-95.5 -96t-122.5 -69l281 -521q11 -20 1 -39.5t-36 -19.5h-98q-19 0 -28 7.5t-17 23.5l-267 530h-391v-522q0 -16 -11.5 -27.5t-27.5 -11.5h-79
q-17 0 -28 11.5t-11 27.5v1356zM756 696q59 0 112.5 23t94 63.5t64.5 95t24 117.5q0 58 -24 110.5t-64.5 92.5t-94 63t-112.5 23h-398v-588h398zM614 1573q-6 0 -13 1.5t-13 6.5l-246 193q-9 6 -14.5 16.5t2.5 21.5l28 37q8 11 18.5 14t29.5 -10l208 -139l209 144
q19 12 29 9t18 -14l29 -41q7 -9 4 -17.5t-10.5 -16.5t-17 -14.5t-15.5 -10.5l-219 -172q-6 -5 -11.5 -6.5t-15.5 -1.5z" />
    <glyph glyph-name="rcaron" unicode="&#x159;" horiz-adv-x="791" 
d="M160 901q0 17 13 31t32 14h33q14 0 25 -8t16 -25l16 -67q30 34 72 60q36 23 90 42t129 19q27 0 59 -2.5t58.5 -11t41.5 -23.5t7 -39l-27 -74q-8 -23 -23 -26.5t-32 4.5t-43 17t-60 9q-69 0 -117 -19t-79 -42q-36 -26 -60 -60v-655q0 -19 -14 -32t-31 -13h-61
q-19 0 -32 13t-13 32v856zM131 1311q-9 6 -14.5 17t2.5 22l28 36q8 11 18.5 14t29.5 -9l208 -140l209 144q19 12 29 9.5t18 -13.5l29 -41q7 -9 4 -18t-10.5 -16.5t-17 -14t-15.5 -11.5l-219 -172q-6 -5 -11.5 -6.5t-15.5 -1.5q-6 0 -13 1.5t-13 6.5z" />
    <glyph glyph-name="Sacute" unicode="&#x15a;" horiz-adv-x="1090" 
d="M129 145q-6 6 -12.5 12t-10 14.5t-2 19t12.5 24.5l30 39q16 20 30 25.5t36 -13.5q5 -5 35 -28.5t78 -50.5t109.5 -48.5t129.5 -21.5q62 0 113 18.5t87 50t55.5 74t19.5 90.5q0 53 -23 96t-68 81t-112.5 73.5t-155.5 73.5q-84 36 -151 72.5t-113.5 83.5t-71 109.5
t-24.5 150.5q0 35 9.5 75.5t31 81t55.5 78t82.5 66t112 46t145.5 17.5q75 0 139 -16t111 -36q55 -23 100 -52q5 -3 10.5 -8.5t9 -14.5t2.5 -20.5t-9 -26.5l-21 -35q-12 -21 -29.5 -22.5t-42.5 12.5q-32 19 -62.5 34.5t-62.5 26t-68 16t-79 5.5q-81 0 -135.5 -23t-87.5 -57
t-46.5 -73.5t-13.5 -71.5q0 -55 19 -95.5t55 -73t87 -59t116 -53.5q103 -42 187.5 -85t143.5 -95.5t91.5 -119t32.5 -155.5q0 -80 -35.5 -148.5t-96 -119t-141 -79.5t-170.5 -29q-91 0 -166 22.5t-130.5 51t-90.5 55.5t-45 36zM375 1649q-6 12 -1.5 23t13.5 16l307 172
q5 3 12.5 5t15.5 1.5t15 -3.5t11 -10l36 -73q7 -13 3.5 -25.5t-15.5 -17.5l-330 -138q-21 -9 -31 -8.5t-16 13.5z" />
    <glyph glyph-name="sacute" unicode="&#x15b;" horiz-adv-x="831" 
d="M424 -23q-59 0 -108.5 11.5t-89 29t-68.5 37.5t-47 37q-8 8 -10.5 18.5t3.5 22.5l29 53q9 17 22 22t33 -9q12 -9 33.5 -23.5t51.5 -28t68 -23t83 -9.5q72 0 117 31.5t45 86.5q0 34 -13.5 59t-40.5 47t-66.5 42.5t-90.5 46.5q-47 23 -95 48.5t-86.5 59t-63 78t-24.5 105.5
q0 37 15 80t49.5 80.5t90.5 62.5t138 25q46 0 88 -7t77 -17.5t62 -24t44 -25.5q31 -24 10 -64l-21 -38q-11 -20 -30.5 -23t-34.5 6q-31 19 -80 37t-115 18q-39 0 -65.5 -10t-43 -25t-23.5 -33.5t-7 -35.5q0 -32 12 -54.5t35 -41t56.5 -35.5t76.5 -37q61 -29 116.5 -56.5
t97.5 -62t66.5 -80.5t24.5 -110q0 -56 -23 -105.5t-65.5 -86.5t-101.5 -58t-131 -21zM240 1194q-7 12 -2 23t14 16l307 172q4 3 11.5 5t15.5 2t15 -3t11 -10l37 -74q6 -12 3 -25t-15 -18l-330 -137q-21 -9 -31 -8.5t-16 12.5z" />
    <glyph glyph-name="Tcaron" unicode="&#x164;" horiz-adv-x="1053" 
d="M449 1296h-357q-17 0 -28 12t-11 27v60q0 15 11 27t28 12h869q17 0 27.5 -12t10.5 -27v-60q0 -15 -10.5 -27t-27.5 -12h-357v-1257q0 -16 -11.5 -27.5t-27.5 -11.5h-78q-15 0 -26.5 11.5t-11.5 27.5v1257zM524 1573q-6 0 -13 1.5t-13 6.5l-246 193q-9 6 -14.5 16.5
t2.5 21.5l28 37q8 11 18.5 14t28.5 -10l209 -139l209 144q19 12 29 9t18 -14l29 -41q7 -9 4 -17.5t-10.5 -16.5t-17 -14.5t-15.5 -10.5l-219 -172q-6 -5 -11.5 -6.5t-15.5 -1.5z" />
    <glyph glyph-name="tcaron" unicode="&#x165;" horiz-adv-x="776" 
d="M96 815q-21 0 -34 13.5t-13 31.5v41q0 20 13 32.5t34 12.5h125v262q0 19 14 31t31 14l64 4q18 2 30.5 -12t12.5 -33v-266h278q20 0 33.5 -12.5t13.5 -32.5v-41q0 -18 -13.5 -31.5t-33.5 -13.5h-278v-565q0 -74 21.5 -104.5t62.5 -30.5q33 0 60.5 6t50.5 15.5t41.5 20
t33.5 19.5q28 17 39.5 8t19.5 -26l19 -43q9 -23 5.5 -36t-21.5 -26q-15 -11 -41 -24t-60.5 -24.5t-76 -19.5t-89.5 -8q-68 0 -110 20.5t-66 55.5t-32.5 83t-8.5 104v575h-125zM674 1358q0 46 31 72t79 26q63 0 102.5 -44.5t39.5 -129.5q0 -38 -8 -72t-21.5 -63t-30.5 -52.5
t-35 -41.5q-8 -8 -14.5 -7.5t-15.5 7.5l-33 24q-11 11 -9.5 19t9.5 16q25 20 42 56.5t17 76.5q0 16 -2.5 26.5t-7.5 18.5q-5 -5 -18.5 -9.5t-32.5 -4.5q-42 0 -67 23.5t-25 58.5z" />
    <glyph glyph-name="Uring" unicode="&#x16e;" horiz-adv-x="1450" 
d="M182 1395q0 15 12 27t27 12h78q17 0 28 -12t11 -27v-863q0 -87 26.5 -161.5t76 -129t121 -85.5t161.5 -31q91 0 163 30t122 84t77 128t27 161v867q0 15 11 27t28 12h78q15 0 27 -12t12 -27v-875q0 -117 -39.5 -216t-111.5 -171t-172.5 -112.5t-221.5 -40.5t-220.5 40.5
t-171 112.5t-110.5 171t-39 216v875zM721 1552q-47 0 -87.5 17.5t-70.5 47.5t-47.5 71t-17.5 88t17.5 87.5t47.5 70.5t70.5 47.5t87.5 17.5q46 0 86.5 -17.5t71 -47.5t48 -70.5t17.5 -87.5t-17.5 -88t-48 -71t-71 -47.5t-86.5 -17.5zM721 1651q24 0 46 10t38.5 27.5t26.5 40
t10 47.5q0 24 -10 46t-26.5 38.5t-38.5 26t-46 9.5q-25 0 -47.5 -9.5t-40 -26t-27.5 -38.5t-10 -46q0 -25 10 -47.5t27.5 -40t40 -27.5t47.5 -10z" />
    <glyph glyph-name="uring" unicode="&#x16f;" horiz-adv-x="1077" 
d="M150 901q0 17 12.5 31t32.5 14h61q19 0 32 -14t13 -31v-512q0 -142 47.5 -208t151.5 -66q53 0 95.5 14.5t75.5 35.5t57 45t40 42v649q0 17 12 31t31 14h63q17 0 30.5 -14t13.5 -31v-856q0 -19 -13.5 -32t-30.5 -13h-32q-20 0 -29 11t-14 30l-19 59q-13 -14 -36.5 -35
t-59.5 -40.5t-84.5 -33.5t-112.5 -14q-102 0 -167.5 29.5t-103 83.5t-52 130.5t-14.5 170.5v510zM545 1051q-47 0 -87.5 17.5t-70.5 47.5t-47.5 70.5t-17.5 87.5t17.5 87.5t47.5 70.5t70.5 47.5t87.5 17.5q46 0 86.5 -17.5t71 -47.5t48 -70.5t17.5 -87.5t-17.5 -87.5
t-48 -70.5t-71 -47.5t-86.5 -17.5zM545 1149q24 0 46 10t38.5 27.5t26.5 40t10 47.5q0 24 -10 46t-26.5 38.5t-38.5 26.5t-46 10q-25 0 -47.5 -10t-40 -26.5t-27.5 -38.5t-10 -46q0 -25 10 -47.5t27.5 -40t40 -27.5t47.5 -10z" />
    <glyph glyph-name="Uhungarumlaut" unicode="&#x170;" horiz-adv-x="1450" 
d="M182 1395q0 15 12 27t27 12h78q17 0 28 -12t11 -27v-863q0 -87 26.5 -161.5t76 -129t121 -85.5t161.5 -31q91 0 163 30t122 84t77 128t27 161v867q0 15 11 27t28 12h78q15 0 27 -12t12 -27v-875q0 -117 -39.5 -216t-111.5 -171t-172.5 -112.5t-221.5 -40.5t-220.5 40.5
t-171 112.5t-110.5 171t-39 216v875zM903 1575q-8 0 -15.5 3t-13.5 8.5t-9 12.5t-1 15l103 289q5 15 14 27t25 12h79q29 0 38.5 -16t-1.5 -36l-159 -284q-7 -13 -16.5 -22t-20.5 -9h-23zM563 1575q-8 0 -15.5 3t-13.5 8.5t-9 12.5t-1 15l103 289q5 15 14 27t25 12h79
q29 0 38.5 -16t-1.5 -36l-159 -284q-7 -13 -16.5 -22t-20.5 -9h-23z" />
    <glyph glyph-name="uhungarumlaut" unicode="&#x171;" horiz-adv-x="1077" 
d="M150 901q0 17 12.5 31t32.5 14h61q19 0 32 -14t13 -31v-512q0 -142 47.5 -208t151.5 -66q53 0 95.5 14.5t75.5 35.5t57 45t40 42v649q0 17 12 31t31 14h63q17 0 30.5 -14t13.5 -31v-856q0 -19 -13.5 -32t-30.5 -13h-32q-20 0 -29 11t-14 30l-19 59q-13 -14 -36.5 -35
t-59.5 -40.5t-84.5 -33.5t-112.5 -14q-102 0 -167.5 29.5t-103 83.5t-52 130.5t-14.5 170.5v510zM696 1067q-15 0 -21 11.5t-1 27.5l102 289q5 15 14.5 27t24.5 12h80q29 0 38.5 -16t-1.5 -36l-160 -284q-6 -13 -16 -22t-21 -9h-39zM356 1067q-15 0 -21 11.5t-1 27.5
l102 289q5 15 14.5 27t24.5 12h80q29 0 38.5 -16t-1.5 -36l-160 -284q-6 -13 -16 -22t-21 -9h-39z" />
    <glyph glyph-name="Zacute" unicode="&#x179;" horiz-adv-x="1081" 
d="M55 55q0 20 11 39l733 1190v6h-645q-16 0 -27.5 12t-11.5 27v66q0 15 11.5 27t27.5 12h829q16 0 27.5 -12t11.5 -27v-6q0 -11 -2.5 -20.5t-7.5 -18.5l-746 -1205v-2h676q17 0 28 -11.5t11 -27.5v-65q0 -16 -11 -27.5t-28 -11.5h-848q-15 0 -27 11.5t-12 27.5v16z
M393 1649q-6 12 -1.5 23t14.5 16l307 172q4 3 11.5 5t15.5 1.5t15 -3.5t11 -10l37 -73q6 -13 3 -25.5t-15 -17.5l-330 -138q-22 -9 -31.5 -8.5t-15.5 13.5z" />
    <glyph glyph-name="zacute" unicode="&#x17a;" horiz-adv-x="848" 
d="M78 49q0 19 12 37l479 725v6h-428q-17 0 -28 13.5t-11 31.5v39q0 20 11 32.5t28 12.5h600q23 0 33 -11t10 -30q0 -13 -8 -24l-483 -746v-6h395q45 0 45 -45v-39q0 -19 -11.5 -32t-33.5 -13h-565q-19 0 -32 13t-13 32v4zM223 1194q-6 12 -1.5 23t14.5 16l307 172
q4 3 11.5 5t15.5 2t15 -3t11 -10l37 -74q6 -12 3 -25t-15 -18l-330 -137q-22 -9 -31.5 -8.5t-15.5 12.5z" />
    <glyph glyph-name="Zdotaccent" unicode="&#x17b;" horiz-adv-x="1081" 
d="M55 55q0 20 11 39l733 1190v6h-645q-16 0 -27.5 12t-11.5 27v66q0 15 11.5 27t27.5 12h829q16 0 27.5 -12t11.5 -27v-6q0 -11 -2.5 -20.5t-7.5 -18.5l-746 -1205v-2h676q17 0 28 -11.5t11 -27.5v-65q0 -16 -11 -27.5t-28 -11.5h-848q-15 0 -27 11.5t-12 27.5v16z
M578 1634q-23 0 -43.5 9t-35.5 24.5t-23.5 35.5t-8.5 42q0 24 8.5 45t23.5 36.5t35.5 24.5t43.5 9q24 0 44.5 -9t35.5 -24.5t23.5 -36.5t8.5 -45q0 -22 -8.5 -42t-23.5 -35.5t-35.5 -24.5t-44.5 -9z" />
    <glyph glyph-name="zdotaccent" unicode="&#x17c;" horiz-adv-x="848" 
d="M78 49q0 19 12 37l479 725v6h-428q-17 0 -28 13.5t-11 31.5v39q0 20 11 32.5t28 12.5h600q23 0 33 -11t10 -30q0 -13 -8 -24l-483 -746v-6h395q45 0 45 -45v-39q0 -19 -11.5 -32t-33.5 -13h-565q-19 0 -32 13t-13 32v4zM442 1190q-23 0 -43 9t-35 24t-23.5 35t-8.5 42
q0 25 8.5 46t23.5 36.5t35 24t43 8.5q24 0 44.5 -8.5t36 -24t24 -36.5t8.5 -46q0 -22 -8.5 -42t-24 -35t-36 -24t-44.5 -9z" />
    <glyph glyph-name="Gamma" unicode="&#x393;" horiz-adv-x="966" 
d="M932 1278h-575v-1278h-169v1434h744v-156z" />
    <glyph glyph-name="Theta" unicode="&#x398;" horiz-adv-x="1544" 
d="M766 -24q-304 0 -488 199t-184 525q0 343 186 550q187 208 510 208q296 0 478 -200t182 -523q0 -351 -186 -555q-185 -204 -498 -204zM777 1306q-225 0 -366 -163q-140 -164 -140 -427q0 -264 137 -428q137 -161 358 -161q236 0 371 154q136 154 136 432q0 280 -132 436
q-130 157 -364 157zM1041 638h-537v156h537v-156z" />
    <glyph glyph-name="Phi" unicode="&#x3a6;" horiz-adv-x="1544" 
d="M850 186v-201h-156v201h-43q-249 0 -402 158q-153 157 -153 410q0 246 152 395q155 149 405 149h41v149h156v-149h42q251 0 403 -150q152 -149 152 -394q0 -254 -154 -411t-399 -157h-44zM850 1156v-820h44q181 0 285 110t104 306q0 185 -106 294q-105 110 -285 110h-42z
M694 336v820h-41q-180 0 -286 -109q-107 -110 -107 -296q0 -197 103 -306t288 -109h43z" />
    <glyph glyph-name="alpha" unicode="&#x3b1;" horiz-adv-x="1258" 
d="M1221 5q-49 -13 -95 -13q-154 0 -208 293h-4q-149 -309 -414 -309q-185 0 -298 143q-112 142 -112 363q0 250 129 408t349 158q128 0 225.5 -74.5t149.5 -211.5h4l85 262h172l-193 -502q35 -219 72 -298q37 -78 98 -78q20 0 40 5v-146zM873 520q-38 192 -115 292
t-189 100q-142 0 -227 -121q-84 -122 -84 -299q0 -158 71 -265q72 -107 193 -107q106 0 192.5 89.5t144.5 267.5z" />
    <glyph glyph-name="delta" unicode="&#x3b4;" horiz-adv-x="1196" 
d="M999 1287q-170 101 -340 101q-50 0 -90.5 -9t-69.5 -25.5t-45 -40t-16 -52.5q0 -47 52 -100t172 -125q81 -49 144 -93t111 -83q94 -78 142 -172.5t48 -206.5q0 -233 -141 -370q-139 -136 -380 -136q-221 0 -357 133q-137 134 -137 349q0 157 105 285t310 216
q-238 147 -238 310q0 128 104 197q103 69 286 69q167 0 340 -64v-183zM634 883q-366 -149 -366 -425q0 -157 90 -250q92 -92 241 -92q157 0 250 96t93 257q0 117 -72 212q-68 93 -236 202z" />
    <glyph glyph-name="epsilon" unicode="&#x3b5;" horiz-adv-x="897" 
d="M827 22q-133 -47 -325 -47q-196 0 -308 82t-112 220q0 93 69 161q71 68 184 89v4q-86 18 -150 82t-64 148q0 136 106 212t285 76q142 0 270 -45v-165q-134 71 -280 71q-215 0 -215 -147q0 -75 81 -121q79 -46 206 -46q37 0 66 1t52 3v-146q-37 2 -71.5 3t-68.5 1
q-304 0 -304 -178q0 -75 69.5 -120.5t199.5 -45.5q168 0 310 73v-165z" />
    <glyph glyph-name="sigma" unicode="&#x3c3;" horiz-adv-x="1177" 
d="M1154 892h-256q142 -181 142 -403q0 -228 -126 -370q-126 -143 -338 -143q-218 0 -349 143q-130 142 -130 383q0 522 521 522h536v-132zM632 892q-366 0 -366 -397q0 -173 84 -276q85 -103 226 -103q136 0 216 104q80 107 80 280q0 219 -122 392h-118z" />
    <glyph glyph-name="tau" unicode="&#x3c4;" horiz-adv-x="998" 
d="M965 892h-391v-618q0 -142 116 -142q51 0 108 20v-142q-63 -22 -138 -22q-249 0 -249 288v616h-141q-115 0 -236 -88v148q76 72 240 72h691v-132z" />
    <glyph glyph-name="phi" unicode="&#x3c6;" horiz-adv-x="1432" 
d="M822 -24q-4 -4 -34 0v-458h-148v458q-24 -4 -28 0q-237 0 -376 144q-140 146 -140 390q0 314 210 514h194q-236 -216 -236 -518q0 -183 95 -287q96 -103 251 -103h30v661q0 271 274 271q188 0 305 -149t117 -399q0 -234 -141 -379q-139 -145 -373 -145zM788 116h34
q151 0 249 105q97 106 97 287q0 180 -74 290t-176 110q-130 0 -130 -129v-663z" />
    <glyph glyph-name="underscoredbl" unicode="&#x2017;" horiz-adv-x="850" 
d="M0 -277v119h850v-119h-850zM0 -514v119h850v-119h-850z" />
    <glyph glyph-name="exclamdbl" unicode="&#x203c;" horiz-adv-x="983" 
d="M375 1434l-19 -1030h-135l-18 1030h172zM291 -18q-23 0 -43 8.5t-35 23.5t-24 35t-9 43q0 22 9 42.5t24 35.5t35 24t43 9q45 0 78 -33q33 -32 33 -78q0 -47 -33 -78q-35 -32 -78 -32zM776 1434l-19 -1030h-135l-18 1030h172zM692 -18q-23 0 -43 8.5t-35 23.5t-24 35
t-9 43q0 22 9 42.5t24 35.5t35 24t43 9q45 0 78 -33q33 -32 33 -78q0 -47 -33 -78q-35 -32 -78 -32z" />
    <glyph glyph-name="peseta" unicode="&#x20a7;" horiz-adv-x="2274" 
d="M356 542v-542h-168v1434h312q462 0 462 -428q0 -210 -132 -337q-130 -127 -367 -127h-107zM356 1282v-588h94q336 0 336 304q0 284 -315 284h-115zM1552 10q-59 -32 -153 -32q-131 0 -189.5 71t-58.5 229v464h-155v138h155v250l164 54v-304h237v-138h-237v-435
q0 -191 131 -191q60 0 106 34v-140zM1620 213q121 -99 258 -99q162 0 162 114q0 39 -32 80t-278 132q-108 61 -108 178q0 121 92 193q91 73 238 73q132 0 208 -46v-160q-98 68 -210 68q-72 0 -116 -31t-44 -82q0 -58 108 -101q48 -20 88.5 -37.5t75.5 -33.5
q72 -31 109 -86.5t37 -130.5q0 -125 -88 -197q-89 -71 -242 -71q-164 0 -258 61v176z" />
    <glyph glyph-name="IJ" unicode="&#x132;" horiz-adv-x="1456" 
d="M197 1395q0 15 11.5 27t27.5 12h81q16 0 27.5 -12t11.5 -27v-1356q0 -16 -11.5 -27.5t-27.5 -11.5h-81q-16 0 -27.5 11.5t-11.5 27.5v1356zM549 131q-8 12 -7.5 26t9.5 25l41 47q11 13 20.5 17t17.5 1.5t16 -9t16 -15.5q13 -15 33.5 -33t48.5 -34.5t62 -27.5t73 -11
q40 0 82 14t76 47.5t55.5 88.5t21.5 136v992q0 15 11 27t28 12h80q17 0 28 -12t11 -27v-987q0 -107 -30.5 -187t-83.5 -133.5t-124.5 -80.5t-154.5 -27q-74 0 -130 17.5t-96 42t-65.5 50t-38.5 41.5z" />
    <glyph glyph-name="ij" unicode="&#x133;" horiz-adv-x="956" 
d="M231 1190q-23 0 -43 9t-35 24t-23.5 35t-8.5 42q0 25 8.5 46t23.5 36.5t35 24t43 8.5q24 0 44.5 -8.5t36 -24t24 -36.5t8.5 -46q0 -22 -8.5 -42t-24 -35t-36 -24t-44.5 -9zM160 901q0 17 13 31t32 14h61q17 0 31 -14t14 -31v-856q0 -19 -14 -32t-31 -13h-61q-19 0 -32 13
t-13 32v856zM719 1190q-24 0 -44.5 9t-36 24t-24 35t-8.5 42q0 25 8.5 46t24 36.5t36 24t44.5 8.5q23 0 43 -8.5t35 -24t23.5 -36.5t8.5 -46q0 -22 -8.5 -42t-23.5 -35t-35 -24t-43 -9zM797 -102q0 -96 -20 -167t-56 -120t-85.5 -78t-107.5 -41q-33 -6 -43 25l-20 61
q-8 22 2 35.5t27 19.5q36 13 64 30.5t47.5 46t29.5 70t10 103.5v1018q0 20 13.5 32.5t31.5 12.5h62q17 0 31 -12.5t14 -32.5v-1003z" />
    <glyph glyph-name="napostrophe" unicode="&#x149;" horiz-adv-x="1104" 
d="M-84 1358q0 46 31.5 72t79.5 26q63 0 102 -44.5t39 -129.5q0 -38 -8 -72t-21.5 -63t-30 -52.5t-34.5 -41.5q-8 -8 -15 -7.5t-16 7.5l-33 24q-11 11 -9.5 19t9.5 16q25 20 42.5 56.5t17.5 76.5q0 29 -11 45q-5 -5 -18.5 -9.5t-32.5 -4.5q-42 0 -67 23.5t-25 58.5zM160 901
q0 17 13 31t32 14h33q30 0 36 -28l21 -72q37 34 85 60q42 23 100 42t132 19q103 0 169.5 -32t104.5 -88t53 -133.5t15 -168.5v-500q0 -19 -14 -32t-31 -13h-61q-19 0 -32 13t-13 32v520q0 136 -48 200t-153 64q-67 0 -120.5 -20.5t-91.5 -45.5q-45 -29 -79 -65v-653
q0 -19 -14 -32t-31 -13h-61q-19 0 -32 13t-13 32v856z" />
    <glyph glyph-name="minute" unicode="&#x2032;" horiz-adv-x="469" 
d="M350 1434l-104 -447h-116l86 447h134z" />
    <glyph glyph-name="second" unicode="&#x2033;" horiz-adv-x="772" 
d="M644 1434l-106 -447h-116l86 447h136zM361 1434l-105 -447h-115l85 447h135z" />
    <glyph glyph-name="H22073" unicode="&#x25a1;" horiz-adv-x="1237" 
d="M146 944h944v-944h-944v944zM221 868v-792h793v792h-793z" />
    <glyph glyph-name="H18543" unicode="&#x25aa;" horiz-adv-x="725" 
d="M594 908v-464h-463v464h463z" />
    <glyph glyph-name="H18551" unicode="&#x25ab;" horiz-adv-x="725" 
d="M131 908h463v-464h-463v464zM207 832v-312h311v312h-311z" />
    <glyph glyph-name="H18533" unicode="&#x25cf;" horiz-adv-x="1237" 
d="M1059 578q0 -184 -129 -313q-128 -128 -310 -128t-313 128q-129 129 -129 313t131 312t309 128q183 0 312 -130q129 -131 129 -310z" />
    <glyph glyph-name="openbullet" unicode="&#x25e6;" horiz-adv-x="725" 
d="M614 678q0 -106 -73 -179t-178 -73q-103 0 -177 74t-74 178q0 103 73 176q74 74 178 74q103 0 177 -74t74 -176zM188 678q0 -74 51 -125q52 -51 125 -51q74 0 124 51q50 53 50 125q0 73 -51 123q-51 51 -125 51q-72 0 -123 -52q-51 -51 -51 -122z" />
    <glyph glyph-name="Amacron" unicode="&#x100;" horiz-adv-x="1362" 
d="M49 0q-23 0 -33.5 16.5t-1.5 36.5l623 1379q5 9 13 15.5t22 6.5h20q14 0 22 -6.5t13 -15.5l619 -1379q9 -20 -1.5 -36.5t-33.5 -16.5h-82q-14 0 -23 7.5t-12 15.5l-152 337h-727l-149 -337q-3 -8 -12 -15.5t-23 -7.5h-82zM987 487q-75 169 -149.5 336.5t-149.5 335.5h-16
l-299 -672h614zM418 1681q-17 0 -28 11t-11 26v43q0 17 11 28t28 11h524q17 0 28 -11t11 -28v-43q0 -15 -11 -26t-28 -11h-524z" />
    <glyph glyph-name="amacron" unicode="&#x101;" horiz-adv-x="965" 
d="M86 287q0 67 25 124.5t73 99.5t118.5 65.5t162.5 23.5q38 0 74 -5t65 -11q33 -7 64 -15q1 65 -4.5 114t-22 81.5t-47.5 48.5t-82 16q-48 0 -92 -6.5t-80.5 -15.5t-64.5 -18.5t-44 -14.5q-18 -8 -28 0t-17 25l-20 55q-6 22 3 32.5t26 18.5q18 8 49 18.5t73 20.5t93.5 16.5
t109.5 6.5q91 0 148 -23t89 -71.5t44 -123.5t12 -180v-524q0 -19 -13 -32t-32 -13h-39q-18 0 -26 9.5t-13 25.5l-18 63q-18 -18 -46 -39.5t-64.5 -39.5t-82.5 -30t-100 -12q-62 0 -115.5 21.5t-93 62t-62 97.5t-22.5 129zM236 287q0 -36 12 -67.5t34 -55t53.5 -36.5
t70.5 -13q43 0 83.5 11t74.5 29t60.5 41t41.5 46v192q-23 13 -76.5 25t-124.5 12q-49 0 -91 -11.5t-72.5 -35t-48 -58t-17.5 -79.5zM203 1194q-17 0 -28 10.5t-11 26.5v43q0 17 11 28t28 11h524q17 0 28 -11t11 -28v-43q0 -16 -11 -26.5t-28 -10.5h-524z" />
    <glyph glyph-name="Ccircumflex" unicode="&#x108;" horiz-adv-x="1446" 
d="M106 715q0 102 26.5 196.5t74.5 176.5t115.5 149.5t149.5 115.5t176.5 74.5t197.5 26.5q78 0 145.5 -13t127.5 -37.5t115 -60t107 -79.5q13 -13 14 -29t-12 -29l-55 -55q-12 -16 -25 -14.5t-28 16.5q-81 69 -180 111.5t-211 42.5q-122 0 -226.5 -47.5t-181 -128.5
t-120.5 -188t-44 -226q0 -79 20 -153.5t56.5 -139.5t88 -119.5t115 -93.5t137.5 -60.5t155 -21.5q67 0 121 11t100.5 31t87.5 48.5t82 63.5q28 23 53 -2l47 -48q13 -9 11 -26.5t-13 -28.5q-102 -93 -226 -145.5t-261 -52.5q-103 0 -197.5 26t-176.5 73.5t-149.5 114.5
t-115.5 148.5t-74.5 175.5t-26.5 197zM559 1624q-8 11 -2.5 22t14.5 17l246 192q6 5 13.5 7t13.5 2q16 0 26 -9l246 -192q9 -6 14.5 -17t-2.5 -22q-7 -9 -13.5 -21.5t-15 -21.5t-20 -11t-26.5 9l-209 143l-209 -139q-19 -12 -29 -9.5t-18 13.5z" />
    <glyph glyph-name="ccircumflex" unicode="&#x109;" horiz-adv-x="1024" 
d="M98 471q0 105 36.5 195.5t100.5 157t152 105t191 38.5q106 0 192 -40.5t152 -115.5q14 -17 11 -35.5t-20 -32.5l-32 -30q-12 -10 -21.5 -12t-17.5 1.5t-15 10t-14 14.5q-49 56 -107 79t-131 23q-68 0 -126.5 -28t-102.5 -76t-69 -113t-25 -139q0 -75 25 -140.5t67.5 -114
t100.5 -76t124 -27.5q54 0 93.5 12.5t69.5 32t52.5 43.5t42.5 47t40 19.5t40 -23.5l13 -13q15 -15 19.5 -30.5t-7.5 -34.5q-27 -39 -64 -74t-82.5 -61t-98.5 -41t-112 -15q-105 0 -192.5 37t-151 103t-98.5 156.5t-35 197.5zM293 1174q-8 11 -2.5 21.5t14.5 16.5l246 193
q11 8 27 8q9 0 14.5 -1.5t11.5 -6.5l246 -193q9 -6 14.5 -16.5t-2.5 -21.5q-7 -9 -14 -21.5t-15.5 -21.5t-20 -11.5t-26.5 8.5l-208 144l-209 -139q-19 -13 -29 -10t-18 14z" />
    <glyph glyph-name="Cdotaccent" unicode="&#x10a;" horiz-adv-x="1446" 
d="M106 715q0 102 26.5 196.5t74.5 176.5t115.5 149.5t149.5 115.5t176.5 74.5t197.5 26.5q78 0 145.5 -13t127.5 -37.5t115 -60t107 -79.5q13 -13 14 -29t-12 -29l-55 -55q-12 -16 -25 -14.5t-28 16.5q-81 69 -180 111.5t-211 42.5q-122 0 -226.5 -47.5t-181 -128.5
t-120.5 -188t-44 -226q0 -79 20 -153.5t56.5 -139.5t88 -119.5t115 -93.5t137.5 -60.5t155 -21.5q67 0 121 11t100.5 31t87.5 48.5t82 63.5q28 23 53 -2l47 -48q13 -9 11 -26.5t-13 -28.5q-102 -93 -226 -145.5t-261 -52.5q-103 0 -197.5 26t-176.5 73.5t-149.5 114.5
t-115.5 148.5t-74.5 175.5t-26.5 197zM844 1634q-23 0 -43.5 9t-35.5 24.5t-23.5 35.5t-8.5 42q0 24 8.5 45t23.5 36.5t35.5 24.5t43.5 9q24 0 44.5 -9t35.5 -24.5t23.5 -36.5t8.5 -45q0 -22 -8.5 -42t-23.5 -35.5t-35.5 -24.5t-44.5 -9z" />
    <glyph glyph-name="cdotaccent" unicode="&#x10b;" horiz-adv-x="1024" 
d="M98 471q0 105 36.5 195.5t100.5 157t152 105t191 38.5q106 0 192 -40.5t152 -115.5q14 -17 11 -35.5t-20 -32.5l-32 -30q-12 -10 -21.5 -12t-17.5 1.5t-15 10t-14 14.5q-49 56 -107 79t-131 23q-68 0 -126.5 -28t-102.5 -76t-69 -113t-25 -139q0 -75 25 -140.5t67.5 -114
t100.5 -76t124 -27.5q54 0 93.5 12.5t69.5 32t52.5 43.5t42.5 47t40 19.5t40 -23.5l13 -13q15 -15 19.5 -30.5t-7.5 -34.5q-27 -39 -64 -74t-82.5 -61t-98.5 -41t-112 -15q-105 0 -192.5 37t-151 103t-98.5 156.5t-35 197.5zM584 1190q-23 0 -43.5 9t-35.5 24t-23.5 35
t-8.5 42q0 50 32 82.5t79 32.5q24 0 44.5 -8.5t35.5 -24t23.5 -36.5t8.5 -46q0 -22 -8.5 -42t-23.5 -35t-35.5 -24t-44.5 -9z" />
    <glyph glyph-name="Emacron" unicode="&#x112;" horiz-adv-x="1180" 
d="M197 1395q0 15 11 27t28 12h806q17 0 28 -12t11 -27v-60q0 -15 -11 -27t-28 -12h-688v-499h588q16 0 27.5 -12t11.5 -27v-60q0 -17 -11.5 -28t-27.5 -11h-588v-522h688q17 0 28 -11.5t11 -27.5v-59q0 -16 -11 -27.5t-28 -11.5h-806q-17 0 -28 11.5t-11 27.5v1356z
M377 1681q-17 0 -28 11t-11 26v43q0 17 11 28t28 11h524q17 0 28 -11t11 -28v-43q0 -15 -11 -26t-28 -11h-524z" />
    <glyph glyph-name="emacron" unicode="&#x113;" horiz-adv-x="1075" 
d="M100 473q0 100 31.5 189.5t90.5 157t144 107.5t193 40q93 0 171.5 -32.5t135.5 -90t89 -136t32 -171.5q0 -13 -1 -29t-3 -29q-2 -18 -14.5 -29.5t-28.5 -11.5h-688q1 -59 25.5 -117t66 -103.5t97 -74t120.5 -28.5q47 0 85.5 7.5t69.5 18.5t56 25t45 27q12 8 21.5 13.5
t17.5 5.5t16 -6t17 -20l24 -34q7 -11 11.5 -19t4.5 -15t-5.5 -14.5t-18.5 -17.5q-21 -17 -55 -36t-78 -35.5t-98 -27t-115 -10.5q-108 0 -193 39.5t-144 107t-90.5 158t-31.5 191.5zM836 559q-2 52 -22.5 101t-57 86.5t-86.5 60t-111 22.5q-60 0 -112.5 -21.5t-93 -58
t-66.5 -86t-33 -104.5h582zM299 1194q-17 0 -28 10.5t-11 26.5v43q0 17 11 28t28 11h524q17 0 28 -11t11 -28v-43q0 -16 -11 -26.5t-28 -10.5h-524z" />
    <glyph glyph-name="Ebreve" unicode="&#x114;" horiz-adv-x="1180" 
d="M197 1395q0 15 11 27t28 12h806q17 0 28 -12t11 -27v-60q0 -15 -11 -27t-28 -12h-688v-499h588q16 0 27.5 -12t11.5 -27v-60q0 -17 -11.5 -28t-27.5 -11h-588v-522h688q17 0 28 -11.5t11 -27.5v-59q0 -16 -11 -27.5t-28 -11.5h-806q-17 0 -28 11.5t-11 27.5v1356z
M639 1579q-54 0 -101 17.5t-84 49t-61 74t-31 92.5q-3 17 4 29t25 12h43q17 0 25.5 -10t13.5 -24q17 -59 60.5 -95t105.5 -36q28 0 54 10.5t47 28t36.5 41.5t24.5 51q12 34 39 34h47q17 0 24.5 -12t3.5 -29q-8 -50 -32.5 -92.5t-61 -74t-83 -49t-99.5 -17.5z" />
    <glyph glyph-name="ebreve" unicode="&#x115;" horiz-adv-x="1075" 
d="M100 473q0 100 31.5 189.5t90.5 157t144 107.5t193 40q93 0 171.5 -32.5t135.5 -90t89 -136t32 -171.5q0 -13 -1 -29t-3 -29q-2 -18 -14.5 -29.5t-28.5 -11.5h-688q1 -59 25.5 -117t66 -103.5t97 -74t120.5 -28.5q47 0 85.5 7.5t69.5 18.5t56 25t45 27q12 8 21.5 13.5
t17.5 5.5t16 -6t17 -20l24 -34q7 -11 11.5 -19t4.5 -15t-5.5 -14.5t-18.5 -17.5q-21 -17 -55 -36t-78 -35.5t-98 -27t-115 -10.5q-108 0 -193 39.5t-144 107t-90.5 158t-31.5 191.5zM836 559q-2 52 -22.5 101t-57 86.5t-86.5 60t-111 22.5q-60 0 -112.5 -21.5t-93 -58
t-66.5 -86t-33 -104.5h582zM565 1087q-54 0 -101 18t-84 49.5t-60.5 74t-30.5 92.5q-3 17 3.5 29t24.5 12h43q17 0 25.5 -10.5t13.5 -24.5q17 -59 60.5 -95t105.5 -36q28 0 54 10.5t47 28t37 41.5t24 51q12 35 39 35h47q17 0 24.5 -12t4.5 -29q-9 -50 -33 -92.5t-60.5 -74
t-83.5 -49.5t-100 -18z" />
    <glyph glyph-name="Edotaccent" unicode="&#x116;" horiz-adv-x="1180" 
d="M197 1395q0 15 11 27t28 12h806q17 0 28 -12t11 -27v-60q0 -15 -11 -27t-28 -12h-688v-499h588q16 0 27.5 -12t11.5 -27v-60q0 -17 -11.5 -28t-27.5 -11h-588v-522h688q17 0 28 -11.5t11 -27.5v-59q0 -16 -11 -27.5t-28 -11.5h-806q-17 0 -28 11.5t-11 27.5v1356z
M643 1634q-23 0 -43 9t-35 24.5t-24 35.5t-9 42q0 24 9 45t24 36.5t35 24.5t43 9q24 0 44.5 -9t36 -24.5t24 -36.5t8.5 -45q0 -22 -8.5 -42t-24 -35.5t-36 -24.5t-44.5 -9z" />
    <glyph glyph-name="edotaccent" unicode="&#x117;" horiz-adv-x="1075" 
d="M100 473q0 100 31.5 189.5t90.5 157t144 107.5t193 40q93 0 171.5 -32.5t135.5 -90t89 -136t32 -171.5q0 -13 -1 -29t-3 -29q-2 -18 -14.5 -29.5t-28.5 -11.5h-688q1 -59 25.5 -117t66 -103.5t97 -74t120.5 -28.5q47 0 85.5 7.5t69.5 18.5t56 25t45 27q12 8 21.5 13.5
t17.5 5.5t16 -6t17 -20l24 -34q7 -11 11.5 -19t4.5 -15t-5.5 -14.5t-18.5 -17.5q-21 -17 -55 -36t-78 -35.5t-98 -27t-115 -10.5q-108 0 -193 39.5t-144 107t-90.5 158t-31.5 191.5zM836 559q-2 52 -22.5 101t-57 86.5t-86.5 60t-111 22.5q-60 0 -112.5 -21.5t-93 -58
t-66.5 -86t-33 -104.5h582zM567 1190q-23 0 -43 9t-35 24t-23.5 35t-8.5 42q0 25 8.5 46t23.5 36.5t35 24t43 8.5q24 0 44.5 -8.5t36 -24t24 -36.5t8.5 -46q0 -22 -8.5 -42t-24 -35t-36 -24t-44.5 -9z" />
    <glyph glyph-name="Gcircumflex" unicode="&#x11c;" horiz-adv-x="1503" 
d="M106 715q0 102 26.5 196.5t74.5 176.5t115.5 149.5t149.5 115.5t176.5 74.5t197.5 26.5q78 0 145.5 -13t127.5 -37.5t115 -60t107 -79.5q13 -13 14 -29t-12 -29q-14 -14 -29 -28.5t-28 -28.5q-14 -16 -25 -15t-28 17q-39 34 -85.5 63.5t-97 51t-103 33.5t-103.5 12
q-81 0 -154.5 -21.5t-137 -60.5t-115 -93t-88 -119.5t-56 -140t-19.5 -153.5q0 -118 43.5 -225.5t120 -189t180.5 -129.5t226 -48q85 0 152.5 13t115.5 30q56 18 100 43v287h-235q-17 0 -28 10.5t-11 26.5v75q0 17 11 28t28 11h354q16 0 26.5 -11.5t10.5 -27.5v-469
q0 -8 -5 -17.5t-11 -14.5q-64 -38 -142 -68q-67 -26 -159.5 -46.5t-204.5 -20.5q-103 0 -197.5 26t-176.5 73.5t-149.5 114.5t-115.5 148.5t-74.5 175.5t-26.5 197zM559 1624q-8 11 -2.5 22t14.5 17l246 192q6 5 13.5 7t13.5 2q16 0 26 -9l246 -192q9 -6 14.5 -17t-2.5 -22
q-7 -9 -13.5 -21.5t-15 -21.5t-20 -11t-26.5 9l-209 143l-209 -139q-19 -12 -29 -9.5t-18 13.5z" />
    <glyph glyph-name="gcircumflex" unicode="&#x11d;" horiz-adv-x="1120" 
d="M299 1174q-8 11 -2.5 21.5t14.5 16.5l246 193q11 8 27 8q9 0 14.5 -1.5t11.5 -6.5l246 -193q9 -6 14.5 -16.5t-2.5 -21.5q-7 -9 -13.5 -21.5t-15 -21.5t-20 -11.5t-26.5 8.5l-209 144l-209 -139q-19 -13 -29 -10t-18 14zM254 475q0 -77 24 -142.5t66 -113.5t99.5 -75
t125.5 -27q49 0 92.5 12t76.5 27q39 17 71 39v518q-29 31 -67 57q-32 21 -78.5 39t-104.5 18q-71 0 -127 -29t-96 -78t-61 -112.5t-21 -132.5zM961 -6q0 -122 -34.5 -206t-92 -137t-132 -76.5t-155.5 -23.5q-56 0 -108 13t-95 31.5t-76 40t-51 38.5q-12 11 -15 28t5 28
l41 59q11 17 27.5 17.5t33.5 -15.5q19 -16 44 -33.5t55 -32.5t65 -24.5t74 -9.5q56 0 104 16.5t83.5 52.5t56 93.5t20.5 140.5v67q-33 -24 -73 -42q-35 -16 -82.5 -29t-106.5 -13q-98 0 -180 38.5t-142 106t-93.5 157.5t-33.5 194q0 101 33 191t92 157.5t140 106.5t178 39
q64 0 116 -15.5t89 -33.5q43 -21 77 -48l15 43q8 14 17 23.5t28 9.5h28q19 0 33.5 -14t14.5 -31v-907z" />
    <glyph glyph-name="Gdotaccent" unicode="&#x120;" horiz-adv-x="1503" 
d="M106 715q0 102 26.5 196.5t74.5 176.5t115.5 149.5t149.5 115.5t176.5 74.5t197.5 26.5q78 0 145.5 -13t127.5 -37.5t115 -60t107 -79.5q13 -13 14 -29t-12 -29q-14 -14 -29 -28.5t-28 -28.5q-14 -16 -25 -15t-28 17q-39 34 -85.5 63.5t-97 51t-103 33.5t-103.5 12
q-81 0 -154.5 -21.5t-137 -60.5t-115 -93t-88 -119.5t-56 -140t-19.5 -153.5q0 -118 43.5 -225.5t120 -189t180.5 -129.5t226 -48q85 0 152.5 13t115.5 30q56 18 100 43v287h-235q-17 0 -28 10.5t-11 26.5v75q0 17 11 28t28 11h354q16 0 26.5 -11.5t10.5 -27.5v-469
q0 -8 -5 -17.5t-11 -14.5q-64 -38 -142 -68q-67 -26 -159.5 -46.5t-204.5 -20.5q-103 0 -197.5 26t-176.5 73.5t-149.5 114.5t-115.5 148.5t-74.5 175.5t-26.5 197zM844 1634q-23 0 -43.5 9t-35.5 24.5t-23.5 35.5t-8.5 42q0 24 8.5 45t23.5 36.5t35.5 24.5t43.5 9
q24 0 44.5 -9t35.5 -24.5t23.5 -36.5t8.5 -45q0 -22 -8.5 -42t-23.5 -35.5t-35.5 -24.5t-44.5 -9z" />
    <glyph glyph-name="gdotaccent" unicode="&#x121;" horiz-adv-x="1120" 
d="M590 1190q-23 0 -43.5 9t-35.5 24t-23.5 35t-8.5 42q0 50 32 82.5t79 32.5q24 0 44.5 -8.5t35.5 -24t23.5 -36.5t8.5 -46q0 -22 -8.5 -42t-23.5 -35t-35.5 -24t-44.5 -9zM254 475q0 -77 24 -142.5t66 -113.5t99.5 -75t125.5 -27q49 0 92.5 12t76.5 27q39 17 71 39v518
q-29 31 -67 57q-32 21 -78.5 39t-104.5 18q-71 0 -127 -29t-96 -78t-61 -112.5t-21 -132.5zM961 -6q0 -122 -34.5 -206t-92 -137t-132 -76.5t-155.5 -23.5q-56 0 -108 13t-95 31.5t-76 40t-51 38.5q-12 11 -15 28t5 28l41 59q11 17 27.5 17.5t33.5 -15.5q19 -16 44 -33.5
t55 -32.5t65 -24.5t74 -9.5q56 0 104 16.5t83.5 52.5t56 93.5t20.5 140.5v67q-33 -24 -73 -42q-35 -16 -82.5 -29t-106.5 -13q-98 0 -180 38.5t-142 106t-93.5 157.5t-33.5 194q0 101 33 191t92 157.5t140 106.5t178 39q64 0 116 -15.5t89 -33.5q43 -21 77 -48l15 43
q8 14 17 23.5t28 9.5h28q19 0 33.5 -14t14.5 -31v-907z" />
    <glyph glyph-name="Hcircumflex" unicode="&#x124;" horiz-adv-x="1540" 
d="M197 1395q0 15 11.5 27t27.5 12h79q17 0 28 -12t11 -27v-598h832v598q0 15 11 27t28 12h80q15 0 26.5 -12t11.5 -27v-1356q0 -16 -11.5 -27.5t-26.5 -11.5h-80q-17 0 -28 11.5t-11 27.5v620h-832v-620q0 -16 -11 -27.5t-28 -11.5h-79q-16 0 -27.5 11.5t-11.5 27.5v1356z
M489 1624q-8 11 -2.5 22t15.5 17l246 192q6 5 13 7t13 2q17 0 27 -9l246 -192q9 -6 14.5 -17t-2.5 -22q-7 -9 -14 -21.5t-15.5 -21.5t-20 -11t-26.5 9l-209 143l-209 -139q-18 -12 -28.5 -9.5t-18.5 13.5z" />
    <glyph glyph-name="hcircumflex" unicode="&#x125;" horiz-adv-x="1104" 
d="M160 1389q0 17 13 31t32 14h61q17 0 31 -14t14 -31v-543q33 34 79 60q38 23 94 42t128 19q177 0 259.5 -107.5t82.5 -314.5v-500q0 -19 -14 -32t-31 -13h-63q-19 0 -32 13t-13 32v500q0 67 -10.5 120t-34 89.5t-61.5 55.5t-93 19q-68 0 -121.5 -21t-91.5 -47
q-44 -30 -78 -67v-649q0 -19 -14 -32t-31 -13h-61q-19 0 -32 13t-13 32v1344zM-59 1618q-8 11 -2.5 22t14.5 17l246 192q12 9 26 9q10 0 15.5 -2t11.5 -7l246 -192q9 -6 14.5 -17t-2.5 -22q-7 -9 -14 -21.5t-15.5 -21.5t-20 -11t-26.5 9l-209 143l-209 -139
q-18 -12 -28.5 -9.5t-18.5 13.5z" />
    <glyph glyph-name="Hbar" unicode="&#x126;" horiz-adv-x="1540" 
d="M197 1098h-45q-16 0 -26.5 11.5t-10.5 27.5v14q0 15 10.5 27t26.5 12h45v205q0 15 11.5 27t27.5 12h79q17 0 28 -12t11 -27v-205h832v205q0 15 11 27t28 12h80q15 0 26.5 -12t11.5 -27v-205h43q17 0 28 -12t11 -27v-16q0 -16 -11 -26.5t-28 -10.5h-43v-1059
q0 -16 -11.5 -27.5t-26.5 -11.5h-80q-17 0 -28 11.5t-11 27.5v620h-832v-620q0 -16 -11 -27.5t-28 -11.5h-79q-16 0 -27.5 11.5t-11.5 27.5v1059zM1186 797v301h-832v-301h832z" />
    <glyph glyph-name="hbar" unicode="&#x127;" horiz-adv-x="1145" 
d="M160 1098h-66q-15 0 -26 11.5t-11 27.5v14q0 15 11 27t26 12h66v199q0 17 13 31t32 14h61q17 0 31 -14t14 -31v-199h310q17 0 27.5 -12t10.5 -27v-16q0 -16 -10.5 -26.5t-27.5 -10.5h-310v-252q39 34 89 60q43 23 102 42t131 19q177 0 269.5 -107t92.5 -315v-500
q0 -19 -14 -32t-31 -13h-63q-19 0 -32 13t-13 32v500q0 136 -55 210t-164 74q-69 0 -125.5 -21t-98.5 -47q-48 -30 -88 -67v-649q0 -19 -14 -32t-31 -13h-61q-19 0 -32 13t-13 32v1053z" />
    <glyph glyph-name="Itilde" unicode="&#x128;" horiz-adv-x="553" 
d="M197 1395q0 15 11.5 27t27.5 12h81q16 0 27.5 -12t11.5 -27v-1356q0 -16 -11.5 -27.5t-27.5 -11.5h-81q-16 0 -27.5 11.5t-11.5 27.5v1356zM-16 1647q-13 6 -13.5 20t4.5 25q7 14 18.5 42.5t32.5 57.5t54 50.5t84 21.5q31 0 55 -11.5t44 -28t36 -36.5t31 -36.5t29 -28
t30 -11.5q21 0 37 11.5t27 28t17.5 34.5t10.5 31q5 15 17.5 19.5t29.5 -3.5l33 -16q9 -5 12 -12t2.5 -14.5t-3 -14.5t-3.5 -13q-8 -22 -21 -51t-35 -54.5t-53 -43t-73 -17.5t-74.5 24t-59 53t-48.5 53t-43 24t-35.5 -10t-25 -25t-17.5 -33t-12 -34t-18.5 -24t-33.5 3z" />
    <glyph glyph-name="itilde" unicode="&#x129;" horiz-adv-x="518" 
d="M355 958v-958h-184v958h184zM31 1120l-53 43l8 11q92 114 187 118q57 2 120 -32q47 -27 91 -23q51 4 112 74l55 -54q-90 -120 -202 -127q-31 -6 -107 28t-108 32q-58 -2 -103 -70z" />
    <glyph glyph-name="Imacron" unicode="&#x12a;" horiz-adv-x="553" 
d="M197 1395q0 15 11.5 27t27.5 12h81q16 0 27.5 -12t11.5 -27v-1356q0 -16 -11.5 -27.5t-27.5 -11.5h-81q-16 0 -27.5 11.5t-11.5 27.5v1356zM16 1681q-17 0 -28 11t-11 26v43q0 17 11 28t28 11h525q17 0 28 -11t11 -28v-43q0 -15 -11 -26t-28 -11h-525z" />
    <glyph glyph-name="imacron" unicode="&#x12b;" horiz-adv-x="471" 
d="M160 901q0 17 13 31t32 14h61q17 0 31 -14t14 -31v-856q0 -19 -14 -32t-31 -13h-61q-19 0 -32 13t-13 32v856zM-20 1194q-17 0 -28 10.5t-11 26.5v43q0 17 11 28t28 11h524q17 0 28 -11t11 -28v-43q0 -16 -11 -26.5t-28 -10.5h-524z" />
    <glyph glyph-name="Ibreve" unicode="&#x12c;" horiz-adv-x="553" 
d="M197 1395q0 15 11.5 27t27.5 12h81q16 0 27.5 -12t11.5 -27v-1356q0 -16 -11.5 -27.5t-27.5 -11.5h-81q-16 0 -27.5 11.5t-11.5 27.5v1356zM279 1579q-54 0 -101.5 17.5t-84.5 49t-60.5 74t-30.5 92.5q-3 17 3.5 29t25.5 12h43q17 0 25.5 -10t13.5 -24q17 -59 60.5 -95
t105.5 -36q28 0 53.5 10.5t46.5 28t37 41.5t24 51q14 34 39 34h47q17 0 24.5 -12t4.5 -29q-9 -50 -33 -92.5t-60.5 -74t-83 -49t-99.5 -17.5z" />
    <glyph glyph-name="ibreve" unicode="&#x12d;" horiz-adv-x="471" 
d="M160 901q0 17 13 31t32 14h61q17 0 31 -14t14 -31v-856q0 -19 -14 -32t-31 -13h-61q-19 0 -32 13t-13 32v856zM242 1087q-54 0 -101.5 18t-84 49.5t-60.5 74t-31 92.5q-3 17 3.5 29t25.5 12h43q17 0 25.5 -10.5t13.5 -24.5q17 -59 60.5 -95t105.5 -36q28 0 53.5 10.5
t46.5 28t37 41.5t24 51q14 35 39 35h47q17 0 24.5 -12t4.5 -29q-8 -50 -32.5 -92.5t-61 -74t-83 -49.5t-99.5 -18z" />
    <glyph glyph-name="Iogonek" unicode="&#x12e;" horiz-adv-x="553" 
d="M197 1395q0 15 11.5 27t27.5 12h81q16 0 27.5 -12t11.5 -27v-1352q0 -14 -9.5 -26t-20.5 -17q-31 -15 -68 -41.5t-69.5 -61t-54 -76.5t-21.5 -89q0 -51 27.5 -80t76.5 -29q22 0 42.5 6.5t38 15.5t30 17.5t18.5 13.5q11 10 21 7t12 -17l2 -69q2 -14 -3.5 -26.5
t-21.5 -23.5q-11 -6 -28 -14t-39.5 -15.5t-48.5 -12.5t-54 -5q-50 0 -87.5 16t-63 43.5t-38.5 65t-13 80.5q0 60 22.5 108.5t56.5 86.5t72 66t70 48q-8 8 -8 25v1356z" />
    <glyph glyph-name="iogonek" unicode="&#x12f;" horiz-adv-x="473" 
d="M162 901q0 17 13 31t32 14h61q17 0 31 -14t14 -31v-850q0 -15 -10 -28t-22 -21q-30 -18 -67.5 -45t-70 -61.5t-55 -75.5t-22.5 -88q0 -51 27 -80t77 -29q22 0 42.5 6.5t38 15.5t30 17.5t18.5 13.5q11 10 21 7t12 -17l2 -69q2 -14 -3.5 -26.5t-21.5 -23.5q-11 -6 -28 -14
t-39.5 -15.5t-48.5 -12.5t-54 -5q-50 0 -87.5 16t-63 43.5t-38.5 65t-13 80.5q0 57 23 107t56.5 91.5t73 74t72.5 55.5v868zM233 1190q-23 0 -43 9t-35 24t-23.5 35t-8.5 42q0 25 8.5 46t23.5 36.5t35 24t43 8.5q24 0 44.5 -8.5t36 -24t24 -36.5t8.5 -46q0 -22 -8.5 -42
t-24 -35t-36 -24t-44.5 -9z" />
    <glyph glyph-name="Jcircumflex" unicode="&#x134;" horiz-adv-x="950" 
d="M43 131q-8 12 -7.5 26t9.5 25l41 47q11 13 20.5 17t17.5 1.5t16 -9t16 -15.5q13 -15 33.5 -33t48.5 -34.5t62 -27.5t73 -11q40 0 82 14t76 47.5t55.5 88.5t21.5 136v992q0 15 11 27t28 12h80q17 0 28 -12t11 -27v-987q0 -107 -30.5 -187t-83.5 -133.5t-124.5 -80.5
t-154.5 -27q-74 0 -130 17.5t-96 42t-65.5 50t-38.5 41.5zM401 1624q-8 11 -2.5 22t15.5 17l245 192q7 5 14 7t13 2q17 0 27 -9l245 -192q10 -6 15.5 -17t-2.5 -22q-7 -9 -14 -21.5t-15.5 -21.5t-20 -11t-26.5 9l-209 143l-209 -139q-18 -12 -28.5 -9.5t-18.5 13.5z" />
    <glyph glyph-name="jcircumflex" unicode="&#x135;" horiz-adv-x="471" 
d="M311 -102q0 -96 -20 -167t-55.5 -120t-85 -78t-107.5 -41q-34 -6 -43 25l-20 61q-8 22 1.5 35.5t26.5 19.5q36 13 64 30.5t47.5 46t30 70t10.5 103.5v1018q0 20 13 32.5t32 12.5h61q17 0 31 -12.5t14 -32.5v-1003zM-49 1174q-8 11 -2.5 21.5t14.5 16.5l246 193q11 8 27 8
q9 0 14.5 -1.5t11.5 -6.5l246 -193q9 -6 14.5 -16.5t-2.5 -21.5q-7 -9 -14 -21.5t-15.5 -21.5t-20 -11.5t-26.5 8.5l-208 144l-209 -139q-19 -13 -29 -10t-18 14z" />
    <glyph glyph-name="kgreenlandic" unicode="&#x138;" horiz-adv-x="1032" 
d="M160 901q0 17 13 31t32 14h61q17 0 31 -14t14 -31v-391l422 408q13 12 26.5 20t28.5 8h113q15 0 23 -7t9.5 -17t-1.5 -19.5t-10 -13.5l-463 -420l524 -410q7 -6 9.5 -16t0 -19.5t-11 -16.5t-23.5 -7h-120q-17 0 -28 6t-19 12l-480 392v-365q0 -19 -14 -32t-31 -13h-61
q-19 0 -32 13t-13 32v856z" />
    <glyph glyph-name="Eng" unicode="&#x14a;" horiz-adv-x="1563" 
d="M1366 -102q0 -96 -20 -167t-56 -120t-85 -78t-107 -41q-34 -6 -43 25l-21 61q-8 22 2 35.5t27 19.5q36 13 64 30.5t47.5 46t29.5 70t10 103.5v183l-866 1087h-2v-1114q0 -16 -11 -27.5t-28 -11.5h-71q-16 0 -27.5 11.5t-11.5 27.5v1378q0 16 11.5 26.5t27.5 10.5h51
l923 -1151h4v1092q0 15 11 27t28 12h74q16 0 27.5 -12t11.5 -27v-1497z" />
    <glyph glyph-name="eng" unicode="&#x14b;" horiz-adv-x="1106" 
d="M803 565q0 136 -48 200t-153 64q-67 0 -120.5 -20.5t-91.5 -45.5q-45 -29 -79 -65v-653q0 -19 -14 -32t-31 -13h-61q-19 0 -32 13t-13 32v856q0 17 13 31t32 14h33q30 0 36 -28l21 -72q37 34 85 60q42 23 100 42t132 19q103 0 169.5 -32t104.5 -88t53 -133.5t15 -168.5
v-647q0 -96 -20 -167t-55.5 -120t-85 -78t-107.5 -41q-34 -6 -43 25l-20 61q-8 22 1.5 35.5t26.5 19.5q36 13 64.5 30.5t48 46t29.5 70t10 103.5v682v0z" />
    <glyph glyph-name="Omacron" unicode="&#x14c;" horiz-adv-x="1686" 
d="M106 715q0 102 26 196.5t73.5 176.5t114.5 149.5t149 115.5t176 74.5t197 26.5q102 0 196.5 -26.5t176.5 -74.5t149 -115.5t115 -149.5t74 -176.5t26 -196.5t-26 -196.5t-74 -176t-115 -148.5t-149 -114.5t-176.5 -73.5t-196.5 -26t-196.5 26t-176.5 73.5t-149 114.5
t-114.5 148.5t-73.5 175.5t-26 197zM250 715q0 -122 46.5 -230t127 -188.5t188.5 -127t230 -46.5t230 46.5t189 127t128 188.5t47 230t-47 230.5t-128 189.5t-189 128.5t-230 47.5t-230 -47.5t-188.5 -128.5t-127 -189.5t-46.5 -230.5zM582 1681q-17 0 -28 11t-11 26v43
q0 17 11 28t28 11h524q17 0 28 -11t11 -28v-43q0 -15 -11 -26t-28 -11h-524z" />
    <glyph glyph-name="omacron" unicode="&#x14d;" horiz-adv-x="1147" 
d="M98 475q0 100 37.5 189t102 156.5t151 107t184.5 39.5q99 0 185.5 -39.5t151 -107t102 -156.5t37.5 -189q0 -101 -37.5 -191.5t-102 -158.5t-151 -108t-185.5 -40q-98 0 -184.5 40t-151 108t-102 158.5t-37.5 191.5zM248 475q0 -74 24.5 -139t68 -114.5t103 -78
t129.5 -28.5t129.5 28.5t102.5 78t67.5 114.5t24.5 139q0 72 -24.5 136.5t-67.5 113t-102.5 76.5t-129.5 28t-129.5 -28t-103 -76.5t-68 -113t-24.5 -136.5zM309 1194q-17 0 -28 10.5t-11 26.5v43q0 17 11 28t28 11h525q17 0 27.5 -11t10.5 -28v-43q0 -16 -10.5 -26.5
t-27.5 -10.5h-525z" />
    <glyph glyph-name="Obreve" unicode="&#x14e;" horiz-adv-x="1686" 
d="M106 715q0 102 26 196.5t73.5 176.5t114.5 149.5t149 115.5t176 74.5t197 26.5q102 0 196.5 -26.5t176.5 -74.5t149 -115.5t115 -149.5t74 -176.5t26 -196.5t-26 -196.5t-74 -176t-115 -148.5t-149 -114.5t-176.5 -73.5t-196.5 -26t-196.5 26t-176.5 73.5t-149 114.5
t-114.5 148.5t-73.5 175.5t-26 197zM250 715q0 -122 46.5 -230t127 -188.5t188.5 -127t230 -46.5t230 46.5t189 127t128 188.5t47 230t-47 230.5t-128 189.5t-189 128.5t-230 47.5t-230 -47.5t-188.5 -128.5t-127 -189.5t-46.5 -230.5zM844 1579q-54 0 -101.5 17.5t-84 49
t-60.5 74t-31 92.5q-3 17 3.5 29t25.5 12h43q17 0 25.5 -10t13.5 -24q17 -59 60.5 -95t105.5 -36q28 0 54 10.5t47 28t36.5 41.5t24.5 51q12 34 38 34h48q17 0 24 -12t4 -29q-8 -50 -32.5 -92.5t-61 -74t-83 -49t-99.5 -17.5z" />
    <glyph glyph-name="obreve" unicode="&#x14f;" horiz-adv-x="1147" 
d="M98 475q0 100 37.5 189t102 156.5t151 107t184.5 39.5q99 0 185.5 -39.5t151 -107t102 -156.5t37.5 -189q0 -101 -37.5 -191.5t-102 -158.5t-151 -108t-185.5 -40q-98 0 -184.5 40t-151 108t-102 158.5t-37.5 191.5zM248 475q0 -74 24.5 -139t68 -114.5t103 -78
t129.5 -28.5t129.5 28.5t102.5 78t67.5 114.5t24.5 139q0 72 -24.5 136.5t-67.5 113t-102.5 76.5t-129.5 28t-129.5 -28t-103 -76.5t-68 -113t-24.5 -136.5zM569 1087q-54 0 -101 18t-84 49.5t-60.5 74t-30.5 92.5q-3 17 3.5 29t25.5 12h43q17 0 25 -10.5t13 -24.5
q17 -59 60.5 -95t105.5 -36q28 0 54 10.5t47 28t37 41.5t24 51q12 35 39 35h47q17 0 24.5 -12t4.5 -29q-9 -50 -33 -92.5t-60.5 -74t-83.5 -49.5t-100 -18z" />
    <glyph glyph-name="Scircumflex" unicode="&#x15c;" horiz-adv-x="1090" 
d="M129 145q-6 6 -12.5 12t-10 14.5t-2 19t12.5 24.5l30 39q16 20 30 25.5t36 -13.5q5 -5 35 -28.5t78 -50.5t109.5 -48.5t129.5 -21.5q62 0 113 18.5t87 50t55.5 74t19.5 90.5q0 53 -23 96t-68 81t-112.5 73.5t-155.5 73.5q-84 36 -151 72.5t-113.5 83.5t-71 109.5
t-24.5 150.5q0 35 9.5 75.5t31 81t55.5 78t82.5 66t112 46t145.5 17.5q75 0 139 -16t111 -36q55 -23 100 -52q5 -3 10.5 -8.5t9 -14.5t2.5 -20.5t-9 -26.5l-21 -35q-12 -21 -29.5 -22.5t-42.5 12.5q-32 19 -62.5 34.5t-62.5 26t-68 16t-79 5.5q-81 0 -135.5 -23t-87.5 -57
t-46.5 -73.5t-13.5 -71.5q0 -55 19 -95.5t55 -73t87 -59t116 -53.5q103 -42 187.5 -85t143.5 -95.5t91.5 -119t32.5 -155.5q0 -80 -35.5 -148.5t-96 -119t-141 -79.5t-170.5 -29q-91 0 -166 22.5t-130.5 51t-90.5 55.5t-45 36zM274 1624q-8 11 -2.5 22t15.5 17l245 192
q7 5 14 7t13 2q17 0 27 -9l245 -192q10 -6 15.5 -17t-2.5 -22q-7 -9 -14 -21.5t-15.5 -21.5t-20 -11t-26.5 9l-209 143l-209 -139q-18 -12 -28.5 -9.5t-18.5 13.5z" />
    <glyph glyph-name="scircumflex" unicode="&#x15d;" horiz-adv-x="829" 
d="M424 -23q-59 0 -108.5 11.5t-89 29t-68.5 37.5t-47 37q-8 8 -10.5 18.5t3.5 22.5l29 53q9 17 22 22t33 -9q12 -9 33.5 -23.5t51.5 -28t68 -23t83 -9.5q72 0 117 31.5t45 86.5q0 34 -13.5 59t-40.5 47t-66.5 42.5t-90.5 46.5q-47 23 -95 48.5t-86.5 59t-63 78t-24.5 105.5
q0 37 15 80t49.5 80.5t90.5 62.5t138 25q46 0 88 -7t77 -17.5t62 -24t44 -25.5q31 -24 10 -64l-21 -38q-11 -20 -30.5 -23t-34.5 6q-31 19 -80 37t-115 18q-39 0 -65.5 -10t-43 -25t-23.5 -33.5t-7 -35.5q0 -32 12 -54.5t35 -41t56.5 -35.5t76.5 -37q61 -29 116.5 -56.5
t97.5 -62t66.5 -80.5t24.5 -110q0 -56 -23 -105.5t-65.5 -86.5t-101.5 -58t-131 -21zM141 1174q-8 11 -2.5 21.5t15.5 16.5l245 193q7 5 14 6.5t13 1.5q9 0 14.5 -1.5t12.5 -6.5l245 -193q10 -6 15.5 -16.5t-2.5 -21.5q-7 -9 -14 -21.5t-15.5 -21.5t-20 -11.5t-26.5 8.5
l-209 144l-209 -139q-18 -13 -28.5 -10t-18.5 14z" />
    <glyph glyph-name="Tbar" unicode="&#x166;" horiz-adv-x="1053" 
d="M449 604h-213q-16 0 -26.5 12t-10.5 27v14q0 16 10.5 27.5t26.5 11.5h213v600h-357q-17 0 -28 12t-11 27v60q0 15 11 27t28 12h869q17 0 27.5 -12t10.5 -27v-60q0 -15 -10.5 -27t-27.5 -12h-357v-600h213q17 0 28 -11.5t11 -27.5v-16q0 -15 -11 -26t-28 -11h-213v-565
q0 -16 -11.5 -27.5t-27.5 -11.5h-78q-15 0 -26.5 11.5t-11.5 27.5v565z" />
    <glyph glyph-name="tbar" unicode="&#x167;" horiz-adv-x="780" 
d="M225 418h-102q-17 0 -30 13t-13 32v16q0 19 13 32t30 13h102v291h-125q-21 0 -34 13.5t-13 31.5v41q0 20 13 32.5t34 12.5h125v262q0 19 14 31t31 14l64 4q18 2 30.5 -12t12.5 -33v-266h278q20 0 33.5 -12.5t13.5 -32.5v-41q0 -18 -13.5 -31.5t-33.5 -13.5h-278v-291h227
q20 0 32.5 -13t12.5 -32v-18q0 -19 -12.5 -31t-32.5 -12h-227v-180q0 -71 22 -97t62 -26q33 0 60.5 7t50 16.5t40.5 21t33 20.5q14 9 23.5 10t16 -2.5t11.5 -10.5t9 -15l20 -47q9 -23 5.5 -36t-21.5 -26q-15 -11 -41 -24t-60.5 -24.5t-76 -19.5t-89.5 -8q-68 0 -110 20.5
t-66 55.5t-32.5 83t-8.5 104v178z" />
    <glyph glyph-name="Utilde" unicode="&#x168;" horiz-adv-x="1368" 
d="M118 1544h193v-911q0 -486 372 -486q373 0 373 486v911h192v-977q0 -264 -149 -428q-154 -172 -416 -172t-415 172q-150 164 -150 428v977zM446 1620l-52 45l7 8q88 117 188 121q59 2 123 -33q45 -24 92 -22t115 73l53 -53q-86 -121 -205 -129q-35 -2 -111.5 31
t-105.5 31q-57 -4 -104 -72z" />
    <glyph glyph-name="utilde" unicode="&#x169;" horiz-adv-x="1046" 
d="M116 958h184v-530q0 -289 222 -289q221 0 221 289v530h184v-550q0 -207 -98 -320q-105 -121 -307 -121q-203 0 -308 121q-98 113 -98 320v550zM288 1092l-53 43l8 10q92 115 186 119q58 2 121 -33q47 -27 90 -23q51 4 113 74l55 -53q-90 -121 -203 -127q-30 -6 -106 27.5
t-109 31.5q-57 -2 -102 -69z" />
    <glyph glyph-name="Umacron" unicode="&#x16a;" horiz-adv-x="1450" 
d="M182 1395q0 15 12 27t27 12h78q17 0 28 -12t11 -27v-863q0 -87 26.5 -161.5t76 -129t121 -85.5t161.5 -31q91 0 163 30t122 84t77 128t27 161v867q0 15 11 27t28 12h78q15 0 27 -12t12 -27v-875q0 -117 -39.5 -216t-111.5 -171t-172.5 -112.5t-221.5 -40.5t-220.5 40.5
t-171 112.5t-110.5 171t-39 216v875zM461 1681q-17 0 -28 11t-11 26v43q0 17 11 28t28 11h524q17 0 28 -11t11 -28v-43q0 -15 -11 -26t-28 -11h-524z" />
    <glyph glyph-name="umacron" unicode="&#x16b;" horiz-adv-x="1077" 
d="M150 901q0 17 12.5 31t32.5 14h61q19 0 32 -14t13 -31v-512q0 -142 47.5 -208t151.5 -66q53 0 95.5 14.5t75.5 35.5t57 45t40 42v649q0 17 12 31t31 14h63q17 0 30.5 -14t13.5 -31v-856q0 -19 -13.5 -32t-30.5 -13h-32q-20 0 -29 11t-14 30l-19 59q-13 -14 -36.5 -35
t-59.5 -40.5t-84.5 -33.5t-112.5 -14q-102 0 -167.5 29.5t-103 83.5t-52 130.5t-14.5 170.5v510zM279 1194q-17 0 -28 10.5t-11 26.5v43q0 17 11 28t28 11h524q17 0 28 -11t11 -28v-43q0 -16 -11 -26.5t-28 -10.5h-524z" />
    <glyph glyph-name="Ubreve" unicode="&#x16c;" horiz-adv-x="1450" 
d="M182 1395q0 15 12 27t27 12h78q17 0 28 -12t11 -27v-863q0 -87 26.5 -161.5t76 -129t121 -85.5t161.5 -31q91 0 163 30t122 84t77 128t27 161v867q0 15 11 27t28 12h78q15 0 27 -12t12 -27v-875q0 -117 -39.5 -216t-111.5 -171t-172.5 -112.5t-221.5 -40.5t-220.5 40.5
t-171 112.5t-110.5 171t-39 216v875zM721 1579q-54 0 -101 17.5t-84 49t-61 74t-31 92.5q-3 17 4 29t25 12h43q17 0 25.5 -10t13.5 -24q17 -59 60.5 -95t105.5 -36q28 0 54 10.5t47 28t36.5 41.5t24.5 51q12 34 39 34h47q17 0 24 -12t4 -29q-8 -50 -32.5 -92.5t-61 -74
t-83 -49t-99.5 -17.5z" />
    <glyph glyph-name="ubreve" unicode="&#x16d;" horiz-adv-x="1077" 
d="M150 901q0 17 12.5 31t32.5 14h61q19 0 32 -14t13 -31v-512q0 -142 47.5 -208t151.5 -66q53 0 95.5 14.5t75.5 35.5t57 45t40 42v649q0 17 12 31t31 14h63q17 0 30.5 -14t13.5 -31v-856q0 -19 -13.5 -32t-30.5 -13h-32q-20 0 -29 11t-14 30l-19 59q-13 -14 -36.5 -35
t-59.5 -40.5t-84.5 -33.5t-112.5 -14q-102 0 -167.5 29.5t-103 83.5t-52 130.5t-14.5 170.5v510zM543 1087q-54 0 -101.5 18t-84 49.5t-60.5 74t-31 92.5q-3 17 3.5 29t25.5 12h43q17 0 25.5 -10.5t13.5 -24.5q17 -59 60.5 -95t105.5 -36q28 0 53.5 10.5t47 28t37 41.5
t24.5 51q12 35 38 35h48q17 0 24 -12t4 -29q-8 -50 -32.5 -92.5t-61 -74t-83 -49.5t-99.5 -18z" />
    <glyph glyph-name="Uogonek" unicode="&#x172;" horiz-adv-x="1450" 
d="M182 1395q0 15 12 27t27 12h78q17 0 28 -12t11 -27v-854q0 -88 26.5 -164t76 -132t121 -88t161.5 -32q91 0 163 31.5t122 87t77 130.5t27 163v858q0 15 11 27t28 12h78q15 0 27 -12t12 -27v-867q0 -98 -28.5 -185t-81 -156.5t-126 -118.5t-164.5 -70q-30 -18 -66 -45
t-67 -61t-52 -74.5t-21 -85.5q0 -51 27 -80t77 -29q22 0 42.5 6.5t38 15.5t30 17.5t18.5 13.5q11 10 21 7t12 -17l2 -69q2 -14 -3.5 -26.5t-21.5 -23.5q-11 -6 -28 -14t-39.5 -15.5t-48.5 -12.5t-54 -5q-50 0 -88 16t-63.5 43.5t-38.5 65t-13 80.5q0 48 15.5 89t40 75
t54.5 61.5t60 49.5q-117 4 -212.5 47t-164 116.5t-106 172t-37.5 212.5v867z" />
    <glyph glyph-name="uogonek" unicode="&#x173;" horiz-adv-x="1077" 
d="M150 901q0 17 12.5 31t32.5 14h61q19 0 32 -14t13 -31v-500q0 -142 47.5 -214t151.5 -72q68 0 117.5 21t83.5 47q39 30 67 69v649q0 17 12 31t31 14h63q17 0 30.5 -14t13.5 -31v-856q0 -17 -10.5 -29.5t-24.5 -15.5q-30 -17 -67 -43.5t-69.5 -60.5t-54.5 -75.5t-22 -88.5
q0 -51 27.5 -80t76.5 -29q22 0 43 6.5t38 15.5t29.5 17.5t18.5 13.5q11 10 21 7t12 -17l2 -69q2 -14 -3.5 -26.5t-21.5 -23.5q-11 -6 -28 -14t-39.5 -15.5t-48.5 -12.5t-54 -5q-50 0 -87.5 16t-63 43.5t-38.5 65t-13 80.5q0 58 27.5 109.5t67.5 94.5t84.5 76t78.5 54l-19 61
q-30 -35 -73 -62q-37 -23 -91.5 -42t-128.5 -19q-102 0 -167.5 31.5t-103 88t-52 135t-14.5 171.5v498z" />
    <glyph glyph-name="Wcircumflex" unicode="&#x174;" horiz-adv-x="1815" 
d="M59 1384q-6 22 5 36t32 14h86q13 0 23.5 -9t13.5 -20l285 -1061h8l342 1088q3 9 12 15.5t23 6.5h37q12 0 21.5 -6.5t13.5 -15.5l348 -1088h8l278 1061q3 11 14 20t23 9h86q22 0 32.5 -14t4.5 -36l-387 -1376q-3 -12 -13.5 -20t-23.5 -8h-33q-11 0 -20 6.5t-14 15.5
l-355 1108h-10l-348 -1108q-5 -9 -14.5 -15.5t-20.5 -6.5h-33q-12 0 -22.5 8t-14.5 20zM621 1624q-8 11 -2.5 22t14.5 17l246 192q6 5 13 7t13 2q17 0 27 -9l246 -192q9 -6 14.5 -17t-2.5 -22q-7 -9 -14 -21.5t-15.5 -21.5t-20 -11t-26.5 9l-209 143l-209 -139
q-18 -12 -28.5 -9.5t-18.5 13.5z" />
    <glyph glyph-name="wcircumflex" unicode="&#x175;" horiz-adv-x="1438" 
d="M715 713l-279 -711q-3 -9 -12.5 -17t-26.5 -8h-12q-17 0 -26.5 7t-14.5 18l-262 891q-6 23 1.5 38t35.5 15h69q36 0 43 -26l175 -644h4l266 668q3 9 13.5 16t27.5 7h12q14 0 25 -7t14 -16l264 -670h4l174 646q3 12 14 19t25 7h72q25 0 33 -15t0 -38l-258 -891
q-3 -11 -14 -18t-25 -7h-13q-15 0 -25 8t-15 17l-285 711h-4zM432 1174q-8 11 -2.5 21.5t14.5 16.5l246 193q6 5 13.5 6.5t13.5 1.5q9 0 14.5 -1.5t11.5 -6.5l246 -193q9 -6 14.5 -16.5t-2.5 -21.5q-7 -9 -13.5 -21.5t-15 -21.5t-20 -11.5t-26.5 8.5l-209 144l-209 -139
q-19 -13 -29 -10t-18 14z" />
    <glyph glyph-name="Ycircumflex" unicode="&#x176;" horiz-adv-x="1176" 
d="M508 690l-494 684q-6 10 -6 20.5t4.5 19.5t13.5 14.5t21 5.5h96q11 0 19.5 -6.5t13.5 -12.5l414 -571l414 571q5 6 13 12.5t19 6.5h97q12 0 21 -5.5t13.5 -14.5t4 -19.5t-6.5 -20.5l-499 -682v-653q0 -16 -12 -27.5t-27 -11.5h-80q-17 0 -28 11.5t-11 27.5v651zM305 1624
q-8 11 -2.5 22t14.5 17l246 192q6 5 13.5 7t13.5 2q16 0 26 -9l246 -192q9 -6 14.5 -17t-2.5 -22q-7 -9 -13.5 -21.5t-15 -21.5t-20 -11t-26.5 9l-209 143l-209 -139q-19 -12 -29 -9.5t-18 13.5z" />
    <glyph glyph-name="ycircumflex" unicode="&#x177;" horiz-adv-x="1024" 
d="M59 895q-9 23 0 37t37 14h86q31 0 41 -26l269 -752h4l319 752q5 12 16 19t25 7h76q28 0 38 -15t-1 -38l-592 -1352q-5 -11 -17 -19.5t-24 -8.5h-74q-28 0 -39 16t0 41l183 432zM227 1174q-8 11 -2.5 21.5t15.5 16.5l245 193q7 5 14 6.5t13 1.5q9 0 14.5 -1.5t12.5 -6.5
l245 -193q10 -6 15.5 -16.5t-2.5 -21.5q-7 -9 -14 -21.5t-15.5 -21.5t-20 -11.5t-26.5 8.5l-209 144l-209 -139q-18 -13 -28.5 -10t-18.5 14z" />
    <glyph glyph-name="longs" unicode="&#x17f;" horiz-adv-x="494" 
d="M610 1372q-47 27 -108 27q-172 0 -172 -217v-1182h-164v1190q0 161 94 254q94 94 232 94q74 0 118 -18v-148z" />
    <glyph glyph-name="Aringacute" unicode="&#x1fa;" horiz-adv-x="1362" 
d="M475 1894q-6 13 -1.5 23.5t13.5 15.5l308 172q4 3 11.5 5.5t15.5 2t15 -3.5t11 -10l37 -74q6 -12 3 -25t-16 -18l-329 -137q-22 -9 -31.5 -8.5t-15.5 12.5zM49 0q-23 0 -33.5 16.5t-1.5 36.5l594 1317q-33 11 -60.5 31.5t-48 48.5t-31.5 61.5t-11 71.5q0 47 17.5 87.5
t47.5 70.5t70.5 47.5t87.5 17.5q46 0 86.5 -17.5t71 -47.5t48 -70.5t17.5 -87.5q0 -37 -11 -70.5t-31 -61t-47.5 -48t-59.5 -31.5l592 -1319q9 -20 -1.5 -36.5t-33.5 -16.5h-82q-14 0 -23 7.5t-12 15.5l-152 337h-727l-149 -337q-3 -8 -12 -15.5t-23 -7.5h-82zM680 1458
q24 0 46 10.5t38.5 27.5t26.5 40t10 47q0 25 -10 47t-26.5 38.5t-38.5 26t-46 9.5q-25 0 -47.5 -9.5t-40 -26t-27.5 -38.5t-10 -47q0 -24 10 -47t27.5 -40t40 -27.5t47.5 -10.5zM987 487l-299 672h-16l-299 -672h614z" />
    <glyph glyph-name="aringacute" unicode="&#x1fb;" horiz-adv-x="965" 
d="M465 1044q-47 0 -87.5 13t-70.5 38.5t-47.5 62t-17.5 83.5t17.5 83.5t47.5 62t70.5 38.5t87.5 13q46 0 86.5 -13t71 -38.5t48 -62t17.5 -83.5t-17.5 -83.5t-48 -62t-71 -38.5t-86.5 -13zM465 1143q24 0 46 6t38.5 18.5t26.5 31t10 42.5q0 25 -10 42.5t-26.5 29t-38.5 17
t-46 5.5q-25 0 -47.5 -5.5t-40 -17t-27.5 -29t-10 -42.5q0 -24 10 -42.5t27.5 -31t40 -18.5t47.5 -6zM252 1513q-6 13 -1.5 23.5t13.5 15.5l307 134q11 5 28.5 5t25.5 -14l37 -73q6 -13 3 -26.5t-16 -16.5l-330 -101q-23 -8 -31.5 -6t-15.5 14zM86 287q0 67 25 124.5
t73 99.5t118.5 65.5t162.5 23.5q38 0 74 -5t65 -11q33 -7 64 -15q1 65 -4.5 114t-22 81.5t-47.5 48.5t-82 16q-48 0 -92 -6.5t-80.5 -15.5t-64.5 -18.5t-44 -14.5q-18 -8 -28 0t-17 25l-20 55q-6 22 3 32.5t26 18.5q18 8 49 18.5t73 20.5t93.5 16.5t109.5 6.5q91 0 148 -23
t89 -71.5t44 -123.5t12 -180v-524q0 -19 -13 -32t-32 -13h-39q-18 0 -26 9.5t-13 25.5l-18 63q-18 -18 -46 -39.5t-64.5 -39.5t-82.5 -30t-100 -12q-62 0 -115.5 21.5t-93 62t-62 97.5t-22.5 129zM236 287q0 -36 12 -67.5t34 -55t53.5 -36.5t70.5 -13q43 0 83.5 11t74.5 29
t60.5 41t41.5 46v192q-23 13 -76.5 25t-124.5 12q-49 0 -91 -11.5t-72.5 -35t-48 -58t-17.5 -79.5z" />
    <glyph glyph-name="AEacute" unicode="&#x1fc;" horiz-adv-x="1821" 
d="M16 0q-23 0 -30 16.5t6 36.5l821 1317q10 15 19 27t19.5 20.5t24 12.5t33.5 4h774q17 0 28 -12t11 -27v-60q0 -15 -11 -27t-28 -12h-700v-499h600q16 0 27.5 -12t11.5 -27v-60q0 -17 -11.5 -28t-27.5 -11h-600v-522h700q17 0 28 -11.5t11 -27.5v-59q0 -16 -11 -27.5
t-28 -11.5h-806q-17 0 -28 11.5t-11 27.5v321h-486l-213 -337q-6 -8 -17 -15.5t-22 -7.5h-84zM838 487v672l-412 -672h412zM1059 1651q-6 12 -1.5 23t13.5 16l307 172q5 3 12.5 5t15.5 1.5t15 -3.5t11 -10l36 -73q7 -13 4 -25.5t-16 -17.5l-330 -137q-21 -10 -31 -9.5
t-16 13.5z" />
    <glyph glyph-name="aeacute" unicode="&#x1fd;" horiz-adv-x="1618" 
d="M88 291q0 67 24 123t69 97t110 64t147 23q43 0 84 -2t73 -4q38 -3 71 -6q1 66 -4.5 112t-21.5 75.5t-44.5 42.5t-73.5 13q-55 0 -103 -7t-86.5 -16t-67 -18.5t-44.5 -13.5q-17 -6 -31.5 4t-17.5 29l-12 57q-3 19 8 30t31 17q44 16 97 28q45 11 105 19.5t129 8.5
q60 0 103 -9t73 -25.5t49.5 -40.5t32.5 -54q59 58 140.5 93.5t175.5 35.5q88 0 165.5 -30.5t135.5 -86.5t91.5 -135.5t33.5 -177.5q0 -18 -1 -35.5t-5.5 -32t-14 -23t-26.5 -8.5h-670v-153q22 -38 54.5 -69t72 -53.5t85 -35t93.5 -12.5q38 0 72.5 7t65.5 18t57 25t47 28
q23 15 36.5 18.5t30.5 -18.5l33 -48q6 -8 10.5 -14.5t4 -13t-6 -14t-18.5 -17.5q-22 -17 -56 -36t-78.5 -35.5t-98.5 -27t-115 -10.5q-116 0 -205 42.5t-152 125.5q-24 -31 -60 -61t-80.5 -54t-96.5 -38.5t-109 -14.5q-69 0 -126 22t-98.5 62.5t-64 99t-22.5 130.5z
M1368 561q0 58 -21.5 107t-58 85t-84.5 56t-102 20q-44 0 -86.5 -12.5t-80 -34t-68 -50.5t-50.5 -62v-109h551zM240 289q0 -45 16 -78t43 -54.5t61 -31.5t70 -10q37 0 73.5 11t67.5 28t55.5 39t39.5 45v217q-23 5 -54 9q-26 3 -63.5 6t-85.5 3q-45 0 -85 -12.5t-71 -36
t-49 -57.5t-18 -78zM674 1194q-6 12 -1.5 23t13.5 16l307 172q10 6 28 6.5t26 -12.5l36 -74q7 -12 3.5 -25t-15.5 -18l-330 -137q-21 -9 -31 -8.5t-16 12.5z" />
    <glyph glyph-name="Oslashacute" unicode="&#x1fe;" horiz-adv-x="1686" 
d="M168 45q-11 11 -12 26.5t10 26.5l125 125q-87 99 -136 223.5t-49 268.5q0 102 26 196.5t73.5 176.5t114.5 149.5t149 115.5t176 74.5t197 26.5q142 0 267 -50t224 -136l129 129q11 11 27 11t27 -11l10 -11q11 -11 11 -26.5t-11 -26.5l-129 -129q85 -99 133.5 -224
t48.5 -265q0 -102 -26 -196.5t-74 -176t-115 -148.5t-149 -114.5t-176.5 -73.5t-196.5 -26q-143 0 -267 47.5t-221 132.5l-125 -125q-11 -11 -26.5 -10t-26.5 12zM1231 1165q-79 68 -178.5 107t-210.5 39q-122 0 -230 -47.5t-188.5 -128.5t-127 -189.5t-46.5 -230.5
q0 -112 38.5 -210.5t106.5 -176.5zM459 264q77 -66 175 -103.5t208 -37.5q122 0 230 46.5t189 127t128 188.5t47 230q0 109 -38 208t-106 177zM657 1649q-6 12 -1.5 23t14.5 16l307 172q4 3 11.5 5t15.5 1.5t15 -3.5t11 -10l37 -73q6 -13 3 -25.5t-15 -17.5l-330 -138
q-22 -9 -31.5 -8.5t-15.5 13.5z" />
    <glyph glyph-name="oslashacute" unicode="&#x1ff;" horiz-adv-x="1145" 
d="M98 475q0 100 37.5 189t102 156.5t151 107t184.5 39.5q87 0 164.5 -30.5t139.5 -84.5l49 49q15 14 34 14t31 -14l10 -10q16 -14 16 -32t-16 -32l-53 -53q48 -63 74.5 -139t26.5 -160q0 -101 -37.5 -191.5t-102 -158.5t-151 -108t-185.5 -40q-86 0 -162.5 30t-138.5 83
l-34 -35q-13 -12 -30 -11t-30 13l-12 13q-14 14 -15 31.5t13 29.5l37 37q-50 63 -76.5 141.5t-26.5 165.5zM246 475q0 -57 14.5 -109t40.5 -96l477 482q-42 35 -94 56t-111 21q-70 0 -129.5 -28t-103.5 -76.5t-69 -113t-25 -136.5zM899 475q0 54 -14 102.5t-39 92.5
l-475 -480q42 -35 93 -55t109 -20q70 0 130 28.5t103.5 78t68 114.5t24.5 139zM365 1194q-7 12 -2 23t14 16l307 172q4 3 11.5 5t15.5 2t15 -3t11 -10l37 -74q6 -12 3 -25t-15 -18l-330 -137q-22 -9 -31.5 -8.5t-15.5 12.5z" />
    <glyph glyph-name="anoteleia" unicode="&#x387;" horiz-adv-x="444" 
d="M223 510q-23 0 -43 9t-35 24t-24 35.5t-9 43.5q0 45 32 80q33 33 79 33q47 0 80 -33t33 -80q0 -46 -33 -79t-80 -33z" />
    <glyph glyph-name="Wgrave" unicode="&#x1e80;" horiz-adv-x="1815" 
d="M59 1384q-6 22 5 36t32 14h86q13 0 23.5 -9t13.5 -20l285 -1061h8l342 1088q3 9 12 15.5t23 6.5h37q12 0 21.5 -6.5t13.5 -15.5l348 -1088h8l278 1061q3 11 14 20t23 9h86q22 0 32.5 -14t4.5 -36l-387 -1376q-3 -12 -13.5 -20t-23.5 -8h-33q-11 0 -20 6.5t-14 15.5
l-355 1108h-10l-348 -1108q-5 -9 -14.5 -15.5t-20.5 -6.5h-33q-12 0 -22.5 8t-14.5 20zM713 1737q-13 5 -16 17.5t3 25.5l37 73q4 7 11 10t15 3.5t15.5 -1.5t12.5 -5l307 -172q9 -5 13.5 -16t-1.5 -23l-20 -45q-7 -13 -16.5 -13.5t-31.5 8.5z" />
    <glyph glyph-name="wgrave" unicode="&#x1e81;" horiz-adv-x="1438" 
d="M715 713l-279 -711q-3 -9 -12.5 -17t-26.5 -8h-12q-17 0 -26.5 7t-14.5 18l-262 891q-6 23 1.5 38t35.5 15h69q36 0 43 -26l175 -644h4l266 668q3 9 13.5 16t27.5 7h12q14 0 25 -7t14 -16l264 -670h4l174 646q3 12 14 19t25 7h72q25 0 33 -15t0 -38l-258 -891
q-3 -11 -14 -18t-25 -7h-13q-15 0 -25 8t-15 17l-285 711h-4zM524 1282q-12 5 -15 18t3 25l37 74q4 7 11 10t15 3t15 -2t12 -5l307 -172q10 -5 14.5 -16t-1.5 -23l-21 -45q-6 -12 -15.5 -12.5t-31.5 8.5z" />
    <glyph glyph-name="Wacute" unicode="&#x1e82;" horiz-adv-x="1815" 
d="M59 1384q-6 22 5 36t32 14h86q13 0 23.5 -9t13.5 -20l285 -1061h8l342 1088q3 9 12 15.5t23 6.5h37q12 0 21.5 -6.5t13.5 -15.5l348 -1088h8l278 1061q3 11 14 20t23 9h86q22 0 32.5 -14t4.5 -36l-387 -1376q-3 -12 -13.5 -20t-23.5 -8h-33q-11 0 -20 6.5t-14 15.5
l-355 1108h-10l-348 -1108q-5 -9 -14.5 -15.5t-20.5 -6.5h-33q-12 0 -22.5 8t-14.5 20zM700 1649q-6 12 -1.5 23t14.5 16l307 172q4 3 11.5 5t15.5 1.5t15 -3.5t11 -10l37 -73q6 -13 3 -25.5t-15 -17.5l-330 -138q-22 -9 -31.5 -8.5t-15.5 13.5z" />
    <glyph glyph-name="wacute" unicode="&#x1e83;" horiz-adv-x="1438" 
d="M715 713l-279 -711q-3 -9 -12.5 -17t-26.5 -8h-12q-17 0 -26.5 7t-14.5 18l-262 891q-6 23 1.5 38t35.5 15h69q36 0 43 -26l175 -644h4l266 668q3 9 13.5 16t27.5 7h12q14 0 25 -7t14 -16l264 -670h4l174 646q3 12 14 19t25 7h72q25 0 33 -15t0 -38l-258 -891
q-3 -11 -14 -18t-25 -7h-13q-15 0 -25 8t-15 17l-285 711h-4zM512 1194q-6 12 -1.5 23t13.5 16l307 172q10 6 28 6.5t26 -12.5l37 -74q6 -12 3 -25t-16 -18l-329 -137q-22 -9 -31.5 -8.5t-16.5 12.5z" />
    <glyph glyph-name="Wdieresis" unicode="&#x1e84;" horiz-adv-x="1815" 
d="M59 1384q-6 22 5 36t32 14h86q13 0 23.5 -9t13.5 -20l285 -1061h8l342 1088q3 9 12 15.5t23 6.5h37q12 0 21.5 -6.5t13.5 -15.5l348 -1088h8l278 1061q3 11 14 20t23 9h86q22 0 32.5 -14t4.5 -36l-387 -1376q-3 -12 -13.5 -20t-23.5 -8h-33q-11 0 -20 6.5t-14 15.5
l-355 1108h-10l-348 -1108q-5 -9 -14.5 -15.5t-20.5 -6.5h-33q-12 0 -22.5 8t-14.5 20zM1120 1614q-21 0 -40 8t-33.5 22.5t-22.5 33.5t-8 40q0 22 8 42t22.5 34t33.5 22.5t40 8.5q22 0 42 -8.5t34 -22.5t22.5 -34t8.5 -42q0 -21 -8.5 -40t-22.5 -33.5t-34 -22.5t-42 -8z
M688 1614q-21 0 -40 8t-33.5 22.5t-22.5 33.5t-8 40q0 22 8 42t22.5 34t33.5 22.5t40 8.5q22 0 42 -8.5t34 -22.5t22.5 -34t8.5 -42q0 -21 -8.5 -40t-22.5 -33.5t-34 -22.5t-42 -8z" />
    <glyph glyph-name="wdieresis" unicode="&#x1e85;" horiz-adv-x="1438" 
d="M715 713l-279 -711q-3 -9 -12.5 -17t-26.5 -8h-12q-17 0 -26.5 7t-14.5 18l-262 891q-6 23 1.5 38t35.5 15h69q36 0 43 -26l175 -644h4l266 668q3 9 13.5 16t27.5 7h12q14 0 25 -7t14 -16l264 -670h4l174 646q3 12 14 19t25 7h72q25 0 33 -15t0 -38l-258 -891
q-3 -11 -14 -18t-25 -7h-13q-15 0 -25 8t-15 17l-285 711h-4zM913 1190q-21 0 -40 8t-33.5 22.5t-22.5 33.5t-8 40q0 22 8 42t22.5 34t33.5 22.5t40 8.5q22 0 42 -8.5t34 -22.5t22.5 -34t8.5 -42q0 -21 -8.5 -40t-22.5 -33.5t-34 -22.5t-42 -8zM518 1190q-21 0 -40 8
t-33.5 22.5t-22.5 33.5t-8 40q0 22 8 42t22.5 34t33.5 22.5t40 8.5q22 0 42 -8.5t34 -22.5t22.5 -34t8.5 -42q0 -21 -8.5 -40t-22.5 -33.5t-34 -22.5t-42 -8z" />
    <glyph glyph-name="Ygrave" unicode="&#x1ef2;" horiz-adv-x="1176" 
d="M508 690l-494 684q-6 10 -6 20.5t4.5 19.5t13.5 14.5t21 5.5h96q11 0 19.5 -6.5t13.5 -12.5l414 -571l414 571q5 6 13 12.5t19 6.5h97q12 0 21 -5.5t13.5 -14.5t4 -19.5t-6.5 -20.5l-499 -682v-653q0 -16 -12 -27.5t-27 -11.5h-80q-17 0 -28 11.5t-11 27.5v651zM397 1737
q-12 5 -15 17.5t3 25.5l37 73q4 7 11 10t15 3.5t15 -1.5t12 -5l307 -172q10 -5 14.5 -16t-1.5 -23l-21 -45q-6 -13 -15.5 -13.5t-31.5 8.5z" />
    <glyph glyph-name="ygrave" unicode="&#x1ef3;" horiz-adv-x="1024" 
d="M59 895q-9 23 0 37t37 14h86q31 0 41 -26l269 -752h4l319 752q5 12 16 19t25 7h76q28 0 38 -15t-1 -38l-592 -1352q-5 -11 -17 -19.5t-24 -8.5h-74q-28 0 -39 16t0 41l183 432zM305 1282q-12 5 -15 18t3 25l37 74q4 7 11 10t15 3t15 -2t12 -5l307 -172q9 -5 14 -16
t-2 -23l-20 -45q-6 -12 -15.5 -12.5t-31.5 8.5z" />
    <glyph glyph-name="quotereversed" unicode="&#x201b;" horiz-adv-x="469" 
d="M368 1012h-116l-142 446h148z" />
    <glyph glyph-name="lira" unicode="&#x20a4;" horiz-adv-x="1104" 
d="M784 488h-296v-9q0 -243 -193 -339h711v-140h-900v135q218 71 218 313v40h-197v140h197v136h-197v141h197v125q0 190 109 308q109 120 282 120q116 0 213 -41v-155q-99 57 -211 57q-229 0 -229 -307v-107h296v-141h-296v-136h296v-140z" />
    <glyph glyph-name="estimated" unicode="&#x212e;" horiz-adv-x="1718" 
d="M358 324q41 -59 98.5 -105.5t125.5 -78.5t143.5 -49t151.5 -17q115 0 228.5 46t209.5 130q9 9 21 11.5t26 -9.5l24 -29q11 -12 8 -22t-16 -23q-108 -102 -235 -151.5t-266 -49.5q-104 0 -199.5 26t-178 73t-150.5 114t-116 149t-74 177t-26 199t26 199t74 177.5
t116 149.5t150.5 115t178 74t199.5 26q103 0 198 -26t177.5 -74t150 -115t116 -149.5t75.5 -177.5t28 -199q0 -26 -10 -37.5t-29 -11.5h-1225v-342zM1399 760v344q-43 59 -99.5 106t-123.5 80t-142.5 50.5t-156.5 17.5q-162 0 -296.5 -65.5t-222.5 -184.5v-348h1041z" />
    <glyph glyph-name="oneeighth" unicode="&#x215b;" horiz-adv-x="1319" 
d="M903 1413q12 21 35 21h33q11 0 20 -5t14 -13t5.5 -18t-4.5 -20l-707 -1358q-3 -6 -12 -13t-23 -7h-28q-12 0 -21 5t-14 13t-5.5 17.5t5.5 19.5zM229 827q-9 0 -14.5 5.5t-5.5 13.5v430l-84 -23q-8 -2 -13.5 0t-7.5 9l-10 34q-2 8 -1 12.5t7 10.5l144 115h57
q9 0 13.5 -5.5t4.5 -13.5v-569q0 -8 -5 -13.5t-13 -5.5h-72zM764 152q0 30 13.5 56.5t32.5 47.5t39 35.5t32 19.5v4q-15 7 -33 20.5t-33 32t-25 41.5t-10 50q0 38 16 69t44 53t66 34t83 12t83.5 -12t67 -34t44.5 -53t16 -69q0 -26 -10 -49t-25.5 -41.5t-33.5 -32t-33 -21.5
v-4q17 -8 37.5 -22.5t38.5 -35t30.5 -46t12.5 -55.5q0 -38 -16 -69.5t-46 -54.5t-72.5 -35.5t-95.5 -12.5q-51 0 -92 12.5t-70 35.5t-45 54.5t-16 69.5zM889 453q0 -34 24 -58.5t76 -34.5q53 10 78 35.5t25 57.5q0 37 -30 61.5t-75 24.5q-42 0 -70 -24.5t-28 -61.5zM874 158
q0 -21 9.5 -37.5t25.5 -28.5t37 -18t43 -6q48 0 82.5 24t34.5 66q0 34 -30 63.5t-87 40.5q-56 -11 -85.5 -40.5t-29.5 -63.5z" />
    <glyph glyph-name="threeeighths" unicode="&#x215c;" horiz-adv-x="1403" 
d="M315 807q-48 0 -83.5 9.5t-61 23t-41.5 28t-25 23.5q-5 5 -4.5 11t6.5 11l44 41q15 10 26 -2q2 -2 14 -10t30 -18t41.5 -17.5t49.5 -7.5q24 0 46 6.5t39.5 18.5t27.5 29t10 38q0 19 -8.5 37t-27 31.5t-46.5 22t-67 8.5h-64q-8 0 -14 4.5t-6 13.5v51q0 19 20 19h64
q69 0 101 26.5t32 63.5q0 21 -9 38t-24.5 29t-35.5 18.5t-42 6.5q-44 0 -71.5 -17t-42.5 -32q-5 -5 -12 -5.5t-15 5.5l-41 37q-6 5 -6 12t6 12q23 23 53 41q25 15 60 28t77 13q45 0 84 -12t68 -34t46 -53.5t17 -70.5q0 -26 -8.5 -49t-22 -42t-30.5 -32t-35 -20v-4
q18 -7 38.5 -21t37.5 -33.5t28 -44.5t11 -55q0 -38 -16.5 -70t-47 -55.5t-74 -37t-96.5 -13.5zM991 1413q12 21 35 21h33q23 0 34 -18t1 -38l-707 -1358q-3 -6 -12 -13t-23 -7h-28q-12 0 -21 5t-14 13t-5.5 17.5t5.5 19.5zM852 152q0 30 13.5 56.5t32.5 47.5t39 35.5
t32 19.5v4q-15 7 -33 20.5t-33 32t-25 41.5t-10 50q0 38 16 69t44 53t66 34t83 12t83.5 -12t67 -34t44.5 -53t16 -69q0 -26 -10 -49t-25.5 -41.5t-33.5 -32t-33 -21.5v-4q17 -8 37.5 -22.5t38.5 -35t30.5 -46t12.5 -55.5q0 -38 -16 -69.5t-46 -54.5t-72.5 -35.5t-95.5 -12.5
q-51 0 -92 12.5t-70 35.5t-45 54.5t-16 69.5zM977 453q0 -34 24 -58.5t76 -34.5q53 10 78 35.5t25 57.5q0 37 -30 61.5t-75 24.5q-42 0 -70 -24.5t-28 -61.5zM963 158q0 -21 9.5 -37.5t25.5 -28.5t36.5 -18t42.5 -6q48 0 82.5 24t34.5 66q0 34 -30 63.5t-87 40.5
q-55 -11 -84.5 -40.5t-29.5 -63.5z" />
    <glyph glyph-name="fiveeighths" unicode="&#x215d;" horiz-adv-x="1407" 
d="M997 1413q13 21 35 21h33q23 0 34 -18t1 -38l-707 -1358q-3 -6 -12 -13t-23 -7h-28q-23 0 -34.5 17.5t-0.5 37.5zM317 807q-41 0 -74 8t-57.5 20t-41.5 25.5t-27 24.5t-11 16.5t9 13.5l43 41q13 12 24 0q2 -2 14 -11t30.5 -19t43 -17.5t52.5 -7.5q29 0 53 10t41.5 26
t27 37t9.5 44q0 46 -33.5 78t-102.5 32h-157q-16 0 -23.5 10.5t-7.5 22.5v254q0 8 5 13.5t13 5.5h320q8 0 13 -5.5t5 -13.5v-55q0 -6 -5 -11.5t-13 -5.5h-240v-122h99q112 0 173.5 -55t61.5 -146q0 -44 -18 -82.5t-50.5 -67.5t-77.5 -46t-98 -17zM858 152q0 30 13.5 56.5
t32.5 47.5t39 35.5t32 19.5v4q-15 7 -33 20.5t-33 32t-25 41.5t-10 50q0 38 16 69t44 53t66.5 34t82.5 12q45 0 83.5 -12t67 -34t44.5 -53t16 -69q0 -26 -10 -49t-25.5 -41.5t-33.5 -32t-33 -21.5v-4q17 -8 37.5 -22.5t38.5 -35t30.5 -46t12.5 -55.5q0 -38 -16 -69.5
t-46 -54.5t-72.5 -35.5t-95.5 -12.5q-51 0 -92 12.5t-70 35.5t-45 54.5t-16 69.5zM983 453q0 -34 24 -58.5t76 -34.5q53 10 78 35.5t25 57.5q0 37 -30 61.5t-75 24.5q-42 0 -70 -24.5t-28 -61.5zM969 158q0 -21 9.5 -37.5t25.5 -28.5t36.5 -18t42.5 -6q48 0 82.5 24t34.5 66
q0 34 -30 63.5t-87 40.5q-55 -11 -84.5 -40.5t-29.5 -63.5z" />
    <glyph glyph-name="seveneighths" unicode="&#x215e;" horiz-adv-x="1341" 
d="M930 1413q12 21 35 21h32q23 0 34.5 -18t0.5 -38l-706 -1358q-3 -6 -12 -13t-23 -7h-29q-23 0 -34.5 17.5t-0.5 37.5zM158 827q-10 0 -14.5 2.5t-4.5 12.5v14l271 485h-293q-8 0 -13.5 5.5t-5.5 13.5v55q0 8 5.5 13.5t13.5 5.5h411q8 0 13.5 -5.5t5.5 -13.5v-22
l-293 -547q-6 -11 -11.5 -15t-15.5 -4h-69zM791 152q0 30 13.5 56.5t32 47.5t38.5 35.5t32 19.5v4q-15 7 -32.5 20.5t-32.5 32t-25 41.5t-10 50q0 38 16 69t44 53t66 34t83 12t83.5 -12t67 -34t44.5 -53t16 -69q0 -26 -10.5 -49t-26 -41.5t-33.5 -32t-33 -21.5v-4
q17 -8 37.5 -22.5t38.5 -35t30.5 -46t12.5 -55.5q0 -38 -16 -69.5t-45.5 -54.5t-72 -35.5t-95.5 -12.5q-51 0 -92 12.5t-70 35.5t-45 54.5t-16 69.5zM915 453q0 -34 24 -58.5t77 -34.5q52 10 77 35.5t25 57.5q0 37 -29.5 61.5t-74.5 24.5q-42 0 -70.5 -24.5t-28.5 -61.5z
M901 158q0 -21 9.5 -37.5t25.5 -28.5t36.5 -18t43.5 -6q24 0 45 6t37 18t25.5 28.5t9.5 37.5q0 34 -30 63.5t-87 40.5q-56 -11 -85.5 -40.5t-29.5 -63.5z" />
    <glyph glyph-name="commaaccent" horiz-adv-x="598" 
d="M172 -244q0 47 31.5 73t79.5 26q63 0 102 -44.5t39 -129.5q0 -39 -8 -73t-21.5 -63t-30 -52.5t-34.5 -41.5q-8 -8 -15 -7t-16 7l-33 25q-11 11 -9.5 19t9.5 16q25 20 42.5 56t17.5 77q0 28 -11 45q-5 -5 -18.5 -10t-32.5 -5q-42 0 -67 23.5t-25 58.5z" />
    <glyph glyph-name="tonos" unicode="&#x384;" horiz-adv-x="558" 
d="M475 1537l-175 -363h-94l102 363h167z" />
    <glyph glyph-name="dieresistonos" unicode="&#x385;" horiz-adv-x="558" 
d="M470 1551l-175 -363h-93l101 363h167zM545 1224q-20 0 -37.5 7.5t-31 20.5t-21 31t-7.5 39t7.5 39t21 31t30.5 20.5t37 7.5q42 0 71 -28t29 -70t-28.5 -70t-70.5 -28zM60 1224q-20 0 -37.5 7.5t-31 20.5t-21.5 31t-8 39t8 39t21.5 31t31 20.5t37.5 7.5q42 0 71 -28
t29 -70t-29 -70t-71 -28z" />
    <glyph glyph-name="Alphatonos" unicode="&#x386;" horiz-adv-x="1321" 
d="M1298 0h-186l-152 402h-608l-143 -402h-187l550 1434h174zM905 553l-225 611q-5 15 -11 39t-11 57h-4q-5 -31 -10.5 -55t-12.5 -41l-223 -611h497zM314 1434l-175 -363h-94l102 363h167z" />
    <glyph glyph-name="Epsilontonos" unicode="&#x388;" horiz-adv-x="1168" 
d="M1078 0h-760v1434h728v-152h-560v-477h518v-151h-518v-502h592v-152zM210 1434l-175 -363h-94l102 363h167z" />
    <glyph glyph-name="Etatonos" unicode="&#x389;" horiz-adv-x="1585" 
d="M1396 0h-168v654h-742v-654h-168v1434h168v-629h742v629h168v-1434zM210 1434l-175 -363h-94l102 363h167z" />
    <glyph glyph-name="Iotatonos" unicode="&#x38a;" horiz-adv-x="775" 
d="M586 0h-168v1434h168v-1434zM211 1434l-175 -363h-94l102 363h167z" />
    <glyph glyph-name="Omicrontonos" unicode="&#x38c;" horiz-adv-x="1640" 
d="M868 -24q-305 0 -489 201q-183 201 -183 523q0 347 187 552q188 206 509 206q296 0 478 -200t182 -523q0 -351 -186 -555t-498 -204zM880 1306q-226 0 -367 -163q-141 -164 -141 -428q0 -263 137 -427q138 -161 359 -161q236 0 372 154t136 431q0 284 -132 439t-364 155z
M222 1434l-175 -363h-94l102 363h167z" />
    <glyph glyph-name="Upsilontonos" unicode="&#x38e;" horiz-adv-x="1366" 
d="M1352 1434l-473 -904v-530h-168v526l-461 908h191l321 -648q3 -6 12 -28t23 -60h3q5 17 14.5 39t23.5 49l336 648h178zM192 1434l-175 -363h-94l102 363h167z" />
    <glyph glyph-name="Omegatonos" unicode="&#x38f;" horiz-adv-x="1692" 
d="M1595 0h-519v147q345 255 345 633q0 245 -139 387q-140 143 -358 143q-222 0 -363 -142q-141 -143 -141 -387q0 -378 346 -634v-147h-520v148l348 -1q-348 235 -348 638q0 313 185 493q184 180 487 180q308 0 493 -179q184 -178 184 -493q0 -402 -347 -639l347 1v-148z
M222 1434l-175 -363h-94l102 363h167z" />
    <glyph glyph-name="iotadieresistonos" unicode="&#x390;" horiz-adv-x="546" 
d="M520 10q-59 -22 -121 -22q-233 0 -233 277v759h163v-754q0 -138 101 -138q42 0 90 18v-140zM430 1551l-175 -363h-93l101 363h167zM505 1224q-20 0 -37.5 7.5t-31 20.5t-21 31t-7.5 39t7.5 39t21 31t30.5 20.5t37 7.5q42 0 71 -28t29 -70t-28.5 -70t-70.5 -28zM20 1224
q-20 0 -37.5 7.5t-31 20.5t-21.5 31t-8 39t8 39t21.5 31t31 20.5t37.5 7.5q42 0 71 -28t29 -70t-29 -70t-71 -28z" />
    <glyph glyph-name="Alpha" unicode="&#x391;" horiz-adv-x="1321" 
d="M1298 0h-186l-152 402h-608l-143 -402h-187l550 1434h174zM905 553l-225 611q-5 15 -11 39t-11 57h-4q-5 -31 -10.5 -55t-12.5 -41l-223 -611h497z" />
    <glyph glyph-name="Beta" unicode="&#x392;" horiz-adv-x="1174" 
d="M188 0v1434h408q186 0 295 -91t109 -237q0 -122 -66 -212t-182 -128v-4q144 -17 232 -110q87 -92 87 -240q0 -184 -132 -298t-333 -114h-418zM356 1282v-463h172q69 0 124 17t93 49.5t58.5 80t20.5 107.5q0 209 -275 209h-193zM356 668v-516h228q150 0 230.5 69t80.5 193
q0 254 -346 254h-193z" />
    <glyph glyph-name="Epsilon" unicode="&#x395;" horiz-adv-x="1036" 
d="M948 0h-760v1434h728v-152h-560v-477h518v-151h-518v-502h592v-152z" />
    <glyph glyph-name="Zeta" unicode="&#x396;" horiz-adv-x="1168" 
d="M1124 1394l-840 -1242h820v-152h-1071v47l833 1235h-766v152h1024v-40z" />
    <glyph glyph-name="Eta" unicode="&#x397;" horiz-adv-x="1454" 
d="M1266 0h-168v654h-742v-654h-168v1434h168v-629h742v629h168v-1434z" />
    <glyph glyph-name="Iota" unicode="&#x399;" horiz-adv-x="545" 
d="M356 0h-168v1434h168v-1434z" />
    <glyph glyph-name="Kappa" unicode="&#x39a;" horiz-adv-x="1188" 
d="M1186 0h-234l-554 656q-31 37 -38 50h-4v-706h-168v1434h168v-674h4q7 11 16.5 23t21.5 26l536 625h209l-615 -688z" />
    <glyph glyph-name="Lambda" unicode="&#x39b;" horiz-adv-x="1288" 
d="M1263 0h-187l-404 1150q-8 23 -15 53t-13 65h-4q-11 -62 -30 -119l-406 -1149h-180l526 1434h190z" />
    <glyph glyph-name="Mu" unicode="&#x39c;" horiz-adv-x="1839" 
d="M1650 0h-167v962q0 57 3.5 126t10.5 153h-4q-24 -100 -43 -139l-490 -1102h-82l-489 1094q-10 23 -21 59.5t-22 87.5h-4q4 -43 6 -112.5t2 -168.5v-960h-162v1434h222l440 -1000q50 -114 66 -172h6q22 60 39 103.5t30 72.5l449 996h210v-1434z" />
    <glyph glyph-name="Nu" unicode="&#x39d;" horiz-adv-x="1532" 
d="M1344 0h-206l-738 1143q-26 40 -46 90h-6q4 -23 6 -72t2 -125v-1036h-168v1434h218l718 -1125q23 -35 37 -59t21 -37h4q-10 59 -10 211v1010h168v-1434z" />
    <glyph glyph-name="Xi" unicode="&#x39e;" horiz-adv-x="1044" 
d="M960 1274h-876v160h876v-160zM822 648h-599v153h599v-153zM987 0h-929v162h929v-162z" />
    <glyph glyph-name="Omicron" unicode="&#x39f;" horiz-adv-x="1544" 
d="M766 -24q-305 0 -489 201q-183 201 -183 523q0 347 187 552q188 206 509 206q296 0 478 -200t182 -523q0 -351 -186 -555t-498 -204zM778 1306q-226 0 -367 -163q-141 -164 -141 -428q0 -263 137 -427q138 -161 359 -161q236 0 372 154t136 431q0 284 -132 439t-364 155z
" />
    <glyph glyph-name="Pi" unicode="&#x3a0;" horiz-adv-x="1460" 
d="M1276 0h-170v1278h-749v-1278h-169v1434h1088v-1434z" />
    <glyph glyph-name="Rho" unicode="&#x3a1;" horiz-adv-x="1147" 
d="M356 542v-542h-168v1434h394q232 0 356 -112q127 -112 127 -316t-141 -334q-139 -130 -379 -130h-189zM356 1282v-588h176q176 0 266.5 78.5t90.5 225.5q0 284 -336 284h-197z" />
    <glyph glyph-name="Sigma" unicode="&#x3a3;" horiz-adv-x="1057" 
d="M1008 0h-962v78l465 660l-423 606v90h858v-155h-613l379 -535l-420 -596h716v-148z" />
    <glyph glyph-name="Tau" unicode="&#x3a4;" horiz-adv-x="1073" 
d="M1036 1282h-414v-1282h-168v1282h-413v152h995v-152z" />
    <glyph glyph-name="Upsilon" unicode="&#x3a5;" horiz-adv-x="1132" 
d="M1120 1434l-473 -904v-530h-168v526l-461 908h191l321 -648q3 -6 12 -28t23 -60h3q5 17 14.5 39t23.5 49l336 648h178z" />
    <glyph glyph-name="Chi" unicode="&#x3a7;" horiz-adv-x="1208" 
d="M1178 0h-205l-330 549q-16 26 -33 71h-4q-5 -11 -13.5 -29t-20.5 -42l-340 -549h-206l480 721l-442 713h206l293 -504q14 -25 27 -50t24 -50h4q16 32 29.5 58t26.5 46l305 500h193l-451 -711z" />
    <glyph glyph-name="Psi" unicode="&#x3a8;" horiz-adv-x="1589" 
d="M872 1434v-896h57q362 0 362 366v530h163v-530q0 -225 -143 -371q-143 -143 -382 -143h-57v-390h-155v390h-57q-239 0 -382 143q-142 142 -142 371v530h162v-530q0 -366 362 -366h57v896h155z" />
    <glyph glyph-name="Iotadieresis" unicode="&#x3aa;" horiz-adv-x="545" 
d="M356 0h-168v1434h168v-1434zM470 1566q-40 0 -69 28t-29 71q0 42 28 70t68 28q42 0 71 -28t29 -70t-28 -70.5t-70 -28.5zM86 1566q-21 0 -39.5 8t-32 21.5t-21.5 31.5t-8 38q0 21 7.5 39t21 31t31 20.5t38.5 7.5q42 0 71.5 -28t29.5 -70q0 -21 -8 -39t-21.5 -31.5
t-31.5 -21t-37 -7.5z" />
    <glyph glyph-name="Upsilondieresis" unicode="&#x3ab;" horiz-adv-x="1132" 
d="M1120 1434l-473 -904v-530h-168v526l-461 908h191l321 -648q3 -6 12 -28t23 -60h3q5 17 14.5 39t23.5 49l336 648h178zM759 1565q-40 0 -69 28t-29 71q0 42 28 70t68 28q42 0 71 -28t29 -70t-28 -70.5t-70 -28.5zM375 1565q-21 0 -39.5 8t-32 21.5t-21.5 31.5t-8 38
q0 21 7.5 39t21 31t31 20.5t38.5 7.5q42 0 71.5 -28t29.5 -70q0 -21 -8 -39t-21.5 -31.5t-31.5 -21t-37 -7.5z" />
    <glyph glyph-name="alphatonos" unicode="&#x3ac;" horiz-adv-x="1258" 
d="M1221 5q-49 -13 -95 -13q-154 0 -208 293h-4q-149 -309 -414 -309q-185 0 -298 143q-112 142 -112 363q0 250 129 408t349 158q128 0 225.5 -74.5t149.5 -211.5h4l85 262h172l-193 -502q35 -219 72 -298q37 -78 98 -78q20 0 40 5v-146zM873 520q-38 192 -115 292
t-189 100q-142 0 -227 -121q-84 -122 -84 -299q0 -158 71 -265q72 -107 193 -107q106 0 192.5 89.5t144.5 267.5zM796 1537l-175 -363h-94l102 363h167z" />
    <glyph glyph-name="epsilontonos" unicode="&#x3ad;" horiz-adv-x="897" 
d="M827 22q-133 -47 -325 -47q-196 0 -308 82t-112 220q0 93 69 161q71 68 184 89v4q-86 18 -150 82t-64 148q0 136 106 212t285 76q142 0 270 -45v-165q-134 71 -280 71q-215 0 -215 -147q0 -75 81 -121q79 -46 206 -46q37 0 66 1t52 3v-146q-37 2 -71.5 3t-68.5 1
q-304 0 -304 -178q0 -75 69.5 -120.5t199.5 -45.5q168 0 310 73v-165zM705 1537l-175 -363h-94l102 363h167z" />
    <glyph glyph-name="etatonos" unicode="&#x3ae;" horiz-adv-x="1178" 
d="M1016 -404h-166v976q0 327 -236 327q-124 0 -205 -89q-80 -89 -80 -223v-587h-163v694q0 234 -36 330h168q28 -71 28 -173h4q111 197 340 197q346 0 346 -418v-1034zM799 1537l-175 -363h-94l102 363h167z" />
    <glyph glyph-name="iotatonos" unicode="&#x3af;" horiz-adv-x="546" 
d="M520 10q-59 -22 -121 -22q-233 0 -233 277v759h163v-754q0 -138 101 -138q42 0 90 18v-140zM444 1537l-175 -363h-94l102 363h167z" />
    <glyph glyph-name="upsilondieresistonos" unicode="&#x3b0;" horiz-adv-x="1132" 
d="M174 711q0 91 -20.5 133.5t-76.5 42.5q-30 0 -57 -7v138q45 13 95 13q124 0 172 -74q49 -73 49 -239v-257q0 -341 269 -341q129 0 198.5 87.5t69.5 250.5q0 299 -147 566h183q129 -251 129 -559q0 -225 -116 -359q-116 -132 -317 -132q-211 0 -321 117t-110 341v279z
M733 1551l-175 -363h-93l101 363h167zM808 1224q-20 0 -37.5 7.5t-31 20.5t-21 31t-7.5 39t7.5 39t21 31t30.5 20.5t37 7.5q42 0 71 -28t29 -70t-28.5 -70t-70.5 -28zM323 1224q-20 0 -37.5 7.5t-31 20.5t-21.5 31t-8 39t8 39t21.5 31t31 20.5t37.5 7.5q42 0 71 -28t29 -70
t-29 -70t-71 -28z" />
    <glyph glyph-name="beta" unicode="&#x3b2;" horiz-adv-x="1122" 
d="M329 -481h-162v1596q0 191 110 304t295 113q175 0 272 -91q100 -90 100 -250q0 -118 -77 -225q-77 -104 -198 -143v-4q90 -15 160 -49.5t118 -87t73 -121.5t25 -152q0 -193 -121 -314q-122 -120 -318 -120q-152 0 -277 71v-527zM497 872q121 16 202 103q80 89 80 196
q0 221 -210 221q-118 0 -179 -76t-61 -218v-896q139 -87 274 -87q131 0 202.5 73.5t71.5 209.5q0 302 -380 343v131z" />
    <glyph glyph-name="gamma" unicode="&#x3b3;" horiz-adv-x="1063" 
d="M567 -69q0 -162 -1 -264t-3 -148h-175q15 169 15 495q-20 109 -59 236t-99 279q-119 301 -240 495h188q125 -223 210 -441.5t133 -439.5h4q166 243 228 415q63 172 63 336q0 31 -2.5 63.5t-7.5 66.5h171q6 -53 6 -85q0 -134 -30 -263q-30 -131 -94 -256
q-32 -63 -59.5 -112.5t-52.5 -84.5z" />
    <glyph glyph-name="zeta" unicode="&#x3b6;" horiz-adv-x="905" 
d="M646 -309q98 80 98 156q0 68 -63 100q-59 31 -200 49q-405 49 -405 455q0 434 596 928v4h-436v133h603v-135q-593 -518 -593 -927q0 -251 288 -297q211 -34 286 -105q75 -69 75 -180q0 -102 -70 -181h-179z" />
    <glyph glyph-name="eta" unicode="&#x3b7;" horiz-adv-x="1178" 
d="M1016 -404h-166v976q0 327 -236 327q-124 0 -205 -89q-80 -89 -80 -223v-587h-163v694q0 234 -36 330h168q28 -71 28 -173h4q111 197 340 197q346 0 346 -418v-1034z" />
    <glyph glyph-name="theta" unicode="&#x3b8;" horiz-adv-x="1201" 
d="M590 -24q-233 0 -363 201q-130 199 -130 565q0 383 135 587q136 205 390 205q482 0 482 -767q0 -378 -135 -585q-134 -206 -379 -206zM934 836q-18 558 -329 558q-150 0 -240 -152q-90 -153 -100 -406h669zM264 704q6 -289 94 -438.5t246 -149.5q77 0 137 39t102 114
t65.5 184.5t26.5 250.5h-671z" />
    <glyph glyph-name="iota" unicode="&#x3b9;" horiz-adv-x="546" 
d="M520 10q-59 -22 -121 -22q-233 0 -233 277v759h163v-754q0 -138 101 -138q42 0 90 18v-140z" />
    <glyph glyph-name="kappa" unicode="&#x3ba;" horiz-adv-x="1073" 
d="M1043 0h-203l-370 500l-141 -152v-348h-163v1024h163v-498l275 312q114 130 173 166q55 34 103 34q37 0 63.5 -1.5t42.5 -5.5v-145q-34 8 -80 8q-66 0 -210 -156l-115 -125z" />
    <glyph glyph-name="lambda" unicode="&#x3bb;" horiz-adv-x="1020" 
d="M991 0h-177l-279 827l-356 -827h-181l463 1016l-67 197q-53 155 -156 155q-58 0 -122 -19v157q64 12 130 12q114 0 181 -64q71 -63 132 -241z" />
    <glyph glyph-name="nu" unicode="&#x3bd;" horiz-adv-x="1077" 
d="M420 0l-408 1024h181l335 -868q272 344 272 658q0 124 -34 210h177q23 -74 23 -186q0 -378 -382 -838h-164z" />
    <glyph glyph-name="xi" unicode="&#x3be;" horiz-adv-x="911" 
d="M637 -316q97 78 97 161q0 58 -47 96q-45 36 -208 56q-96 12 -171 45.5t-126.5 86.5t-78 124t-26.5 157q0 134 80.5 236t232.5 157q-109 29 -165.5 93.5t-56.5 155.5q0 112 96 201q99 90 260 128v7q-162 -2 -250.5 -3.5t-107.5 -1.5v134h606v-137q-200 -32 -318 -114
q-119 -83 -119 -197q0 -70 44 -120t112 -69q72 -20 114 -20q23 0 73 3q49 3 78 3v-150q-48 3 -113 3q-170 0 -284 -81q-113 -80 -113 -215q0 -219 284 -264q201 -31 278 -102q78 -69 78 -187q0 -107 -70 -186h-179z" />
    <glyph glyph-name="omicron" unicode="&#x3bf;" horiz-adv-x="1200" 
d="M594 -24q-226 0 -363 143q-135 144 -135 381q0 257 141 403q141 145 381 145q229 0 357 -141q129 -141 129 -391q0 -245 -139 -393q-138 -147 -371 -147zM606 910q-159 0 -250 -108q-92 -107 -92 -296q0 -182 93 -287t249 -105q161 0 245.5 102t84.5 294q0 194 -84.5 297
t-245.5 103z" />
    <glyph glyph-name="rho" unicode="&#x3c1;" horiz-adv-x="1200" 
d="M324 99v-495h-163v922q0 248 115 384q115 138 337 138q223 0 357 -147q134 -149 134 -372q0 -262 -124 -407q-123 -146 -344 -146q-193 0 -308 123h-4zM324 259q40 -63 121 -103q80 -40 171 -40q318 0 318 404q0 169 -89 279q-88 109 -229 109q-145 0 -218.5 -98
t-73.5 -286v-265z" />
    <glyph glyph-name="sigma1" unicode="&#x3c2;" horiz-adv-x="943" 
d="M646 -316q98 77 98 164q0 70 -62 102q-61 31 -193 48q-195 25 -298 140q-104 116 -104 293q0 280 151 449t388 169q128 0 228 -52v-167q-112 79 -243 79q-153 0 -254 -131q-100 -130 -100 -328q0 -142 90 -214q41 -32 73 -43q15 -5 92 -25.5t219 -58.5q166 -61 166 -239
q0 -107 -70 -186h-181z" />
    <glyph glyph-name="upsilon" unicode="&#x3c5;" horiz-adv-x="1132" 
d="M174 711q0 91 -20.5 133.5t-76.5 42.5q-30 0 -57 -7v138q45 13 95 13q124 0 172 -74q49 -73 49 -239v-257q0 -341 269 -341q129 0 198.5 87.5t69.5 250.5q0 299 -147 566h183q129 -251 129 -559q0 -225 -116 -359q-116 -132 -317 -132q-211 0 -321 117t-110 341v279z" />
    <glyph glyph-name="chi" unicode="&#x3c7;" horiz-adv-x="1102" 
d="M1094 -470q-44 -9 -92 -9q-91 0 -155 67q-67 70 -140 239l-159 363l-351 -657h-185l454 824l-174 393q-66 148 -138 148q-44 0 -88 -14v154q31 10 107 10q87 0 139 -46q53 -46 105 -166l140 -330l273 518h185l-375 -680l236 -524q67 -150 140 -150q40 0 78 16v-156z" />
    <glyph glyph-name="psi" unicode="&#x3c8;" horiz-adv-x="1536" 
d="M1384 556q0 -266 -143 -424q-143 -155 -375 -155h-24v-459h-148v459h-24q-234 0 -377 155q-141 154 -141 424v468h166v-468q0 -198 100 -316q101 -119 252 -119h24v1210h148v-1210h24q150 0 251 119t101 316v468h166v-468z" />
    <glyph glyph-name="omega" unicode="&#x3c9;" horiz-adv-x="1655" 
d="M825 168q-104 -191 -305 -191q-189 0 -295 127t-106 352q0 257 126 568h183q-143 -322 -143 -574q0 -161 61 -245t170 -84q230 0 230 346v283h164v-283q0 -346 229 -346q109 0 169.5 84t60.5 245q0 257 -142 574h182q127 -308 127 -568q0 -224 -107 -352
q-106 -127 -297 -127q-202 0 -303 191h-4z" />
    <glyph glyph-name="iotadieresis" unicode="&#x3ca;" horiz-adv-x="546" 
d="M520 10q-59 -22 -121 -22q-233 0 -233 277v759h163v-754q0 -138 101 -138q42 0 90 18v-140zM466 1202q-40 0 -69 28t-29 71q0 42 28 70t68 28q42 0 71 -28t29 -70t-28 -70.5t-70 -28.5zM82 1202q-21 0 -39.5 8t-32 21.5t-21.5 31.5t-8 38q0 21 7.5 39t21 31t31 20.5
t38.5 7.5q42 0 71.5 -28t29.5 -70q0 -21 -8 -39t-21.5 -31.5t-31.5 -21t-37 -7.5z" />
    </font>
</defs>
</svg>
